<svg width="4" height="15" viewBox="0 0 4 15" fill="none" xmlns="http://www.w3.org/2000/svg">
<path d="M1.875 9.375C2.91053 9.375 3.75 8.53553 3.75 7.5C3.75 6.46447 2.91053 5.625 1.875 5.625C0.839466 5.625 0 6.46447 0 7.5C0 8.53553 0.839466 9.375 1.875 9.375Z" fill="#FFFBFB"/>
<path d="M1.875 15C2.91053 15 3.75 14.1605 3.75 13.125C3.75 12.0895 2.91053 11.25 1.875 11.25C0.839466 11.25 0 12.0895 0 13.125C0 14.1605 0.839466 15 1.875 15Z" fill="#FFFBFB"/>
<path d="M1.875 3.75C2.91053 3.75 3.75 2.91053 3.75 1.875C3.75 0.839466 2.91053 0 1.875 0C0.839466 0 0 0.839466 0 1.875C0 2.91053 0.839466 3.75 1.875 3.75Z" fill="#FFFBFB"/>
</svg>
