<svg width="13" height="15" viewBox="0 0 13 15" fill="none" xmlns="http://www.w3.org/2000/svg">
<path d="M12.4552 12.6519L11.3821 10.8631C10.8865 10.0375 10.6246 9.09188 10.6246 8.12938V6.5625C10.6246 4.58438 9.30457 2.91126 7.49956 2.37188V1.25001C7.49956 0.560625 6.93893 0 6.24955 0C5.56016 0 4.99954 0.560625 4.99954 1.25001V2.37188C3.19456 2.91126 1.87456 4.58438 1.87456 6.5625V8.12938C1.87456 9.09188 1.61267 10.0369 1.11767 10.8625L0.0445556 12.6513C-0.0135694 12.7482 -0.0148291 12.8682 0.0408056 12.9663C0.0964404 13.0644 0.199565 13.125 0.312065 13.125H12.1871C12.2996 13.125 12.4033 13.0644 12.4589 12.9669C12.5146 12.8694 12.5127 12.7481 12.4552 12.6519Z" fill="#FFFBFB"/>
<path d="M4.28143 13.75C4.63393 14.4863 5.38018 15 6.24954 15C7.11889 15 7.86517 14.4863 8.21767 13.75H4.28143Z" fill="#FFFBFB"/>
</svg>
