<svg width="12" height="15" viewBox="0 0 12 15" fill="none" xmlns="http://www.w3.org/2000/svg">
<path d="M5.625 7.33598C7.2695 7.33598 8.60275 5.69378 8.60275 3.66801C8.60275 1.6422 8.16503 0 5.625 0C3.08497 0 2.64716 1.6422 2.64716 3.66801C2.64716 5.69378 3.98041 7.33598 5.625 7.33598Z" fill="#FFFBFB"/>
<path d="M0.00058557 12.9366C7.84515e-05 12.813 -0.000428667 12.9018 0.00058557 12.9366V12.9366Z" fill="#FFFBFB"/>
<path d="M11.2491 13.033C11.2508 12.9992 11.2497 12.7984 11.2491 13.033V13.033Z" fill="#FFFBFB"/>
<path d="M11.2428 12.7884C11.1877 9.2595 10.7332 8.25395 7.25551 7.61743C7.25551 7.61743 6.76597 8.25005 5.62496 8.25005C4.48394 8.25005 3.99432 7.61743 3.99432 7.61743C0.554576 8.247 0.0724756 9.23765 0.00908579 12.6738C0.00388783 12.9544 0.00147903 12.9691 0.000549316 12.9366C0.000760616 12.9976 0.00101408 13.1105 0.00101408 13.3073C0.00101408 13.3073 0.828969 15 5.62496 15C10.4209 15 11.2489 13.3073 11.2489 13.3073C11.2489 13.1808 11.249 13.0929 11.2491 13.0331C11.2482 13.0532 11.2463 13.0142 11.2428 12.7884Z" fill="#FFFBFB"/>
</svg>
