<svg id="Layer_1" data-name="Layer 1" xmlns="http://www.w3.org/2000/svg" viewBox="0 0 80 80"><defs><style>.cls-1{fill:currentColor;}</style></defs><title>1_Giup-viec-gia-dinh</title><path class="cls-1" d="M16.59,29a10.93,10.93,0,0,0,1.88,6.14c.2.31.43.61.66.9a.84.84,0,1,0,1.32-1c-.2-.26-.4-.52-.57-.79A9.28,9.28,0,0,1,18.28,29a10.51,10.51,0,0,1,2.45-6.74l.08-.1H42.92l.09.11A10.51,10.51,0,0,1,45.45,29a9.3,9.3,0,0,1-1.68,5.32,11.48,11.48,0,0,1-.78,1,.84.84,0,1,0,1.28,1.1,13.19,13.19,0,0,0,.89-1.16,11,11,0,0,0,2-6.27A12.36,12.36,0,0,0,44.2,21.1L44.1,21l.06-.16A5.61,5.61,0,0,0,37,13.52l-.19.07-.13-.15a6.28,6.28,0,0,0-9.63,0l-.13.15-.19-.07a5.61,5.61,0,0,0-7.15,7.3l.06.16-.11.13A12.36,12.36,0,0,0,16.59,29Zm8.23-14.18a3.93,3.93,0,0,1,2,.52.84.84,0,0,0,1.14-.29,4.6,4.6,0,0,1,7.88,0,.84.84,0,0,0,1.15.29,3.93,3.93,0,0,1,5.59,4.95l-.07.17H21.28l-.07-.17a3.93,3.93,0,0,1,3.61-5.48Z"/><path class="cls-1" d="M68.5,60.57l-.25-.21.25-.21a4.31,4.31,0,0,0,0-6.54l-.25-.21.25-.21a4.33,4.33,0,0,0-2.83-7.61H46.41a4.34,4.34,0,0,0-4.33,4.18v.37L41.71,50l-4.89-1.52-.21-.07V48.2c0-.12,0-.22,0-.32V45.2l.14-.08a9.71,9.71,0,0,0,3.42-3.45,9.58,9.58,0,0,0,1.3-4.82V28.91a.84.84,0,0,0-.84-.84H23.08a.84.84,0,0,0-.84.84v7.94a9.58,9.58,0,0,0,1.29,4.81,9.71,9.71,0,0,0,3.4,3.44l.14.08v2.7c0,.1,0,.2,0,.32l0,.22-.21.07-2.58.8h0l-6.67,2.07A6.55,6.55,0,0,0,13,57.66v9.66a.84.84,0,0,0,.84.84H65.68a4.32,4.32,0,0,0,2.83-7.59ZM46.41,47.25H65.67a2.65,2.65,0,0,1,0,5.3H46.41a2.65,2.65,0,1,1,0-5.3ZM23.92,36.85v-7.1H39.81v7.1a7.95,7.95,0,0,1-15.89,0ZM35,46v1.92a3.07,3.07,0,0,1-.12.85h0v0h0v0h0a3.1,3.1,0,0,1-5.92,0h0v0h0v0h0a3.06,3.06,0,0,1-.12-.85V46l.36.11a9.65,9.65,0,0,0,5.47,0ZM25.4,56.41V50.72l.2-.06,1.78-.55.22-.07.11.2a4.78,4.78,0,0,0,8.31,0l.11-.2.22.07,1.79.56.2.06v6H25.4Zm-6.87-3.16V66.48H14.69V57.66A4.88,4.88,0,0,1,18.13,53h0l.37-.11Zm25.1,13.24H20.21V52.33l.2-.06,2.93-.91.37-.11v6.28a.84.84,0,0,0,.84.84H39.17a.84.84,0,0,0,.84-.84V51.25l.37.11,2.18.68.1,0,.06.09a4.37,4.37,0,0,0,1.63,1.55l.36.2-.31.27a6.65,6.65,0,0,0-2.31,5v2.31A6.63,6.63,0,0,0,43.84,66l.44.47Zm22,0H48.73a5,5,0,0,1-5-5V59.2a5,5,0,0,1,5-5H65.68a2.64,2.64,0,0,1,0,5.28H50.77a.84.84,0,0,0,0,1.68H65.68a2.64,2.64,0,1,1,0,5.28Z"/></svg>
