<svg id="Layer_1" data-name="Layer 1" xmlns="http://www.w3.org/2000/svg" viewBox="0 0 80 80"><defs><style>.cls-1{fill:currentColor;}</style></defs><title>3_Dich-vu-sua-chua</title><path class="cls-1" d="M58,50.27,56,48.33l-1.43-1.42h0l0,0-9.45-7-.36-.27.32-.32,3.67-3.67.17-.17.23.08a7.8,7.8,0,0,0,9.65-10.7.78.78,0,0,0-1.26-.22l-3,3a1.55,1.55,0,0,1-2.2-2.2l3-3a.78.78,0,0,0-.22-1.26,7.8,7.8,0,0,0-8.87,1.52,7.83,7.83,0,0,0-1.83,8.13l.08.23-.17.17L40.1,35.48l-.24.24-.27-.21-.21-.16C39,35,39,35,35.63,31.51l-3.92-4.16-.26-.27.26-.26.85-.85a.78.78,0,0,0-.15-1.23L26.17,21A3.78,3.78,0,0,0,21,26.17l3.75,6.26a.78.78,0,0,0,1.23.15l.8-.8.28-.28.27.29,3.9,4.14c3.32,3.51,3.32,3.51,3.61,3.9L35,40h0l0,0,.24.27-.26.26-3.75,3.75-.17.17-.23-.08a7.8,7.8,0,0,0-9.65,10.7.78.78,0,0,0,1.26.22l3-3a1.55,1.55,0,0,1,2.2,2.2l-3,3a.78.78,0,0,0,.22,1.26,7.8,7.8,0,0,0,8.87-1.52,7.83,7.83,0,0,0,1.83-8.13l-.08-.23.17-.17,3.2-3.2.3-.3.27.33,7.45,9.06h0l1.16,1.16,2,2a5.91,5.91,0,0,0,4.14,1.73,5.19,5.19,0,0,0,3.05-1,5.49,5.49,0,0,0,2.28-4A5.44,5.44,0,0,0,58,50.27Zm-25.1-14.9-5.23-5.54a.78.78,0,0,0-1.12,0l-.59.59-.35.35-.25-.42-3-5a2.21,2.21,0,0,1,3-3l5,3,.42.25-.35.35-.59.59a.78.78,0,0,0,0,1.09l5,5.31a39.09,39.09,0,0,0,3.37,3.49l.23.17.34.27-.31.31-1.77,1.77-.31.31-.27-.34-.16-.22C35.75,38.43,35.72,38.4,32.86,35.37ZM34,48.19a.78.78,0,0,0-.15.89,6.23,6.23,0,0,1-6.5,8.85l-.76-.11.55-.55,1.65-1.65a3.12,3.12,0,0,0-4.41-4.41l-1.65,1.65-.55.55-.11-.76a6.27,6.27,0,0,1,1.76-5.28,6.23,6.23,0,0,1,7.09-1.22.78.78,0,0,0,.89-.15L46,31.81a.78.78,0,0,0,.15-.89,6.23,6.23,0,0,1,6.5-8.85l.76.11-.55.55-1.65,1.65a3.12,3.12,0,0,0,4.41,4.41l1.65-1.65.55-.55.11.76a6.27,6.27,0,0,1-1.76,5.28,6.23,6.23,0,0,1-7.09,1.22.78.78,0,0,0-.89.15Zm9.07-.66-.27-.33-1.43-1.74-.83-1h0l-.28-.27.28-.28L43.4,41l.23-.23.27.2,2.94,2.17.36.27-.32.32-3.51,3.51ZM58,54.45a3.86,3.86,0,0,1-1.63,2.86A3.64,3.64,0,0,1,54.2,58a4.33,4.33,0,0,1-3-1.28l-3.09-3.09h0L44.3,49l-.22-.27.25-.25,3.92-3.92.23-.23.27.2,4.82,3.56,0,0,0,0,3.24,3.24A3.89,3.89,0,0,1,58,54.45Z"/></svg>
