<svg id="Layer_1" data-name="Layer 1" xmlns="http://www.w3.org/2000/svg" viewBox="0 0 80 80"><defs><style>.cls-1{fill:currentColor;}</style></defs><title>3_Du-lich-trong-ngoai-nuoc</title><path class="cls-1" d="M58,26.32a4.37,4.37,0,0,0-4.28.13l-1.33.82L47.7,24.59a.59.59,0,0,0-.57,0l-1,.56a.59.59,0,0,0-.17.9l2.9,3.43c-2,1.25-1.93,1.18-2.1,1.3L44.41,29.7a.59.59,0,0,0-.53,0l-1.55.85a.59.59,0,0,0-.09,1c.89.74,2.29,1.91,2.73,2.29.08.57.31,2.38.45,3.54a.59.59,0,0,0,.87.45L47.83,37a.59.59,0,0,0,.3-.44L48.47,34c.2-.08.08,0,2.24-1.06L52,37.22a.59.59,0,0,0,.85.35l1-.56a.59.59,0,0,0,.31-.48l.3-5.42,1.41-.68a4.37,4.37,0,0,0,2.43-3.53A.59.59,0,0,0,58,26.32Zm-2.63,3-1.72.82a.59.59,0,0,0-.33.5L53,36.12l-.11.06-1.3-4.27a.59.59,0,0,0-.82-.36,31.93,31.93,0,0,1-3,1.42h0a.59.59,0,0,0-.39.48L47,36.06l-.53.29A16.52,16.52,0,0,0,46,33.24a16.52,16.52,0,0,0-2.37-2.06l.53-.29L46.55,32a.59.59,0,0,0,.62-.07l0,0A32,32,0,0,1,50,30.13a.59.59,0,0,0,.14-.88l-2.88-3.41.11-.06,4.74,2.69a.59.59,0,0,0,.6,0l1.62-1a3.19,3.19,0,0,1,2.74-.26A3.19,3.19,0,0,1,55.4,29.36Z"/><path class="cls-1" d="M32,16.27h0m0,0a3.82,3.82,0,0,1,.47.38,3.07,3.07,0,0,0,2,1,2.21,2.21,0,0,0,.52-.06,2.12,2.12,0,0,1,.48-.07l.18,0h0s.15.22,0,1c-.34,1.78,1,2.6,3.06,3.3A30.06,30.06,0,0,0,34.36,26c-1.57,1.78-2.83,4-.32,7.12A93.22,93.22,0,0,0,40.7,40.3c3.37,3.37,4.36,7.83,3,13.66-.18.8-.81,1.4-2,1.87a27.48,27.48,0,0,0-7.22,4.91c-1.06.9-2.15,1.83-3.28,2.64l0,0a5.47,5.47,0,0,1,.11-1.24,3.82,3.82,0,0,0-.58-3.37,11.37,11.37,0,0,0,3.15-2.52,7.71,7.71,0,0,1,3.26-2.37c2.37-.66,3.41-2.4,2.79-4.66a9.94,9.94,0,0,1,0-3.58c.2-2,.43-4.17-1.07-6-.79-.93-1.55-1.94-2.29-2.92-1.95-2.57-4-5.23-6.82-7.13a13.8,13.8,0,0,1-1.15-.82,6.64,6.64,0,0,1,1-.3,2.13,2.13,0,0,0,1.66-1.51,1.31,1.31,0,0,0-.61-1.35,2.23,2.23,0,0,1-.4-.75c-.29-.71-.77-1.9-2.18-1.9a3,3,0,0,0-.95.17,3.06,3.06,0,0,1-.94.16c-.36,0-.57-.09-.6-.16a15.55,15.55,0,0,0-1.82-3c-.4-.55-.77-1.08-1.09-1.63a.5.5,0,0,1,.42-.24h0l.27,0c.82.07,1.68.13,2.52.13a8.17,8.17,0,0,0,5.93-2.11l.1-.08m0-1a1.11,1.11,0,0,0-.75.36,7.2,7.2,0,0,1-5.27,1.85c-.89,0-1.8-.08-2.72-.15h-.1c-1,0-1.58,1.08-1.35,1.49.9,1.62,2.23,3,3,4.76a1.49,1.49,0,0,0,1.49.76,4,4,0,0,0,1.24-.21,2,2,0,0,1,.64-.12c1.31,0,1.13,1.9,2.06,2.5.51.33-.14,1-.73,1.09-3.33.75-1.89,1.76-.2,2.88C33,33,35.24,37,38.09,40.36c2.11,2.5.08,6.11.92,9.17.47,1.7-.23,2.94-2.11,3.46-3,.83-4.24,4.24-7.22,5.21-.19.06-.38.71-.37.72,2.57,1.41-.08,4,1.39,5.79a6.15,6.15,0,0,0,1.1-.52c3.44-2.47,6.27-5.78,10.31-7.45a3.82,3.82,0,0,0,2.58-2.56c1.22-5.37.71-10.54-3.3-14.56a92.32,92.32,0,0,1-6.6-7.1c-1.85-2.28-1.45-3.87.3-5.86a27.35,27.35,0,0,1,5.72-5.09c-3.48-1-4.49-1.55-4.26-2.78.29-1.51-.14-2.21-1.12-2.21a3.06,3.06,0,0,0-.71.1,1.24,1.24,0,0,1-.29,0c-1,0-1.67-1.4-2.52-1.4Z"/></svg>
