<svg id="Layer_1" data-name="Layer 1" xmlns="http://www.w3.org/2000/svg" viewBox="0 0 80 80"><defs><style>.cls-1{fill:currentColor;}</style></defs><title>3_Lao-dong-pho-thong</title><path class="cls-1" d="M62,59.48a11.84,11.84,0,0,0-6.53-10.54l0,0,0,0a.7.7,0,0,0-.4-.18h-.05l0,0a10.79,10.79,0,0,0-4.24-.86H47.1V44.48l.12-.11a11.81,11.81,0,0,0,3.71-5.85l.07-.26h.71a3.9,3.9,0,0,0,2.87-6.54l-.25-.27.28-.24.17-.16a2.84,2.84,0,0,0-1.09-4.69l-.22-.08,0-.23A11.38,11.38,0,0,0,45.17,16L45,15.91l0-.22a3.05,3.05,0,0,0-2.78-2.59H37.87a3.05,3.05,0,0,0-2.78,2.59l0,.22-.21.06A11.38,11.38,0,0,0,26.55,26l0,.24-.22.08a2.83,2.83,0,0,0-.92,4.85l.28.24-.25.27a3.9,3.9,0,0,0,2.86,6.55H29l.07.26A11.93,11.93,0,0,0,32,43.6c.25.26.52.52.82.77l.12.11v3.33H29.35a10.79,10.79,0,0,0-4.24.86l0,0H25a.7.7,0,0,0-.4.18l0,0,0,0A11.84,11.84,0,0,0,18,59.48v6.71a.71.71,0,0,0,.71.71H61.29a.71.71,0,0,0,.71-.71ZM24.39,51.3V65.48h-5v-6A10.56,10.56,0,0,1,23.82,51l.56-.4ZM51.71,36.84h-.44l0-.39c0-.35,0-.7,0-1V31.87h.36a2.49,2.49,0,1,1,0,5ZM28,25.8a10,10,0,0,1,6.56-8.27l.48-.17v5.28a.71.71,0,0,0,1.41,0V16.48h0v-.21a1.74,1.74,0,0,1,1.42-1.74h4.26a1.74,1.74,0,0,1,1.42,1.74v.21h0v6.17a.71.71,0,0,0,1.41,0V17.36l.48.17A10,10,0,0,1,52,25.8l0,.4H27.95Zm.34,11h0a2.49,2.49,0,1,1,0-5h.36v3.55c0,.34,0,.68,0,1l0,.39Zm0-6.39H27.22a1.42,1.42,0,0,1,0-2.84H52.78a1.42,1.42,0,0,1,0,2.84H28.29Zm2,7h0v0h0a10.18,10.18,0,0,1-.19-2V31.87H49.94v3.55a10.18,10.18,0,0,1-.19,2h0v0h0a10.44,10.44,0,0,1-3.84,6.2,9.5,9.5,0,0,1-11.8,0,10.23,10.23,0,0,1-1.12-1A10.46,10.46,0,0,1,30.26,37.43Zm9,18.22v9.83H30.06v0H28.65v0H25.8V49.92l.23-.09a9.4,9.4,0,0,1,2.21-.54l.4,0v7a.71.71,0,0,0,1.41,0V49.22h3.25l.11.11,5.78,6.07.1.1ZM40,54.2l-.26-.27-5.32-5.59-.1-.1V45.51l.53.28a10.86,10.86,0,0,0,10.31,0l.53-.28v2.72l-.1.1-5.32,5.59Zm14.2-4V65.48H51.35v0H49.94v0H40.71v-10l.1-.1,5.78-6.07.11-.11h3.25v7.06a.71.71,0,1,0,1.41,0v-7l.4,0a9.4,9.4,0,0,1,2.21.54l.23.09Zm6.39,15v.36h-5V50.61l.56.4a10.56,10.56,0,0,1,4.41,8.48Z"/></svg>
