<svg id="Layer_1" data-name="Layer 1" xmlns="http://www.w3.org/2000/svg" viewBox="0 0 80 80"><defs><style>.cls-1{fill:currentColor;}</style></defs><title>4_Lao-dong-tri-thuc</title><path class="cls-1" d="M64.82,55.44A5.93,5.93,0,0,0,61,50.83l-11-4h0l-2.8-1-.11,0V43.5l.07-.05a8.77,8.77,0,0,0,2.41-2.84,15.51,15.51,0,0,0,1.72-6.13h0a12.63,12.63,0,0,1,1.52-4.18,3.79,3.79,0,0,0,.58-2V21.94a.72.72,0,0,0,0-.09,5.5,5.5,0,0,0-3.14-4.17L50,17.63l0-.13a2.84,2.84,0,0,0-.24-1.75,3.31,3.31,0,0,0-2.51-1.62h-12a8.59,8.59,0,0,0-8.58,8.58v4.66a5.17,5.17,0,0,0,1.13,3.23,4.47,4.47,0,0,1,.94,2.58h0v1.41c0,.25.18,6.11,4.12,9l.07.05v2.16l-.11,0-2.8,1h0l-11,4a5.93,5.93,0,0,0-3.83,4.6L14,62.33a3.06,3.06,0,0,0,3,3.56H62.94a3.06,3.06,0,0,0,3-3.56ZM49.67,49l.15.29,1.55,3.11.12.24h-.27l-2.26,0a.72.72,0,0,0-.6.35.71.71,0,0,0,0,.7l.93,1.77.06.12-.1.09L43.46,61l-.27-.21,2-3.7h0l4.28-7.78Zm-1.19-1.22.19.07-.1.18-3.93,7.14-.13.24-.16-.22-1.3-1.77L42.73,53h0l-1.6-2.18L41,50.69l.15-.1,5.17-3.45.07,0,.08,0Zm-6.92-1,.18,0h.06l.13,0,.07,0,.13,0h0l.06,0,.14,0h.06l.2-.08h.05l.16-.06.06,0h0L43,46.3l.08,0,.14-.07h0l.06,0,.17-.09h.05l.22-.12,0,0,0,0,.15-.09.08-.05h0l.14-.09.09-.06.15-.1,0,0,.06,0,.22-.17,0,0,0,0,.2-.16.06,0,0,0,.15-.13,0,0,0,0,.28-.25v1.33l-.08.05L40.1,49.58l-.1.06-.1-.06-.61-.41L34.48,46l-.08-.05V44.68l.27.2h0l0,0,0,0,.08.06.06,0h0l.08.06.06,0,.09.06h0l.06,0,.1.06,0,0,0,0,.15.1h0l.12.08,0,0h0l.1.06.07,0,.1.06.07,0,.1.06h0l0,0,.13.07h0l.17.09,0,0h0l.12.06.06,0h0l.11.05.07,0,.11.05.07,0,.12.05h0l0,0,.17.08h0l.15.06,0,0h0l.11,0,.07,0,.1,0,.07,0,.11,0h.07l.12,0h0l.17,0h.05l.11,0h.07l.1,0h1.77l.16,0h0l.12,0H41l.12,0h.06l.12,0h.05l.18,0,0,.17h0ZM28.79,26.95v1.82l-.33.07a3.79,3.79,0,0,1-.31-1.49V22.68a7.16,7.16,0,0,1,7.15-7.15H47.12a2.05,2.05,0,0,1,1.42.84,1.86,1.86,0,0,1,0,1.42h0a.71.71,0,0,0,.48,1A3.94,3.94,0,0,1,51.89,22h0v6.28a2.37,2.37,0,0,1-.35,1.22l-.32.53V27a.77.77,0,0,0,0-.08,5.33,5.33,0,0,0-3.52-4.21h0l-4.12-1.45h0l-.14,0h-.08l-.1,0h-.09l-.09,0H43l-.09,0H41.43l-.08,0h-.1l-.1,0h-.07l-.16,0h0l-.18.06c-1.18.45-2.1.78-2.65,1a2.72,2.72,0,0,1-.83.13h-4a5.46,5.46,0,0,0-4.42,4.37A.72.72,0,0,0,28.79,26.95Zm1.43,7.6h0V27a4,4,0,0,1,3.14-3.16h3.87a4.15,4.15,0,0,0,1.27-.2c.73-.23,1.88-.66,2.72-1a2.74,2.74,0,0,1,1.88,0l4.11,1.44a3.91,3.91,0,0,1,2.58,3h0v7.42h0C49.26,39.75,47,41.8,46,42.44l-.1.07,0,0a13.94,13.94,0,0,0-1.44,1.13A6.79,6.79,0,0,1,40,45.58a3,3,0,0,1-.4,0h-.17c-1,0-2.68-.85-4.5-2.28-.27-.21-.55-.41-.82-.6h0l-.06,0C30.45,40.25,30.22,34.78,30.21,34.55Zm1.3,13.28,2-.72.08,0,.07,0,5.17,3.45.15.1-.11.14L37.35,52.9l-.07.1h0l-1.63,2.22-.16.22-.13-.24-3.93-7.14-.1-.18Zm-1.33,1.51.15-.29.16.29,4.28,7.79h0l2,3.7-.27.21-5.77-5.28-.1-.09.06-.12.93-1.77a.72.72,0,0,0,0-.7.71.71,0,0,0-.6-.35l-2.26,0h-.27l.12-.24Zm7.56,15.13H17.06a1.64,1.64,0,0,1-1.61-1.9l1.14-6.89a4.5,4.5,0,0,1,2.91-3.49l9-3.24.4-.15-.19.38-1.95,3.9a.71.71,0,0,0,.63,1l2.23,0h.28l-.13.25-.58,1.1a.71.71,0,0,0,.15.86l8.55,7.82.33.3Zm.46-9.22-.55,3.49-.08.49-.24-.44-1-1.88-.05-.1.06-.09,1.39-1.9.14-.19.14.2.19.28,0,.06Zm3.1,6.05-1.15,2.09-.15.27-.15-.27-1.13-2.06,0-.05v-.06l1-6.1a.71.71,0,0,0-.12-.52l-.74-1.07-.07-.1.07-.1,1.06-1.44.14-.19.14.19,1.06,1.45.07.1-.07.1-.73,1.05a.71.71,0,0,0-.12.52l1,6.07v.06Zm.55-6.18.18-.26.14-.2.14.19,1.38,1.88.06.09-.05.1-1,1.85-.24.44-.08-.49-.55-3.47v-.07Zm22.34,8.76a1.63,1.63,0,0,1-1.25.58H41.82l.33-.3,8.55-7.82a.71.71,0,0,0,.15-.86l-.58-1.1-.13-.25h.28l2.23,0a.71.71,0,0,0,.63-1l-1.95-3.9-.19-.38.4.15,9,3.24a4.5,4.5,0,0,1,2.91,3.49l1.14,6.89h0A1.63,1.63,0,0,1,64.19,63.89Z"/></svg>
