<svg id="Layer_1" data-name="Layer 1" xmlns="http://www.w3.org/2000/svg" viewBox="0 0 80 80"><defs><style>.cls-1{fill:none;}.cls-2{fill:currentColor;}</style></defs><title>1_Thue-Can-ho-chung-cu</title><path class="cls-1" d="M37.09,47a.7.7,0,0,0,.7.7h1.72V44.85H37.09Z"/><rect class="cls-1" x="37.56" y="55.44" width="4.87" height="8.94"/><path class="cls-1" d="M37.09,41.71v2.16h2.42V41H37.79A.7.7,0,0,0,37.09,41.71Z"/><path class="cls-1" d="M61.12,22.6,54.62,19l-6.5,3.61V64.38h2.44V54.63a.81.81,0,0,1,.81-.81h6.5a.81.81,0,0,1,.45.14l.12.1a.81.81,0,0,1,.24.57v9.75h2.44ZM58.36,47.76a.9.9,0,0,1-.9.9H51.79a.9.9,0,0,1-.9-.9V41a.9.9,0,0,1,.9-.9h5.67a.9.9,0,0,1,.9.9Zm0-12.75a.9.9,0,0,1-.9.9H51.79a.9.9,0,0,1-.9-.9v-6.8a.9.9,0,0,1,.9-.9h5.67a.9.9,0,0,1,.9.9Z"/><path class="cls-1" d="M40.49,47.71h1.72a.7.7,0,0,0,.7-.7V44.85H40.49Z"/><path class="cls-1" d="M37.09,29v2.16h2.42V28.26H37.79A.7.7,0,0,0,37.09,29Z"/><path class="cls-1" d="M37.09,34.26a.7.7,0,0,0,.7.7h1.72V32.1H37.09Z"/><path class="cls-1" d="M56.84,28.26H55.11v2.87h2.42V29A.7.7,0,0,0,56.84,28.26Z"/><path class="cls-1" d="M42.21,41H40.49v2.87h2.42V41.71A.7.7,0,0,0,42.21,41Z"/><path class="cls-1" d="M51.71,41.71v2.16h2.42V41H52.41A.7.7,0,0,0,51.71,41.71Z"/><path class="cls-1" d="M51.71,47a.7.7,0,0,0,.7.7h1.72V44.85H51.71Z"/><path class="cls-1" d="M55.11,35h1.72a.7.7,0,0,0,.7-.7V32.1H55.11Z"/><path class="cls-1" d="M40.49,35h1.72a.7.7,0,0,0,.7-.7V32.1H40.49Z"/><rect class="cls-1" x="52.19" y="55.44" width="4.88" height="8.94"/><path class="cls-1" d="M51.71,34.26a.7.7,0,0,0,.7.7h1.72V32.1H51.71Z"/><path class="cls-1" d="M51.71,29v2.16h2.42V28.26H52.41A.7.7,0,0,0,51.71,29Z"/><path class="cls-1" d="M56.84,41H55.11v2.87h2.42V41.71A.7.7,0,0,0,56.84,41Z"/><path class="cls-1" d="M55.11,47.71h1.72a.7.7,0,0,0,.7-.7V44.85H55.11Z"/><path class="cls-1" d="M24.89,28.26H23.16a.7.7,0,0,0-.7.7v2.16h2.42Z"/><path class="cls-1" d="M28.29,47V44.85H25.86v2.87h1.72A.7.7,0,0,0,28.29,47Z"/><path class="cls-1" d="M28.29,41.71a.7.7,0,0,0-.7-.7H25.86v2.87h2.42Z"/><path class="cls-1" d="M42.21,28.26H40.49v2.87h2.42V29A.7.7,0,0,0,42.21,28.26Z"/><path class="cls-1" d="M24.89,41H23.16a.7.7,0,0,0-.7.7v2.16h2.42Z"/><path class="cls-1" d="M23.16,35h1.72V32.1H22.46v2.16A.7.7,0,0,0,23.16,35Z"/><path class="cls-1" d="M21.31,54.63a.81.81,0,0,1,.81-.81h6.5a.81.81,0,0,1,.45.14l.12.1a.81.81,0,0,1,.24.57v9.75h2.44V22.6L25.38,19l-6.5,3.61V64.38h2.44Zm.33-26.41a.9.9,0,0,1,.9-.9h5.67a.9.9,0,0,1,.9.9V35a.9.9,0,0,1-.9.9H22.54a.9.9,0,0,1-.9-.9Zm0,12.75a.9.9,0,0,1,.9-.9h5.67a.9.9,0,0,1,.9.9v6.8a.9.9,0,0,1-.9.9H22.54a.9.9,0,0,1-.9-.9Z"/><rect class="cls-1" x="22.94" y="55.44" width="4.87" height="8.94"/><path class="cls-1" d="M23.16,47.71h1.72V44.85H22.46V47A.7.7,0,0,0,23.16,47.71Z"/><path class="cls-1" d="M28.29,29a.7.7,0,0,0-.7-.7H25.86v2.87h2.42Z"/><path class="cls-1" d="M48.13,20.74l6.11-3.39h0l0,0,0,0h0a.8.8,0,0,1,.29-.05h.25l.05,0h0l.06,0h0l6.11,3.39V19.35l-6.5-3.61-6.5,3.61Z"/><path class="cls-1" d="M33.5,20.74l6.11-3.39h0l0,0,0,0h0l.06,0h0a.8.8,0,0,1,.23,0h.25l.06,0h0l.06,0h0l6.11,3.39V19.35L40,15.74l-6.5,3.61Z"/><path class="cls-1" d="M28.29,34.26V32.1H25.86V35h1.72A.7.7,0,0,0,28.29,34.26Z"/><path class="cls-1" d="M31.88,19.35l-6.5-3.61-6.5,3.61v1.39L25,17.35h0l0,0,0,0h0a.8.8,0,0,1,.29-.05h.25l.05,0h0l.06,0h0l6.11,3.39Z"/><path class="cls-1" d="M46.5,22.6,40,19,33.5,22.6V64.38h2.44V54.63h0a.81.81,0,0,1,.81-.81h6.5a.81.81,0,0,1,.45.14l.12.1a.81.81,0,0,1,.24.57v9.75H46.5ZM43.73,47.76a.9.9,0,0,1-.9.9H37.17a.9.9,0,0,1-.9-.9V41a.9.9,0,0,1,.9-.9h5.67a.9.9,0,0,1,.9.9Zm0-12.75a.9.9,0,0,1-.9.9H37.17a.9.9,0,0,1-.9-.9v-6.8a.9.9,0,0,1,.9-.9h5.67a.9.9,0,0,1,.9.9Z"/><path class="cls-2" d="M63.56,64.38h-.81V18.88s0,0,0,0v-.09h0l0-.07h0a.81.81,0,0,0-.1-.21h0l0-.06h0l-.05-.06h0a.81.81,0,0,0-.21-.16L55,14.1h0l-.06,0h0l0,0h-.26a.8.8,0,0,0-.3.05h0l-.05,0h0l-6.92,3.84L40.39,14.1h0l-.06,0h0l-.05,0H40a.8.8,0,0,0-.23,0h0l-.06,0h0l0,0,0,0h0l-6.92,3.84L25.77,14.1h0l-.06,0h0l0,0h-.26a.8.8,0,0,0-.3.05h0l-.05,0h0l-7.3,4.05-.15.1h0l-.05,0h0l0,0v0l0,0v0l0,0v0l0,0v0l0,0v.15a.81.81,0,0,0,0,.09v3.23s0,0,0,0V64.38h-.81a.81.81,0,1,0,0,1.62H63.56a.81.81,0,1,0,0-1.62Zm-35.75,0H22.94V55.44h4.87Zm4.06,0H29.44V54.62a.81.81,0,0,0-.24-.57l-.12-.1a.81.81,0,0,0-.45-.14h-6.5a.81.81,0,0,0-.81.81v9.75H18.88V22.6L25.38,19l6.5,3.61Zm0-43.63-6.11-3.39h0l-.06,0h0l-.05,0h-.25a.8.8,0,0,0-.29.05h0l0,0,0,0h0l-6.11,3.39V19.35l6.5-3.61,6.5,3.61ZM42.44,64.38H37.56V55.44h4.87Zm4.06,0H44.06V54.62a.81.81,0,0,0-.24-.57L43.7,54a.81.81,0,0,0-.45-.14h-6.5a.81.81,0,0,0-.81.81h0v9.75H33.5V22.6L40,19l6.5,3.61Zm0-43.63-6.11-3.39h0l-.06,0h0l-.06,0H40a.8.8,0,0,0-.23,0h0l-.06,0h0l0,0,0,0h0L33.5,20.74V19.35L40,15.74l6.5,3.61ZM57.06,64.38H52.19V55.44h4.88Zm4.06,0H58.69V54.62a.81.81,0,0,0-.24-.57l-.12-.1a.81.81,0,0,0-.45-.14h-6.5a.81.81,0,0,0-.81.81v9.75H48.13V22.6L54.62,19l6.5,3.61Zm0-43.63L55,17.35h0l-.06,0h0l-.05,0h-.25a.8.8,0,0,0-.29.05h0l0,0,0,0h0l-6.11,3.39V19.35l6.5-3.61,6.5,3.61Z"/><path class="cls-2" d="M22.54,35.91h5.67a.9.9,0,0,0,.9-.9v-6.8a.9.9,0,0,0-.9-.9H22.54a.9.9,0,0,0-.9.9V35A.9.9,0,0,0,22.54,35.91Zm3.32-7.65h1.72a.7.7,0,0,1,.7.7v2.16H25.86Zm0,3.84h2.42v2.16a.7.7,0,0,1-.7.7H25.86ZM22.46,29a.7.7,0,0,1,.7-.7h1.72v2.87H22.46Zm0,3.14h2.42V35H23.16a.7.7,0,0,1-.7-.7Z"/><path class="cls-2" d="M22.54,48.66h5.67a.9.9,0,0,0,.9-.9V41a.9.9,0,0,0-.9-.9H22.54a.9.9,0,0,0-.9.9v6.8A.9.9,0,0,0,22.54,48.66ZM25.86,41h1.72a.7.7,0,0,1,.7.7v2.16H25.86Zm0,3.84h2.42V47a.7.7,0,0,1-.7.7H25.86Zm-3.4-3.14a.7.7,0,0,1,.7-.7h1.72v2.87H22.46Zm0,3.14h2.42v2.87H23.16a.7.7,0,0,1-.7-.7Z"/><path class="cls-2" d="M42.83,27.31H37.17a.9.9,0,0,0-.9.9V35a.9.9,0,0,0,.9.9h5.67a.9.9,0,0,0,.9-.9v-6.8A.9.9,0,0,0,42.83,27.31ZM39.51,35H37.79a.7.7,0,0,1-.7-.7V32.1h2.42Zm0-3.84H37.09V29a.7.7,0,0,1,.7-.7h1.72Zm3.4,3.14a.7.7,0,0,1-.7.7H40.49V32.1h2.42Zm0-3.14H40.49V28.26h1.72a.7.7,0,0,1,.7.7Z"/><path class="cls-2" d="M42.83,40.06H37.17a.9.9,0,0,0-.9.9v6.8a.9.9,0,0,0,.9.9h5.67a.9.9,0,0,0,.9-.9V41A.9.9,0,0,0,42.83,40.06Zm-3.32,7.65H37.79a.7.7,0,0,1-.7-.7V44.85h2.42Zm0-3.84H37.09V41.71a.7.7,0,0,1,.7-.7h1.72ZM42.91,47a.7.7,0,0,1-.7.7H40.49V44.85h2.42Zm0-3.14H40.49V41h1.72a.7.7,0,0,1,.7.7Z"/><path class="cls-2" d="M57.46,27.31H51.79a.9.9,0,0,0-.9.9V35a.9.9,0,0,0,.9.9h5.67a.9.9,0,0,0,.9-.9v-6.8A.9.9,0,0,0,57.46,27.31ZM54.14,35H52.41a.7.7,0,0,1-.7-.7V32.1h2.42Zm0-3.84H51.71V29a.7.7,0,0,1,.7-.7h1.72Zm3.4,3.14a.7.7,0,0,1-.7.7H55.11V32.1h2.42Zm0-3.14H55.11V28.26h1.72a.7.7,0,0,1,.7.7Z"/><path class="cls-2" d="M57.46,40.06H51.79a.9.9,0,0,0-.9.9v6.8a.9.9,0,0,0,.9.9h5.67a.9.9,0,0,0,.9-.9V41A.9.9,0,0,0,57.46,40.06Zm-3.32,7.65H52.41a.7.7,0,0,1-.7-.7V44.85h2.42Zm0-3.84H51.71V41.71a.7.7,0,0,1,.7-.7h1.72ZM57.54,47a.7.7,0,0,1-.7.7H55.11V44.85h2.42Zm0-3.14H55.11V41h1.72a.7.7,0,0,1,.7.7Z"/></svg>
