<svg id="Layer_1" data-name="Layer 1" xmlns="http://www.w3.org/2000/svg" viewBox="0 0 80 80"><defs><style>.cls-1{fill:currentColor;}</style></defs><title>5_Thue-phong-tro-o-ghep</title><path class="cls-1" d="M62.14,31.28v-.06h0v0h0v0h0l0,0h0l0,0h0l0,0h0l0,0h0l0,0h0l0,0h0l0,0h-.06L40.25,20.35A.56.56,0,0,0,40,20.3a.57.57,0,0,0-.19,0h0l0,0h0l-10.13,4.9-.19.09V23.51h.13a.57.57,0,0,0,.56-.56V20.86a.57.57,0,0,0-.56-.56H23.3a.57.57,0,0,0-.56.56v2.09a.57.57,0,0,0,.56.56h.13v4.74l-.07,0-5.17,2.5h0l0,0h0l0,0h0l0,0h0l0,0h0a.56.56,0,0,0-.12.24h0v0h0v.06h0v2.79h0v.18l0,0h0l0,.06h0l0,.06h0l.11.09h0l.14.06h.4l1.09-.53.19-.09V59.14a.57.57,0,0,0,.56.56h39a.57.57,0,0,0,.56-.56V34l.19.09,1.09.53h0l0,0h.35l.13-.06h0l.11-.09h0a.56.56,0,0,0,.09-.13h0l0,0h0v0h0V34.1h0v-2.8Zm-38.28-9v-.83H29v1H23.86Zm4.44,1.26V25.9l-.07,0-3.48,1.68-.19.09V23.51H28.3ZM38.59,55.67h0v2.9h-14v-.12a.62.62,0,0,0-.12-.32l0,0V55.67h0a2.22,2.22,0,0,1,2.22-2.22h2l1.24.62h0l0,0h.33l0,0h0l1.08-.54.06,0,.06,0,1.08.54h0l.05,0h.33l0,0h0l1.25-.62h2a2.22,2.22,0,0,1,2.22,2.21h0ZM26.5,43.41v-.05l0,0,.89-.89.05-.05.07,0a14.85,14.85,0,0,0,3.95.6,14.75,14.75,0,0,0,3.94-.6l.07,0,.05.06.89.89,0,0v1.86a5,5,0,0,1-10,0h0Zm7.78-4.59A2.22,2.22,0,0,1,36.5,41h0v.72l-.22-.22-.2-.2,0,0,0,0h0l0,0h0l0,0h-.41a14.1,14.1,0,0,1-4,.66,14,14,0,0,1-4-.67h-.09l0-.13h0l0,.13h-.09a.56.56,0,0,0-.4.16l-.2.2-.22.22v-.71h0a4.31,4.31,0,0,1,4.31-4.3h2.92v1.52A.57.57,0,0,0,34.28,38.83Zm-.56,12.11v1.6l-.07,0-.7.35-.06,0-.06,0-1.08-.54h0l0,0H31.5a.56.56,0,0,0-.25.06l-1.08.54-.06,0-.06,0-.7-.35-.07,0V50.93l.17.06a6.11,6.11,0,0,0,4.09,0Zm22,4.74h0v2.9H41.51v-2.9h0a2.22,2.22,0,0,1,2.22-2.22h2l1.24.62h0l0,0h.33l0,0h0l1.08-.54.06,0,.06,0,1.08.54h0l.05,0h.33l0,0h0l1.25-.62h2a2.22,2.22,0,0,1,2.22,2.21h0ZM43.6,43.41v-.05l0,0,.89-.89.05-.05.07,0a13.31,13.31,0,0,0,7.89,0l.07,0,.05.06.89.89,0,0v1.86a5,5,0,0,1-10,0h0Zm7.78-4.59A2.22,2.22,0,0,1,53.6,41v.73l-.22-.22-.2-.2,0,0h0l0,0h0l0,0h0l0,0h-.41a14.11,14.11,0,0,1-4,.66,14,14,0,0,1-4-.67h-.18a.56.56,0,0,0-.4.16l-.2.2-.22.22v-.7h0a4.31,4.31,0,0,1,4.31-4.3h2.92v1.52A.57.57,0,0,0,51.38,38.83Zm-.56,12.11v1.6l-.07,0-.7.35-.06,0-.06,0-1.08-.54h0l0,0h-.21a.56.56,0,0,0-.25.06l-1.08.54-.06,0-.06,0-.7-.35-.07,0V50.93l.17.06a6.11,6.11,0,0,0,4.09,0Zm8.1-17.42V58.57h-2.1v-2.9h0a3.36,3.36,0,0,0-3.32-3.34H51.95v-2l.06,0a6.12,6.12,0,0,0,2.72-5.07h0V41.05h0A3.36,3.36,0,0,0,52,37.76l-.11,0V36.17a.57.57,0,0,0-.56-.56H47.9A5.44,5.44,0,0,0,42.46,41h0v2h0a.57.57,0,0,0,0,.13h0v2h0a6.13,6.13,0,0,0,2.72,5.09l.06,0v2H43.73a3.35,3.35,0,0,0-3.35,3.35v2.91h-.52v-.13a.56.56,0,0,0-.12-.34l0,0V55.67h0a3.36,3.36,0,0,0-3.32-3.34H34.85v-2l.06,0a6.12,6.12,0,0,0,2.72-5.07h0V41h0A3.36,3.36,0,0,0,35,37.76l-.11,0V36.17a.57.57,0,0,0-.56-.56H30.8A5.44,5.44,0,0,0,25.37,41h0v2h0a.57.57,0,0,0,0,.13h0v2h0a6.12,6.12,0,0,0,2.72,5.08l.06,0v2H26.63a3.35,3.35,0,0,0-3.35,3.35v2.91H21.08V33.43l.07,0L39.94,24.3l.06,0,.06,0,18.79,9.09.07,0ZM61,31.74v1.45l-.19-.09-20.58-10a.56.56,0,0,0-.24-.06.57.57,0,0,0-.19,0h0l0,0h0l-20.57,10-.19.09V31.66l.07,0,20.88-10.1.06,0,.06,0,20.88,10.1.07,0Z"/></svg>
