<svg id="Layer_1" data-name="Layer 1" xmlns="http://www.w3.org/2000/svg" viewBox="0 0 80 80"><defs><style>.cls-1{fill:currentColor;}.cls-2{fill:none;}</style></defs><title>4_Thue-Cua-hang-mat-bang</title><path class="cls-1" d="M49.3,42.33H43.11a2.55,2.55,0,0,0-2.55,2.55v4.74a2.55,2.55,0,0,0,2.55,2.55H49.3a2.55,2.55,0,0,0,2.55-2.55V44.88A2.55,2.55,0,0,0,49.3,42.33Zm1.36,7.29A1.36,1.36,0,0,1,49.3,51H43.11a1.36,1.36,0,0,1-1.36-1.36V44.88a1.36,1.36,0,0,1,1.36-1.36H49.3a1.36,1.36,0,0,1,1.36,1.36Z"/><path class="cls-2" d="M34.13,43.52H30.88a2.11,2.11,0,0,0-2.11,2.11V58.2h7.47V45.63A2.11,2.11,0,0,0,34.13,43.52Z"/><path class="cls-2" d="M51.1,33.43l.11.61a4.82,4.82,0,0,0,9.48,0l.11-.61H51.1Z"/><path class="cls-2" d="M29.46,33.42l.11.61A4.82,4.82,0,0,0,39,34l.11-.61h-9.7Z"/><path class="cls-2" d="M40.29,33.42l.11.61a4.81,4.81,0,0,0,9.47,0l.11-.61H40.29Z"/><polygon class="cls-2" points="59.23 32.24 60.13 32.24 59.68 31.46 54.39 22.15 54.24 21.88 53.94 21.88 25.49 21.88 25.18 21.88 25.03 22.15 19.75 31.46 19.31 32.24 20.2 32.24 59.23 32.24"/><path class="cls-2" d="M23.49,38a4.8,4.8,0,0,0,4.74-4l.11-.61h-9.7l.11.61a4.78,4.78,0,0,0,4.72,4Z"/><path class="cls-2" d="M56.12,39.19h-.17a6,6,0,0,1-5-2.65l-.43-.64-.43.64a6,6,0,0,1-9.94,0l-.43-.64-.43.64a6,6,0,0,1-10,0l-.43-.64-.43.64a6,6,0,0,1-5,2.65h-.35l-.56,0V58.2h5V45.63a3.31,3.31,0,0,1,3.3-3.3h3.25a3.31,3.31,0,0,1,3.3,3.3V58.2H56.85v-19h-.73Z"/><path class="cls-1" d="M62.52,59.27a1,1,0,0,0-1-1H58v-19s0,0,0,0l-.1-.4.4-.18A6,6,0,0,0,62,33.18a.52.52,0,0,0-.07-.28h0L55.1,21a.6.6,0,0,0-.51-.3H24.83a.58.58,0,0,0-.51.3h0l-6.76,11.9a.61.61,0,0,0-.08.29,6,6,0,0,0,3.6,5.49l.31.14V58.26H18.54a1,1,0,0,0-1,1s0,0,0,0h45S62.52,59.29,62.52,59.27ZM60.8,33.43l-.11.61a4.82,4.82,0,0,1-9.48,0l-.11-.61h9.7Zm-41.05-2L25,22.15l.15-.26H54.24l.15.26,5.29,9.31.44.78H19.31Zm30.22,2-.11.61a4.81,4.81,0,0,1-9.47,0l-.11-.61H50Zm-10.82,0L39,34a4.82,4.82,0,0,1-9.48,0l-.11-.61h9.7ZM18.75,34l-.11-.61h9.7l-.11.61a4.8,4.8,0,0,1-4.74,4h0A4.78,4.78,0,0,1,18.75,34ZM36.24,57.67v.52H28.77V45.63a2.11,2.11,0,0,1,2.11-2.11h3.25a2.11,2.11,0,0,1,2.11,2.11Zm20.61-18V58.2H37.42V45.63a3.31,3.31,0,0,0-3.3-3.3H30.87a3.31,3.31,0,0,0-3.3,3.3V58.2h-5V39.15l.56,0h.35a6,6,0,0,0,5-2.65l.43-.64.43.64a6,6,0,0,0,10,0l.43-.64.43.64a6,6,0,0,0,9.94,0l.43-.64.43.64a6,6,0,0,0,5,2.65h.9Z"/></svg>
