<svg id="Layer_1" data-name="Layer 1" xmlns="http://www.w3.org/2000/svg" viewBox="0 0 80 80"><defs><style>.cls-1{fill:currentColor;}</style></defs><title>1_Xe-Oto</title><path class="cls-1" d="M53.34,35.35H41.61V31.18a.87.87,0,0,0-1.74,0v5a.87.87,0,0,0,.87.87h12.6a.87.87,0,1,0,0-1.74Z"/><path class="cls-1" d="M64.68,35.35H62.55a3.84,3.84,0,0,1-2.4-.84l-9.93-7.94a5.94,5.94,0,0,0-3.69-1.3H28.32A5.9,5.9,0,0,0,23.4,27.9l-2.14,3.22a3.84,3.84,0,0,1-3.2,1.71,5.92,5.92,0,0,0-5.91,5.91v5A5.91,5.91,0,0,0,17,49.59l.26,0,0,.26a5.91,5.91,0,0,0,11.6.1l.06-.31H55l.06.31a5.91,5.91,0,0,0,11.6-.09l.05-.27.27,0a5.7,5.7,0,0,0,3.47-2,5.91,5.91,0,0,0,1.36-3.86C71.85,39.69,69.34,35.35,64.68,35.35ZM23.1,53a4.17,4.17,0,1,1,4.17-4.17A4.17,4.17,0,0,1,23.1,53Zm37.8,0a4.18,4.18,0,0,1-4.17-4.17v0h0A4.17,4.17,0,1,1,60.9,53Zm6.24-5.21-.39.11-.09-.4a5.91,5.91,0,0,0-11.55.14L55,48H29l-.06-.31a5.91,5.91,0,0,0-11.55-.15l-.09.41-.4-.12a4.2,4.2,0,0,1-3-4v-5a4.17,4.17,0,0,1,4.17-4.17,5.57,5.57,0,0,0,4.64-2.48l2.14-3.22A4.16,4.16,0,0,1,28.32,27H46.53a4.2,4.2,0,0,1,2.61.91l9.93,7.94a5.58,5.58,0,0,0,3.48,1.22h2.13c4,0,5.43,4,5.43,6.69A4,4,0,0,1,67.14,47.78Z"/><path class="cls-1" d="M36.57,36.22a.87.87,0,0,0-.87-.87H27l.28-.56,1.61-3.22a.87.87,0,1,0-1.56-.78l-2.52,5a.87.87,0,0,0,.78,1.26H35.7A.87.87,0,0,0,36.57,36.22Z"/></svg>
