<svg id="Layer_1" data-name="Layer 1" xmlns="http://www.w3.org/2000/svg" viewBox="0 0 80 80"><defs><style>.cls-1{fill:none;}.cls-2{fill:currentColor;}</style></defs><title>2_Xe-may</title><path class="cls-1" d="M32.14,41.63a11.3,11.3,0,0,1,.88,4h1V45.2l-.79-3.58Z"/><path class="cls-1" d="M31,39.64h3a1,1,0,0,1,1,.78l.55,2.46,1.74-5.22h-8A11.3,11.3,0,0,1,31,39.64Z"/><path class="cls-1" d="M60.33,30.66h.5v-3h-.5a1.49,1.49,0,1,0,0,3Z"/><path class="cls-1" d="M42,47.58a1,1,0,0,1,0-.27l1.42-5a1,1,0,0,0-.7-1.22,1.13,1.13,0,0,0-1.36.78L40,46.72v1.84h2Z"/><path class="cls-1" d="M30.16,45.59a8.53,8.53,0,0,0-4.69-7.13l-2.85,7.13Z"/><path class="cls-1" d="M20.79,47.5a1,1,0,0,1-.55-1.29l3.37-8.43A8.53,8.53,0,1,0,30,47.58H21.16A1,1,0,0,1,20.79,47.5Z"/><path class="cls-1" d="M58.34,37.56l-.62,0,2.09,8.78h0a2,2,0,0,1-2.38-1.47L55.76,38a8.53,8.53,0,1,0,2.57-.4Z"/><path class="cls-1" d="M54.53,33.15,54.1,31a.56.56,0,0,0-.47-.42L47,29.75l-.33,0H40.27a3.18,3.18,0,0,0-1.76.53l-.59.39A2,2,0,0,0,37,32.32v2.07a1.29,1.29,0,0,0,1.29,1.29H48.55a1.71,1.71,0,0,0,.47-.07l4.86-1.39A.93.93,0,0,0,54.53,33.15Z"/><path class="cls-2" d="M60.33,32.64h1.49a1,1,0,0,0,1-1v-5a1,1,0,0,0-1-1H60.33a3.47,3.47,0,1,0,0,6.94Zm-1.05-4.52a1.5,1.5,0,0,1,1.05-.43h.5v3h-.5a1.49,1.49,0,0,1-1.05-2.54Z"/><path class="cls-2" d="M22.62,45.59l2.85-7.13a8.47,8.47,0,0,0-1.87-.68l-3.37,8.43a1,1,0,0,0,.92,1.36H30a8.58,8.58,0,0,0,.13-1.49c0-.16,0-.33,0-.49Z"/><path class="cls-2" d="M59.8,46.36h0l-2.09-8.78a8.49,8.49,0,0,0-1.95.37l1.65,6.94A2,2,0,0,0,59.8,46.36Z"/><path class="cls-1" d="M32.14,41.63a11.3,11.3,0,0,1,.88,4h1V45.2l-.79-3.58Z"/><path class="cls-1" d="M25.48,38.46A8.53,8.53,0,1,0,30,47.58a8.58,8.58,0,0,0,.13-1.49c0-.16,0-.33,0-.49A8.53,8.53,0,0,0,25.48,38.46Z"/><path class="cls-1" d="M42,47.58a1,1,0,0,1,0-.27l1.42-5a1,1,0,0,0-.7-1.22,1.13,1.13,0,0,0-1.36.78L40,46.72v1.84h2Z"/><path class="cls-1" d="M54.53,33.15,54.1,31a.56.56,0,0,0-.47-.42L47,29.75l-.33,0H40.27a3.18,3.18,0,0,0-1.76.53l-.59.39A2,2,0,0,0,37,32.32v2.07a1.29,1.29,0,0,0,1.29,1.29H48.55a1.71,1.71,0,0,0,.47-.07l4.86-1.39A.93.93,0,0,0,54.53,33.15Z"/><path class="cls-1" d="M31,39.64h3a1,1,0,0,1,1,.78l.55,2.46,1.74-5.22h-8A11.3,11.3,0,0,1,31,39.64Z"/><path class="cls-1" d="M58.34,37.56l-.62,0a8.53,8.53,0,1,0,.62,0Z"/><path class="cls-2" d="M67.48,39.25a11.4,11.4,0,0,0-9.13-4.57,11.69,11.69,0,0,0-1.3.08l-1-4-.24-1.22a1,1,0,0,0-.11-.3l-.51-2.15h0l-.58-2.27h0l-.37-1.56a1,1,0,0,0-1-.76h-2a1,1,0,0,0-1,1v1h2.19l.14.58.87,3.48-6.42-.8H39a1,1,0,0,0-.55.17l-3,2a1,1,0,0,0-.44.82v1H17.93a1.73,1.73,0,0,0-1.73,1.73v.25H35v2H26.28c-.23-.1-.47-.21-.71-.3A11.4,11.4,0,1,0,33,47.58h1.62l.49,2.2a1,1,0,0,0,1,.78H43a1,1,0,0,0,1-1V47.71l1.94-6.81a1,1,0,0,0-.68-1.23h0l-4-1a1,1,0,0,0-1.19.69l-2,6.94a1,1,0,0,0,0,.27v2H36.83l-.67-3a1,1,0,0,0,.81-.66l2.42-7.25h9.53a1,1,0,0,0,.27,0L51.51,37a11.4,11.4,0,1,0,16,2.29ZM40,46.72l1.38-4.84a1.13,1.13,0,0,1,1.36-.78,1,1,0,0,1,.7,1.22L42,47.3a1,1,0,0,0,0,.27v1H40Zm-10,.85a8.54,8.54,0,1,1,.12-2c0,.16,0,.33,0,.49A8.58,8.58,0,0,1,30,47.58Zm4-2H33a11.3,11.3,0,0,0-.88-4h1.12L34,45.2Zm1.51-2.72L35,40.42a1,1,0,0,0-1-.78H31a11.3,11.3,0,0,0-1.7-2h8ZM49,35.61a1.71,1.71,0,0,1-.47.07H38.31A1.29,1.29,0,0,1,37,34.39V32.32a2,2,0,0,1,.89-1.66l.59-.39a3.18,3.18,0,0,1,1.76-.53h6.44l.33,0,6.59.82a.56.56,0,0,1,.47.42l.43,2.15a.93.93,0,0,1-.66,1.07Zm9.32,19a8.53,8.53,0,0,1-.62-17l.62,0a8.53,8.53,0,0,1,0,17.05Z"/></svg>
