<svg id="Layer_1" data-name="Layer 1" xmlns="http://www.w3.org/2000/svg" viewBox="0 0 80 80"><defs><style>.cls-1{fill:none;}.cls-2{fill:currentColor;}</style></defs><title>3_Xe-dien</title><path class="cls-1" d="M24.22,53.73a2,2,0,0,0,0-.22h-4a2.06,2.06,0,0,0,0,.22,2,2,0,1,0,4,0Z"/><path class="cls-1" d="M30.24,45.28c-.48-.9-1.73-1.42-3.72-1.56-4.5-.32-8,1.08-10.37,4.14a12.92,12.92,0,0,0-2,3.67H28.69C30.34,48.55,30.86,46.45,30.24,45.28Z"/><path class="cls-1" d="M26.19,53.51c0,.07,0,.14,0,.22a4,4,0,1,1-8,0c0-.07,0-.15,0-.22H16.11c0,.07,0,.15,0,.22a6.1,6.1,0,0,0,12.2,0c0-.07,0-.15,0-.22Z"/><path class="cls-1" d="M45.11,52c-4.29.85-8.47-.12-10.65-2.47a5.14,5.14,0,0,1-1.55-3.93c.11-1.57,1-3.21,2.72-5H17.95c-1.15,1.18-5.59,6-6.15,10.84h.29a14.91,14.91,0,0,1,2.44-4.82c1.94-2.52,5.61-5.42,12.13-5,2.72.19,4.51,1.07,5.33,2.6,1.3,2.45-.22,5.79-1.75,8.48a8.14,8.14,0,0,1,.05.89s0,0,0,.07H48.52s0,0,0-.07a12.13,12.13,0,0,1,.37-3A14,14,0,0,1,45.11,52Z"/><path class="cls-1" d="M37.52,37.38a1.65,1.65,0,0,0-1.5-.91H30.29v2.25h7.32A1.65,1.65,0,0,0,37.52,37.38Z"/><path class="cls-1" d="M28.31,36.46H21.76a3.24,3.24,0,0,0-3.08,2.25h9.63Z"/><path class="cls-1" d="M51.69,30.6V25.76l-.36.1a2.78,2.78,0,0,0-2,2.29C49.81,28.63,50.67,29.5,51.69,30.6Z"/><path class="cls-1" d="M60.67,47.63a6.1,6.1,0,1,0,6.1,6.1A6.11,6.11,0,0,0,60.67,47.63Zm0,10.09a4,4,0,1,1,4-4A4,4,0,0,1,60.67,57.72Z"/><path class="cls-1" d="M50.5,53.72s0,0,0,.07H52.6s0,0,0-.07a8.07,8.07,0,0,1,13.55-5.93l1.66-1.32A10.17,10.17,0,0,0,50.5,53.72Z"/><path class="cls-1" d="M53.73,43.76A12.12,12.12,0,0,1,57,42.16c-.29-3.2-5.74-9.3-8.61-12.19a2.06,2.06,0,0,0-.24.74,2,2,0,0,0,.43,1.53C52.66,37.44,53.79,41.18,53.73,43.76Z"/><circle class="cls-1" cx="60.67" cy="53.73" r="2.02"/><path class="cls-2" d="M60.67,49.73a4,4,0,1,0,4,4A4,4,0,0,0,60.67,49.73Zm0,6a2,2,0,1,1,2-2A2,2,0,0,1,60.67,55.74Z"/><path class="cls-2" d="M70,46a12.16,12.16,0,0,0-11.12-4.24c-.4-2.6-2.85-6-5.22-8.87V24.47a1,1,0,0,0-1.25-1L50.8,24a4.74,4.74,0,0,0-2.19,1.33l-.85-3.89a1,1,0,0,0-1-.78H45.07V19.19a1,1,0,0,0-2,0v5a1,1,0,1,0,2,0V22.59H46l1.22,5.6a4,4,0,0,0-1,2L43.35,33.3a1,1,0,0,0,1.46,1.33l1.72-1.89a4.07,4.07,0,0,0,.45.72,29.4,29.4,0,0,1,3.69,5.86c1.1,2.46,1.36,4.5.77,6.07-.86,2.29-3.37,4.05-6.73,4.71-3.58.71-7.12,0-8.82-1.87a3.21,3.21,0,0,1-1-2.44c.1-1.49,1.43-3.28,3.94-5.32l.21-.23a3.66,3.66,0,0,0-3-5.75H21.76a5.22,5.22,0,0,0-5.19,4.78,32,32,0,0,0-3.23,3.9C11,46.54,9.76,49.68,9.76,52.52a1,1,0,0,0,1,1h3.38c0,.07,0,.15,0,.22a8.08,8.08,0,0,0,15.89,2H52.86A8.08,8.08,0,1,0,67.43,49.3l2.44-1.94A1,1,0,0,0,70,46ZM30.29,36.46H36a1.69,1.69,0,0,1,1.59,2.25H30.29Zm-8.53,0h6.55v2.25H18.68A3.24,3.24,0,0,1,21.76,36.46Zm.45,23.36a6.11,6.11,0,0,1-6.1-6.1c0-.07,0-.15,0-.22h2.11c0,.07,0,.14,0,.22a4,4,0,1,0,8,0c0-.07,0-.15,0-.22H28.3c0,.07,0,.15,0,.22A6.11,6.11,0,0,1,22.21,59.82Zm-2-6.1a2.06,2.06,0,0,1,0-.22h4a2,2,0,1,1-4,.22Zm8.5-2.2H14.17a12.92,12.92,0,0,1,2-3.67C18.53,44.8,22,43.4,26.52,43.72c2,.14,3.24.67,3.72,1.56C30.86,46.45,30.34,48.55,28.69,51.53Zm19.83,2.26H30.28s0,0,0-.07a8.14,8.14,0,0,0-.05-.89c1.53-2.69,3.06-6,1.75-8.48-.82-1.54-2.61-2.41-5.33-2.6-6.52-.46-10.19,2.45-12.13,5a14.91,14.91,0,0,0-2.44,4.82H11.8c.56-4.82,5-9.66,6.15-10.84H35.63c-1.71,1.75-2.61,3.39-2.72,5a5.14,5.14,0,0,0,1.55,3.93c2.18,2.35,6.36,3.31,10.65,2.47a14,14,0,0,0,3.79-1.31,12.13,12.13,0,0,0-.37,3S48.52,53.77,48.52,53.79Zm2.81-27.93.36-.1V30.6c-1-1.1-1.88-2-2.37-2.45A2.78,2.78,0,0,1,51.33,25.86Zm-2.79,6.37a2,2,0,0,1-.43-1.53,2.06,2.06,0,0,1,.24-.74c2.87,2.89,8.32,9,8.61,12.19a12.12,12.12,0,0,0-3.23,1.6C53.79,41.18,52.66,37.44,48.54,32.23ZM60.67,59.82a6.1,6.1,0,1,1,6.1-6.1A6.11,6.11,0,0,1,60.67,59.82Zm5.47-12a8.07,8.07,0,0,0-13.55,5.93s0,0,0,.07H50.5s0,0,0-.07A10.17,10.17,0,0,1,67.8,46.47Z"/></svg>
