<svg id="Layer_1" data-name="Layer 1" xmlns="http://www.w3.org/2000/svg" viewBox="0 0 80 80"><defs><style>.cls-1{fill:currentColor;}</style></defs><title>4_Xe-dap</title><path class="cls-1" d="M68.49,42.5a12,12,0,0,0-14.61-5.4l-.17.06L53.63,37,47.27,23.21l-.13-.28h6.26a1.7,1.7,0,0,1,0,3.4h-.5a.81.81,0,1,0,0,1.62h.5a3.32,3.32,0,0,0,0-6.63H45.88a.81.81,0,0,0-.73,1.15l2.58,5.6.13.28H31.64l-.05-.11-1.38-3-.13-.28h1.17a2.4,2.4,0,0,0,.26-4.78L26,19.55l-.3,0a2.7,2.7,0,0,0-.29,5.39l.29,0h2.6l.05.11L30,28.75l0,.08,0,.08L26.2,37l-.08.16L26,37.14A11.84,11.84,0,1,0,33.59,49.2V49h2.53l0,.15A3.81,3.81,0,1,0,42.3,45.3l-.12-.1.06-.14,6.57-13.88.18-.38.17.38,3,6.48.08.16-.16.09A12,12,0,1,0,68.49,42.5ZM25.7,23.33a1.09,1.09,0,0,1,0-2.17h.13l5.51.61a.78.78,0,0,1-.08,1.55ZM32,49.24A10.21,10.21,0,0,1,21.8,58.44h0a10.23,10.23,0,0,1,0-20.46h0a10.2,10.2,0,0,1,3.46.6l.2.07-.09.19-4.27,9A.81.81,0,0,0,21.8,49H32Zm-.19-1.83H23.08l.13-.28,3.59-7.58.09-.19.18.11A10.28,10.28,0,0,1,32,47.19l0,.21Zm5.68-2.14a3.78,3.78,0,0,0-1.28,2l0,.15H33.61l0-.18A11.85,11.85,0,0,0,27.74,38l-.16-.09.08-.16,3.13-6.6.18-.38.17.38L37.51,45l.06.14Zm2.4,5.15a2.2,2.2,0,1,1,2.2-2.2A2.2,2.2,0,0,1,39.86,50.42Zm7.62-20.18L40.79,44.36l-.07.14-.15,0a3.78,3.78,0,0,0-.72-.07,3.88,3.88,0,0,0-.66.07l-.15,0L39,44.35,32.51,30.24,32.38,30H47.61ZM65.25,55.48a10.2,10.2,0,0,1-7.25,3h0a10.27,10.27,0,0,1-5.23-19.1l.19-.11.09.2,4.18,9.05a.81.81,0,1,0,1.48-.64v0h0l-4.18-9.06-.09-.19.2-.07A10.14,10.14,0,0,1,57.92,38h0a10.27,10.27,0,0,1,7.29,17.5Z"/></svg>
