<svg id="Layer_1" data-name="Layer 1" xmlns="http://www.w3.org/2000/svg" viewBox="0 0 80 80"><defs><style>.cls-1{fill:currentColor;}</style></defs><title>5_Xe-tai-xe-khach</title><path class="cls-1" d="M63.84,55.5h4.93a1,1,0,0,0,1-1V45a1,1,0,0,0-.13-.49l-3.87-7a5.77,5.77,0,0,0-5.06-3H52.22V21.85a1,1,0,0,0-1-1h-40a1,1,0,0,0-1,1V54.47a1,1,0,0,0,1,1h4.7l.09.31a4.75,4.75,0,0,0,1.67,2.41,4.69,4.69,0,0,0,5.66,0A4.75,4.75,0,0,0,25,55.81l.09-.31H54.65l.09.31a4.75,4.75,0,0,0,1.67,2.41,4.69,4.69,0,0,0,5.66,0,4.75,4.75,0,0,0,1.67-2.41ZM20.53,57.12a2.64,2.64,0,1,1,2.64-2.64A2.65,2.65,0,0,1,20.53,57.12Zm29.64-33.8V53.44h-25L25,53.13a4.75,4.75,0,0,0-1.67-2.41,4.69,4.69,0,0,0-5.66,0A4.75,4.75,0,0,0,16,53.13l-.09.31H12.26V22.88H50.17Zm9.08,33.8a2.64,2.64,0,1,1,2.64-2.64A2.65,2.65,0,0,1,59.25,57.12Zm2.83-6.39a4.69,4.69,0,0,0-5.66,0,4.75,4.75,0,0,0-1.67,2.41l-.09.31H52.22v-17h8.52A3.72,3.72,0,0,1,64,38.41l3.68,6.72.05.1v8.22h-3.9l-.09-.31A4.75,4.75,0,0,0,62.08,50.72Z"/></svg>
