<?xml version="1.0" encoding="utf-8"?>
<!-- Generator: Adobe Illustrator 21.1.0, SVG Export Plug-In . SVG Version: 6.00 Build 0)  -->
<svg version="1.1" id="Layer_1" xmlns="http://www.w3.org/2000/svg" xmlns:xlink="http://www.w3.org/1999/xlink" x="0px" y="0px"
	 viewBox="0 0 80 80" style="enable-background:new 0 0 80 80;" xml:space="preserve">
<style type="text/css">
	.st0{fill:currentColor;}
</style>
<title>10_Cac-loai-rao-vat-khac</title>
<path class="st0" d="M29.8,37.2h1c1.3,0,2.3,1,2.3,2.3v1c0,1.3-1,2.3-2.3,2.3h-1c-1.3,0-2.3-1-2.3-2.3v-1
	C27.5,38.2,28.6,37.2,29.8,37.2z"/>
<path class="st0" d="M39.5,37.2h1c1.3,0,2.3,1,2.3,2.3v1c0,1.3-1,2.3-2.3,2.3h-1c-1.3,0-2.3-1-2.3-2.3v-1
	C37.2,38.2,38.2,37.2,39.5,37.2z"/>
<path class="st0" d="M49.2,37.2h1c1.3,0,2.3,1,2.3,2.3v1c0,1.3-1,2.3-2.3,2.3h-1c-1.3,0-2.3-1-2.3-2.3v-1
	C46.9,38.2,47.9,37.2,49.2,37.2z"/>
<path class="st0" d="M40,13c-14.9,0-27,12.1-27,27s12.1,27,27,27s27-12.1,27-27S54.9,13,40,13z M40,63.5C27,63.5,16.5,53,16.5,40
	S27,16.5,40,16.5S63.5,27,63.5,40l0,0C63.5,53,53,63.5,40,63.5z"/>
</svg>
