<?xml version="1.0" encoding="utf-8"?>
<!-- Generator: Adobe Illustrator 21.1.0, SVG Export Plug-In . SVG Version: 6.00 Build 0)  -->
<svg version="1.1" id="Layer_1" xmlns="http://www.w3.org/2000/svg" xmlns:xlink="http://www.w3.org/1999/xlink" x="0px" y="0px"
	 viewBox="0 0 80 80" style="enable-background:new 0 0 80 80;" xml:space="preserve">
<style type="text/css">
	.st0{fill:#2AC6DD;}
</style>
<title>11_Cho-tang-mien-phi</title>
<path class="st0" d="M66.1,34.6h-0.9V17.5c0-1.5-1.2-2.7-2.7-2.7h-45c-1.5,0-2.7,1.2-2.7,2.7v17.1h-0.9c-0.5,0-0.9,0.3-0.9,0.8
	c0,0,0,0.1,0,0.1v9c0,0.5,0.3,0.9,0.8,0.9c0,0,0.1,0,0.1,0h0.9v17.1c0,1.5,1.2,2.7,2.7,2.7h45c1.5,0,2.7-1.2,2.7-2.7V45.4h0.9
	c0.5,0,0.9-0.3,0.9-0.8c0,0,0-0.1,0-0.1v-9c0-0.5-0.3-0.9-0.8-0.9C66.2,34.6,66.1,34.6,66.1,34.6z M63.4,17.5v17.1h-8.1
	c0-0.7-0.2-1.4-0.5-2C53.9,31,52.1,30,50.3,30h-0.1c-1.8,0-3.4,1.2-4.7,2.6v-16h17C63,16.6,63.4,17,63.4,17.5
	C63.4,17.5,63.4,17.5,63.4,17.5z M52,46.5L52,46.5l-0.2,0.2l-0.1,0.1l0,0c-0.8,0.5-1.7,0.6-2.6,0.4c-0.6-0.1-1.2-0.4-1.7-0.7
	c-1.5-0.8-2.5-2.3-2.7-3.9c0.2-0.3,0.3-0.6,0.4-0.9l2.4,1.8c0.2,0.1,0.3,0.2,0.5,0.2c0.3,0,0.6-0.1,0.7-0.4c0.2-0.4,0.1-0.9-0.2-1.2
	L46,40l2.6-2c0.4-0.3,0.5-0.9,0.2-1.3c-0.3-0.4-0.9-0.5-1.3-0.2l-2.4,1.8c-0.2-0.5-0.4-1-0.7-1.5l0.3-0.4c0.2-0.2,0.4-0.5,0.5-0.7
	v-0.1c0.9-1.1,3-3.7,4.9-3.7c0.9,0,1.7,0.3,2.3,0.8c0.2,0.2,0.4,0.4,0.5,0.7c0.3,1.3,0.4,2.6,0.4,3.9v1.3c0,2-0.1,3.9-0.5,5.9
	C52.7,45.2,52.4,45.9,52,46.5z M44,51.1l-0.2,0.3l-0.1,0.1l-2.5-6.2c0.7-0.2,1.4-0.5,2-1c0.2,0.5,0.5,1,0.8,1.5
	c0.4,0.6,1,1.2,1.6,1.7l1.2,2.6l-1.5-0.3c-0.4,0-0.7,0.2-0.9,0.5L44,51.1z M35,50.3c-0.2-0.3-0.5-0.4-0.8-0.5h-0.1l-1.5,0.3l1-2.2
	l0,0c1.4-0.8,2.5-2.1,3.1-3.6c0.6,0.4,1.3,0.8,2,0.9l-2.9,6.3L35,50.3z M28,46.6c-0.5-0.6-0.9-1.3-1-2.1c0,0,0-0.1,0-0.1
	c-0.4-1.9-0.6-3.8-0.5-5.7l0,0v-1.3c0-0.6,0-1.2,0.1-1.8c0,0,0,0,0-0.1l0,0c0-0.7,0.1-1.4,0.4-2c0.5-1.1,1.6-1.7,2.8-1.6H30
	c1.9,0.2,4.1,2.9,4.8,3.9c0,0,0.1,0.1,0.1,0.1l0.4,0.6c0.1,0.1,0.2,0.3,0.3,0.4c-0.3,0.5-0.6,1-0.8,1.5l-2.4-1.8
	c-0.4-0.4-0.9-0.4-1.3,0c-0.4,0.4-0.4,0.9,0,1.3c0.1,0.1,0.1,0.1,0.2,0.2l2.6,2l-2.6,2c-0.4,0.3-0.4,0.9-0.2,1.3
	c0.2,0.2,0.4,0.4,0.7,0.4c0.2,0,0.4-0.1,0.5-0.2l2.4-1.8c0.1,0.3,0.1,0.5,0.2,0.8c-0.2,2-1.5,3.7-3.4,4.4c-0.3,0.1-0.7,0.3-1,0.3
	C29.7,47.4,28.7,47.2,28,46.6z M43.1,38.3L43.1,38.3L43.1,38.3c0.2,0.5,0.4,1,0.4,1.5c0,0.1,0,0.1,0,0.2s0,0.2,0,0.2l0,0
	c0,0.4-0.1,0.7-0.3,1.1c-0.2,0.1-0.4,0.2-0.5,0.4c-0.9,1.6-2.8,2.2-4.5,1.5c-0.5-0.3-1-0.7-1.3-1.2c0-0.1,0-0.1-0.1-0.2
	c-0.3-0.5-0.5-1-0.5-1.6l0,0c0-0.1,0-0.2,0-0.2c0-0.1,0-0.1,0-0.2c0-0.9,0.5-1.7,1.2-2.2c0.1-0.1,0.2-0.3,0.2-0.5
	c1.5-1.2,3.8-1,5,0.6C42.9,37.9,43.1,38.1,43.1,38.3L43.1,38.3z M43.6,34.9l-0.4,0.5l-0.1,0.2c0,0-0.1,0-0.1,0.1
	c-0.8-0.5-1.7-0.9-2.7-0.9h-0.8c-0.8,0.1-1.5,0.3-2.2,0.7l-0.4,0.2l0,0l-0.5-0.7V16.6h7.2L43.6,34.9L43.6,34.9z M16.6,17.5
	c0-0.5,0.4-0.9,0.9-0.9h17.2v16.1c-1.4-1.4-3.1-2.6-4.9-2.6c-1.9,0-3.6,1-4.5,2.6c-0.3,0.6-0.4,1.2-0.5,1.9h-8.3V17.5z M14.8,36.4
	h9.9v2.3c0.1,1.3,0.1,3.2,0.4,5H14.8V36.4z M16.6,62.5V45.4h8.9c0.2,0.9,0.7,1.8,1.3,2.5c0.9,0.8,2,1.2,3.1,1.2c0.4,0,0.8,0,1.1-0.1
	l-0.9,1.9c-0.2,0.3-0.1,0.6,0.1,0.9c0.2,0.3,0.6,0.4,0.9,0.4l2.6-0.5l0.8,1.4v10.2H17.5C17,63.4,16.6,63,16.6,62.5L16.6,62.5z
	 M36.5,54.2c0.1-0.1,0.2-0.2,0.3-0.4l3.2-7.1l2.8,7.1l0,0c0.1,0.3,0.4,0.5,0.7,0.5h0.1v9h-7.1L36.5,54.2z M63.4,62.5
	c0,0.5-0.4,0.9-0.9,0.9h0H45.4V52.3l0.4-0.6l2.3,0.4h0.3c0.3,0,0.7-0.1,0.9-0.4c0.2-0.3,0.2-0.6,0.1-0.9l-0.9-2
	c0.6,0.2,1.2,0.3,1.8,0.3c1.2,0,2.4-0.5,3.3-1.3c0.6-0.7,1-1.5,1.3-2.3h8.7V62.5z M65.2,43.6H55c0.2-1.7,0.3-3.3,0.3-5v-1.1
	c0-0.2,0-0.6,0-1.1h9.8C65.2,36.4,65.2,43.6,65.2,43.6z"/>
</svg>
