<svg id="Layer_1" data-name="Layer 1" xmlns="http://www.w3.org/2000/svg" viewBox="0 0 80 80"><defs><style>.cls-1{fill:#51ab6d;}</style></defs><title>8_Dich-vu-tong-hop</title><path class="cls-1" d="M63.4,57.16c-5.17-2.74-9.14-4.28-12.67-4.87l.37-.5a.67.67,0,0,0,.17-.69l-.81-3.25q.44-.62.83-1.29c3.23-1.1,4.86-3,5.14-5.69a2.86,2.86,0,0,0,2.64-2.77v-6.5a2.79,2.79,0,0,0-2.62-2.77C56.26,23.82,54.05,14,40,14S23.74,23.82,23.55,28.83a2.79,2.79,0,0,0-2.62,2.77v6.5a2.87,2.87,0,0,0,2.86,2.77h1.3a2.64,2.64,0,0,0,1.34-.37,19,19,0,0,0,3.12,7.35l-.81,3.25a1.17,1.17,0,0,0,.17.69l.37.5c-3.53.59-7.5,2.13-12.67,4.87A4.61,4.61,0,0,0,14,61.41v3.73a.82.82,0,0,0,.87.87H65.13a.82.82,0,0,0,.87-.87V61.41A5,5,0,0,0,63.4,57.16Zm-23.4-2,2.08,4.76H37.89Zm-2.74,6.49h5.47l.51,2.6h-6.5ZM49.1,49.53l.35,1.56-.89,1.22a.77.77,0,0,0-.15.17l-3.6,5L43.66,59l-2.34-5.26a12.58,12.58,0,0,0,7.42-3.88Zm3.38-5.39a18.76,18.76,0,0,0,1.09-3.67,2.72,2.72,0,0,0,1.11.38A4.23,4.23,0,0,1,52.48,44.14Zm4.76-12.64V38a1.05,1.05,0,0,1-1,1h-1.3a1.05,1.05,0,0,1-1-1v-6.5a1.05,1.05,0,0,1,1-1h1.3A1.05,1.05,0,0,1,57.25,31.51ZM40,15.73c5.34,0,14.33,1.74,14.72,13.1a2.76,2.76,0,0,0-1,.32,13.87,13.87,0,0,0-27.39,0,2.72,2.72,0,0,0-1-.31C25.67,17.48,34.66,15.73,40,15.73ZM26,38a1.05,1.05,0,0,1-1,1h-1.3a1.05,1.05,0,0,1-1-1v-6.5a1.05,1.05,0,0,1,1-1H25a1.05,1.05,0,0,1,1,1Zm1.82-6.67a12.13,12.13,0,1,1,24.27,0V37.4a16,16,0,0,1-2,7.71,34.65,34.65,0,0,1-9.31,1,.87.87,0,0,0,0,1.73,43.6,43.6,0,0,0,7.87-.59l-.16.16A14.53,14.53,0,0,1,47.2,49a11.08,11.08,0,0,1-6.82,3.17A1,1,0,0,0,40,52a.83.83,0,0,0-.36.08,9.8,9.8,0,0,1-4.3-1.3,14.08,14.08,0,0,1-3.92-3.46l-.26-.26-.05,0a16,16,0,0,1-3.24-9.69V31.33ZM38.68,53.79,36.34,59,35.2,57.47l-3.6-5-.09-.08-1-1.3.35-1.56.36.37A12.58,12.58,0,0,0,38.68,53.79ZM15.73,61.41a3,3,0,0,1,1.65-2.69c5.52-2.93,9.5-4.41,13-4.85L35.6,61l-.66,3.28H15.73Zm48.53,2.86H45.06L44.4,61l5.23-7.19c3.53.53,7.58,2,13,4.84a3.21,3.21,0,0,1,1.65,2.77v2.86Z"/></svg>