<?xml version="1.0" encoding="utf-8"?>
<!-- Generator: Adobe Illustrator 21.1.0, SVG Export Plug-In . SVG Version: 6.00 Build 0)  -->
<svg version="1.1" id="Layer_1" xmlns="http://www.w3.org/2000/svg" xmlns:xlink="http://www.w3.org/1999/xlink" x="0px" y="0px"
	 viewBox="0 0 80 80" style="enable-background:new 0 0 80 80;" xml:space="preserve">
<style type="text/css">
	.st0{fill:#2C8AE2;}
</style>
<title>9_Mua-sam-du-lich</title>
<path class="st0" d="M61.9,59.8L56,31.7c-0.1-0.4-0.5-0.7-0.9-0.6l-2.7,0.3l-7-12.3l-1.1-3.8c-0.4-1.5-1.7-2.6-3.3-2.8
	c-0.7-0.1-1.4,0-2.1,0.3c-1.5,0.2-2.8,1.3-3.2,2.8l-0.7,2.6L27.9,31L25,30.7c-0.4-0.1-0.8,0.2-0.9,0.6l-6,27.7
	c-0.5,2.3,1,4.7,3.3,5.2c0.1,0,0.3,0.1,0.4,0.1l25.3,3.1c1.6,0.2,3.3-0.5,4.2-1.9l7.1-0.8c2.2-0.2,3.8-2.2,3.6-4.4
	C62,60.1,61.9,59.9,61.9,59.8L61.9,59.8z M50.6,31.6L49,31.8l-1.7-6L50.6,31.6z M36.7,18.9l2-3.6c0.2-0.3,0.5-0.6,0.8-0.8
	c0.8,0,1.6,0.4,2,1.1l2.3,4.2L47.3,32l-6,0.7l-8.2-1L36.7,18.9z M33.3,24.9l-1.9,6.6l-1.8-0.2L33.3,24.9z M50.4,63.2
	c-0.1,1.5-1.3,2.7-2.8,2.6c-0.1,0-0.1,0-0.2,0L22,62.7c-1.5-0.2-2.5-1.5-2.3-3c0-0.1,0-0.2,0-0.2l5.9-27l2.6,0.3l0,0l3.7,0.5l0,0
	l8.8,1.1c0.1,0.1,0.3,0.1,0.5,0.1h0.1l10,1.2L50.4,63.2z M59.9,62c-0.4,0.6-1,0.9-1.7,1L52,63.8c0-0.2,0-0.3,0-0.5l0.9-28.4
	c0-0.4-0.3-0.8-0.7-0.8l-2.7-0.3l-0.1-0.3l5.1-0.6l5.8,27.4C60.4,60.8,60.3,61.5,59.9,62z"/>
<path class="st0" d="M42,45.5l2.3-2.3c1-1.1,0.9-2.8-0.2-3.8c-1-0.9-2.6-0.9-3.7,0l-2.3,2.3L29.5,38l-2.3,2.3l6.9,5.5l-2.6,2.6
	l-2.2,0.3L26.9,51l3.9,2l2.1,4l2.4-2.5l0.1-2.4l2.6-2.6l5.7,6.9l2.3-2.3L42,45.5z M29.4,40.1l0.4-0.4l7.1,3.2l-1.8,1.8L29.4,40.1z
	 M33.9,51.5l-0.1,2.4l-0.6,0.6l-1.3-2.6l-2.5-1.3L30,50l2.2-0.3l9.2-9.2c0.2-0.2,0.5-0.4,0.9-0.4l0,0c0.7,0,1.2,0.6,1.2,1.2
	c0,0.3-0.1,0.6-0.3,0.8L33.9,51.5z M39,48.5l1.8-1.8l3.3,7.2l-0.4,0.5L39,48.5z"/>
<rect x="28.5" y="53.9" transform="matrix(0.7071 -0.7071 0.7071 0.7071 -30.0927 36.6615)" class="st0" width="1.5" height="1.5"/>
<rect x="26.4" y="56" transform="matrix(0.7071 -0.7071 0.7071 0.7071 -32.1738 35.8004)" class="st0" width="1.5" height="1.5"/>
<rect x="24.3" y="58.1" transform="matrix(0.7071 -0.7071 0.7071 0.7071 -34.2479 34.9363)" class="st0" width="1.5" height="1.5"/>
</svg>
