<?xml version="1.0" encoding="utf-8"?>
<!-- Generator: Adobe Illustrator 21.1.0, SVG Export Plug-In . SVG Version: 6.00 Build 0)  -->
<svg version="1.1" id="Layer_1" xmlns="http://www.w3.org/2000/svg" xmlns:xlink="http://www.w3.org/1999/xlink" x="0px" y="0px"
   viewBox="0 0 80 80" style="enable-background:new 0 0 80 80;" xml:space="preserve">
<style type="text/css">
  .st0{fill:currentColor;}
  .st1{fill:none;}
  .st2{font-family:'MyriadPro-Regular';}
  .st3{font-size:21.3469px;}
</style>
<title>3_Mua-ban-xe</title>
<g>
  <g>
    <g>
      <g>
        <g>
          <path class="st0" d="M22.2,52.5c-3.5,0-6.3,2.8-6.3,6.3s2.8,6.3,6.3,6.3s6.3-2.8,6.3-6.3S25.7,52.5,22.2,52.5z M22.2,62.5
            c-2.1,0-3.8-1.7-3.8-3.8s1.7-3.8,3.8-3.8s3.8,1.7,3.8,3.8S24.3,62.5,22.2,62.5z"/>
        </g>
      </g>
      <g>
        <g>
          <path class="st0" d="M59.8,52.5c-3.5,0-6.3,2.8-6.3,6.3s2.8,6.3,6.3,6.3s6.3-2.8,6.3-6.3S63.2,52.5,59.8,52.5z M59.8,62.5
            c-2.1,0-3.8-1.7-3.8-3.8s1.7-3.8,3.8-3.8s3.8,1.7,3.8,3.8C63.5,60.8,61.9,62.5,59.8,62.5z"/>
        </g>
      </g>
      <g>
        <g>
          <path class="st0" d="M63.5,45h-2.1c-0.8,0-1.5-0.3-2.1-0.8l-9.9-7.9c-1.1-0.9-2.5-1.4-3.9-1.4H27.4c-2.1,0-4,1-5.2,2.8L20.1,41
            c-0.6,1-1.7,1.5-2.9,1.5c-3.5,0-6.3,2.8-6.3,6.3v5c0,3.5,2.8,6.3,6.3,6.3c0.7,0,1.3-0.6,1.3-1.3s-0.6-1.3-1.3-1.3
            c-2.1,0-3.8-1.7-3.8-3.8v-5c0-2.1,1.7-3.8,3.8-3.8c2,0,3.8-1,4.9-2.6l2.1-3.2c0.7-1,1.9-1.7,3.1-1.7h18.1
            c0.9,0,1.7,0.3,2.3,0.8l9.9,7.9c1,0.8,2.4,1.3,3.7,1.3h2.1c3.7,0,5,3.7,5,6.3c0,2.5-1.9,3.8-3.8,3.8c-0.7,0-1.3,0.6-1.3,1.3
            s0.6,1.3,1.3,1.3c3.6,0,6.3-2.7,6.3-6.3C71.1,49.5,68.4,45,63.5,45z"/>
        </g>
      </g>
      <g>
        <g>
          <path class="st0" d="M54.8,57.5H27.2c-0.7,0-1.3,0.6-1.3,1.3s0.6,1.3,1.3,1.3h27.6c0.7,0,1.3-0.6,1.3-1.3S55.5,57.5,54.8,57.5z
            "/>
        </g>
      </g>
      <g>
        <g>
          <path class="st0" d="M52.3,45H41v-3.8c0-0.7-0.6-1.3-1.3-1.3s-1.3,0.6-1.3,1.3v5c0,0.7,0.6,1.3,1.3,1.3h12.5
            c0.7,0,1.3-0.6,1.3-1.3S53,45,52.3,45z"/>
        </g>
      </g>
      <g>
        <g>
          <path class="st0" d="M34.7,45h-7.9l0,0l1.6-3.2c0.3-0.6,0.1-1.4-0.6-1.7c-0.6-0.3-1.4-0.1-1.7,0.6l-2.5,5
            c-0.3,0.5-0.1,1.2,0.4,1.6c0.2,0.2,0.5,0.2,0.8,0.2h10c0.7,0,1.3-0.6,1.3-1.3C36,45.5,35.4,45,34.7,45z"/>
        </g>
      </g>
    </g>
  </g>
  <g>
    <path class="st1" d="M17,25.1c0.1,0,0.2,0,0.3,0c0.5,0,1-0.4,1-1c0-0.5-0.4-1-1-1c-0.5,0-1,0.4-1,1c0,0.1,0,0.2,0,0.3l0.6-0.6
      l0.7,0.7L17,25.1z"/>
    <path class="st1" d="M13.7,24.8l1.1,1.1l0.8-0.8c-0.2-0.3-0.3-0.6-0.3-1c0-1.1,0.9-2,2-2c1.1,0,2,0.9,2,2s-0.9,2-2,2
      c-0.4,0-0.7-0.1-1-0.3l-0.8,0.8l4.9,5H40c0.3,0,0.5-0.2,0.5-0.5V16.8c0-0.3-0.2-0.5-0.5-0.5H20.5l-6.8,7.2
      C13.3,23.8,13.3,24.4,13.7,24.8z"/>
  </g>
  <text transform="matrix(0.8291 0.559 -0.559 0.8291 34.005 24.236)" class="st0 st2 st3">$</text>
  <g>
    <path class="st1" d="M54.4,12.4H30l-8.5,9c-0.5,0.5-0.4,1.2,0,1.7l1.4,1.4l1-1c-0.2-0.4-0.3-0.8-0.3-1.2c0-1.4,1.1-2.5,2.5-2.5
      s2.5,1.1,2.5,2.5s-1.1,2.5-2.5,2.5c-0.4,0-0.9-0.1-1.2-0.4l-1,1l6.2,6.2h24.4c0.3,0,0.6-0.3,0.6-0.6L55,13
      C55,12.7,54.7,12.4,54.4,12.4z"/>
    <path class="st1" d="M26,23.5c0.7,0,1.2-0.6,1.2-1.2c0-0.7-0.6-1.2-1.2-1.2c-0.7,0-1.2,0.6-1.2,1.2c0,0.1,0,0.2,0,0.3l0.8-0.8
      l0.9,0.9l-0.8,0.8C25.8,23.5,25.9,23.5,26,23.5z"/>
    <path class="st0" d="M55.2,10.5H30.5c-0.2,0-0.3,0.1-0.4,0.2l-8.6,9.2c-0.9,1-0.9,2.5,0.1,3.4l1.4,1.4l-0.5,0.5
      c-1.5,1.5-2.4,3.5-2.4,5.7v0.6c0,2.4,0.3,5.4,2.5,5.9c0.3-0.4,1.2-0.7,1.7-1l-0.8,0c-2,0-2.1-2.9-2.1-4.9v-0.6
      c0-1.8,0.7-3.5,2-4.8l0.5-0.5l6.4,6.4c0.1,0.1,0.3,0.2,0.4,0.2h24.7c1,0,1.9-0.8,1.9-1.9V12.4C57.1,11.3,56.2,10.5,55.2,10.5z
       M55.8,30.3c0,0.3-0.3,0.6-0.6,0.6H30.8l-6.2-6.2l1-1c0.4,0.2,0.8,0.3,1.2,0.4c1.4,0,2.5-1.1,2.5-2.5s-1.1-2.5-2.5-2.5
      s-2.5,1.1-2.5,2.5c0,0.4,0.1,0.9,0.3,1.2l-1,1l-1.4-1.4c-0.5-0.5-0.5-1.2,0-1.7l8.5-9h24.4c0.3,0,0.6,0.3,0.6,0.6L55.8,30.3z
       M26.4,21.2L25.6,22c0-0.1,0-0.2,0-0.3c0-0.7,0.6-1.2,1.2-1.2c0.7,0,1.2,0.6,1.2,1.2c0,0.7-0.6,1.2-1.2,1.2c-0.1,0-0.2,0-0.3,0
      l0.8-0.8L26.4,21.2z"/>
  </g>
</g>
</svg>
