<svg id="Layer_1" data-name="Layer 1" xmlns="http://www.w3.org/2000/svg" viewBox="0 0 80 80"><defs><style>.cls-1{fill:currentColor;}</style></defs><title>4_Do-dien-tu</title><path class="cls-1" d="M42.28,48.82a.93.93,0,1,0,0-1.85H13a.14.14,0,0,1-.14-.14V13a.14.14,0,0,1,.14-.14H57.63a.14.14,0,0,1,.14.14V29.28a.93.93,0,1,0,1.85,0V13a2,2,0,0,0-2-2H13a2,2,0,0,0-2,2V46.83a2,2,0,0,0,2,2H29.67v5.59H22.56a.93.93,0,0,0,0,1.85H42.28a.93.93,0,0,0,0-1.85H40.95V48.82h1.33ZM39.1,54.41H31.52V48.82H39.1Z"/><path class="cls-1" d="M42.44,40.69H16.83a.93.93,0,0,0,0,1.85H42.44a.93.93,0,0,0,0-1.85Z"/><path class="cls-1" d="M67,32.05H47a2,2,0,0,0-2,2V67a2,2,0,0,0,2,2H67a2,2,0,0,0,2-2V34A2,2,0,0,0,67,32.05Zm-20.1,5.55H67.15V59.74H46.91Zm.14-3.7H67a.14.14,0,0,1,.14.14v1.71H46.91V34A.14.14,0,0,1,47,33.91ZM67,67.15H47a.14.14,0,0,1-.14-.14V61.6H67.15V67A.14.14,0,0,1,67,67.15Z"/><path class="cls-1" d="M58.88,63.45h-3.7a.93.93,0,1,0,0,1.85h3.7a.93.93,0,1,0,0-1.85Z"/></svg>
