<svg id="Layer_1" data-name="Layer 1" xmlns="http://www.w3.org/2000/svg" viewBox="0 0 80 80"><defs><style>.cls-1{fill:currentColor;}</style></defs><title>1_mua-ban-nha-dat</title><path class="cls-1" d="M63.71,39.66a1.27,1.27,0,0,0-1.26,1.26V68.32H48V53.17a8,8,0,0,0-16.08,0V68.32H17.54V40.93a1.26,1.26,0,0,0-2.53,0V69.58a1.27,1.27,0,0,0,1.26,1.26H33.22a1.27,1.27,0,0,0,1.26-1.16h0a.84.84,0,0,0,0-.09V53.17a5.51,5.51,0,1,1,11,0V69.58a.81.81,0,0,0,0,.09h0a1.27,1.27,0,0,0,1.26,1.17H63.71A1.27,1.27,0,0,0,65,69.58V40.93A1.27,1.27,0,0,0,63.71,39.66Z"/><path class="cls-1" d="M40.54,9.15,7.67,38.1A2.56,2.56,0,0,0,9.55,39a5.36,5.36,0,0,0,3.26-1.53l27.24-23,.5-.42.49.44L66.56,37.27a6.78,6.78,0,0,0,3.75,1.53,2.73,2.73,0,0,0,2-.84Z"/><polygon class="cls-1" points="64.72 25.7 64.72 14.56 59.66 14.56 59.68 21.42 64.72 25.7"/></svg>
