<?xml version="1.0" encoding="utf-8"?>
<!-- Generator: Adobe Illustrator 21.1.0, SVG Export Plug-In . SVG Version: 6.00 Build 0)  -->
<svg version="1.1" id="Layer_1" xmlns="http://www.w3.org/2000/svg" xmlns:xlink="http://www.w3.org/1999/xlink" x="0px" y="0px"
   viewBox="0 0 80 80" style="enable-background:new 0 0 80 80;" xml:space="preserve">
<style type="text/css">
  .st0{fill:none;}
  .st1{fill:currentColor;}
</style>
<title>6_Noi-ngoai-that-do-gia-dung</title>
<g>
  <g>
    <path class="st0" d="M26.5,38.8v6.4h27v-6.4c0-4.1,2.6-7.7,6.3-9V24c0-5.1-4.2-9.3-9.3-9.3H29.6c-5.1,0-9.3,4.2-9.3,9.3v5.8
      C23.9,31.3,26.5,34.8,26.5,38.8z"/>
    <rect x="26.5" y="47.1" class="st0" width="27" height="6.1"/>
    <path class="st0" d="M63.1,31.1c-4.3,0-7.7,3.5-7.7,7.7v7.3c0,0,0,0,0,0s0,0,0,0v7.9c0,0.5-0.4,0.9-0.9,0.9H25.6
      c-0.5,0-0.9-0.4-0.9-0.9V38.8c0-4.3-3.5-7.7-7.7-7.7c-3.3,0-6,2.7-6,6c0,2.5,2.1,4.6,4.6,4.6c0.3,0,0.7,0,1-0.1v1.9c0,0,0,0,0,0
      v16.7c0,1.1,0.9,2,2,2h43.4c1.1,0,2-0.9,2-2V43.5c0,0,0,0,0,0v-1.9c0.3,0.1,0.5,0.1,0.8,0.1c2.5,0,4.6-2.1,4.6-4.6
      C69.1,33.8,66.4,31.1,63.1,31.1z"/>
    <g>
      <g>
        <path class="st1" d="M63.1,29.2c-0.5,0-0.9,0-1.4,0.1V24c0-6.1-5-11.2-11.2-11.2H29.6c-6.1,0-11.2,5-11.2,11.2v5.3
          c-0.5-0.1-1.1-0.1-1.6-0.1c-4.3,0-7.9,3.5-7.9,7.9c0,3.3,2.4,6,5.6,6.4v16.7c0,2.1,1.7,3.9,3.9,3.9h6.2v2.1
          c0,0.5,0.4,0.9,0.9,0.9c0.5,0,0.9-0.4,0.9-0.9v-2.1h27v2.1c0,0.5,0.4,0.9,0.9,0.9c0.5,0,0.9-0.4,0.9-0.9v-2.1h6.4
          c2.1,0,3.9-1.7,3.9-3.9V43.5c3-0.5,5.3-3.2,5.3-6.4C71,32.8,67.5,29.2,63.1,29.2z M20.4,24c0-5.1,4.2-9.3,9.3-9.3h20.9
          c5.1,0,9.3,4.2,9.3,9.3v5.8c-3.7,1.3-6.3,4.9-6.3,9v6.4h-27v-6.4c0-4.1-2.5-7.6-6.1-9V24z M53.5,47.1v6.1h-27v-6.1H53.5z
           M64.5,41.7c-0.3,0-0.5,0-0.8-0.1v1.9c0,0,0,0,0,0v16.6c0,1.1-0.9,2-2,2H18.4c-1.1,0-2-0.9-2-2V43.5c0,0,0,0,0,0v-1.9
          c-0.3,0.1-0.6,0.1-1,0.1c-2.5,0-4.6-2.1-4.6-4.6c0-3.3,2.7-6,6-6c4.3,0,7.7,3.5,7.7,7.7v15.3c0,0.5,0.4,0.9,0.9,0.9h28.9
          c0.5,0,0.9-0.4,0.9-0.9v-7.9c0,0,0,0,0,0s0,0,0,0v-7.3c0-4.3,3.5-7.7,7.7-7.7c3.3,0,6,2.7,6,6C69.1,39.6,67.1,41.7,64.5,41.7z"
          />
      </g>
    </g>
  </g>
</g>
</svg>
