<?xml version="1.0" encoding="utf-8"?>
<!-- Generator: Adobe Illustrator 21.1.0, SVG Export Plug-In . SVG Version: 6.00 Build 0)  -->
<svg version="1.1" id="Layer_1" xmlns="http://www.w3.org/2000/svg" xmlns:xlink="http://www.w3.org/1999/xlink" x="0px" y="0px"
	 viewBox="0 0 80 80" style="enable-background:new 0 0 80 80;" xml:space="preserve">
<style type="text/css">
	.st0{fill:#9C80F7;}
</style>
<title>12_Tat-ca-chuyen-muc</title>
<path class="st0" d="M57.5,34.6l9.5-5.4L40,13.8L13,29.1l9.5,5.4L13,40l9.5,5.4L13,50.8l27,15.4l27-15.4l-9.5-5.4L67,40L57.5,34.6z
	 M40,16.1l23,13.1L40,42.3L17,29.1L40,16.1z M24.5,35.7L40,44.6l15.5-8.9L63,40L40,53.1L17,40L24.5,35.7z M63,50.8L40,63.9L17,50.8
	l7.5-4.3L40,55.4l15.5-8.9L63,50.8z"/>
</svg>
