<?xml version="1.0" encoding="utf-8"?>
<!-- Generator: Adobe Illustrator 21.1.0, SVG Export Plug-In . SVG Version: 6.00 Build 0)  -->
<svg version="1.1" id="Layer_1" xmlns="http://www.w3.org/2000/svg" xmlns:xlink="http://www.w3.org/1999/xlink" x="0px" y="0px"
	 viewBox="0 0 80 80" style="enable-background:new 0 0 80 80;" xml:space="preserve">
<style type="text/css">
	.st0{fill:currentColor;}
</style>
<title>5_Thoi-trang-lam-dep</title>
<path class="st0" d="M50.2,47.3c-0.3,0-0.5,0.1-0.7,0.3c-1.6,1.4-3,2.1-4,2.1c-2.4,0-4.3-3.6-6.6-8.2c-0.4-0.8-0.8-1.6-1.3-2.5
	c-4.3-8.2-16.4-21.8-16.9-22.5c-0.3-0.4-0.9-0.5-1.3-0.2C9.9,21.7,11,34.5,11.1,35h0.1l3.2,27.8c0.1,0.5,0.5,0.9,1.1,0.9h5.2
	c0.6,0,1.1-0.5,1.1-1.1V40.8c7.1,6,11.6,15.7,12.2,17.1v4.8c0,0.6,0.5,1.1,1.1,1.1h33c0.6,0,1.1-0.5,1.1-1.1c0,0,0,0,0,0v-5
	C68.5,47.7,51,47.3,50.2,47.3z M19.5,61.6h-3.1l-3-25.3c2.2,0.6,4.3,1.5,6.2,2.8L19.5,61.6z M13.2,34.1L13.2,34.1
	c0-2.6,0.3-11.2,6.6-15.4c2.5,2.9,12.4,14.3,16,21.3c0.4,0.8,0.9,1.7,1.3,2.5c2.6,5.2,4.7,9.4,8.5,9.4c1.6,0,3.3-0.8,5.2-2.4
	c2.4,0.1,14.5,1,16.1,7.2h-31C34,53.1,26,36.6,13.2,34.1z M66.9,61.6H36v-2.8h30.9V61.6z"/>
</svg>
