<svg id="Layer_1" data-name="Layer 1" xmlns="http://www.w3.org/2000/svg" viewBox="0 0 80 80"><defs><style>.cls-1{fill:currentColor;}</style></defs><title>2_Thue-nha-dat</title><path class="cls-1" d="M37.22,18.52a.83.83,0,1,0,.84.83.82.82,0,0,0-.84-.83Z"/><path class="cls-1" d="M47.53,23.62l-.14-.14.1-.18c.25-.45.48-.93.7-1.41a4,4,0,0,0-.82-4.38l-4.14-4.12a4,4,0,0,0-2.8-1.15,3.94,3.94,0,0,0-1.41.26,14.76,14.76,0,0,0-5.08,3.19,15.11,15.11,0,0,0-3.26,5.12A3.93,3.93,0,0,0,31.55,25l4.19,4.17a3.93,3.93,0,0,0,2.79,1.15,4,4,0,0,0,1.53-.31A15.54,15.54,0,0,0,42.22,29a1,1,0,0,0,.41-.47.57.57,0,0,0-.05-.52.65.65,0,0,0-.57-.33.88.88,0,0,0-.46.14,15.13,15.13,0,0,1-2,1,2.39,2.39,0,0,1-.92.18,2.67,2.67,0,0,1-1.86-.73l-4.14-4.14a2.74,2.74,0,0,1-.73-2.72,14.57,14.57,0,0,1,3-4.75,13.89,13.89,0,0,1,4.67-2.88,2.36,2.36,0,0,1,.84-.15,2.84,2.84,0,0,1,1.95.74l4.22,4.2a2.69,2.69,0,0,1,.31,2.84,17.69,17.69,0,0,1-1,2c-.16.27.06.88.35,1.17l9,9,.08.08v3.53H52.21V34.95a.79.79,0,0,0-.79-.79H49.26V32a.79.79,0,0,0-.79-.79h-3a.79.79,0,1,0,0,1.57h2.17v2.17a.79.79,0,0,0,.79.79h2.17V37.9a.79.79,0,0,0,.79.79h4.64a.79.79,0,0,0,.79-.79V33.26a.78.78,0,0,0-.23-.56Z"/><path class="cls-1" d="M68.61,45a4.41,4.41,0,0,0-.76.06h0L50.18,47.72l-.3,0v-.3a4.43,4.43,0,0,0-3.65-4.2h0l-14.85-2.9H22.56l-.32.06v-2a2.34,2.34,0,0,0-2.34-2.34H9.26a2.34,2.34,0,0,0-2.34,2.34v27a2.34,2.34,0,0,0,2.34,2.34H19.91a2.34,2.34,0,0,0,2.34-2.34v-.94l.31,0,18.6,2.58.26,0v0c.4.06.79.11,1.16.14h.82a6,6,0,0,0,1.65-.2h0l.16-.05h0a1.57,1.57,0,0,0,.48-.25l0,0h0l25-13.49h0A4.47,4.47,0,0,0,68.61,45ZM20.27,64.24a2,2,0,0,1-2,2H10.87a2,2,0,0,1-2-2V39.64a2,2,0,0,1,2-2H18.3a2,2,0,0,1,2,2ZM70.19,52.11h0L46.42,64.91l-.48.26-.4.21h0a6.59,6.59,0,0,1-2.68.53l-.57,0h0l-.92-.13h0L22.48,63.16l-.23,0V41.63l.32.06h8.61l14.76,2.88h0a3.11,3.11,0,0,1-.54,6.17l-.32,0h0l-11.91-.93h-.07a.68.68,0,0,0,0,1.36L45,52.09h0l.43,0a4.45,4.45,0,0,0,4.14-2.8l.06-.14.15,0h0l18.28-2.78h0a3.23,3.23,0,0,1,.51,0,3.11,3.11,0,0,1,1.58,5.79Z"/></svg>
