<svg id="Layer_1" data-name="Layer 1" xmlns="http://www.w3.org/2000/svg" viewBox="0 0 80 80"><defs><style>.cls-1{fill:currentColor;}</style></defs><title>7_Viec-lam-tuyen-dung</title><path class="cls-1" d="M57.21,47.74a7.43,7.43,0,0,0,3.57-6.35V35.71a7.44,7.44,0,0,0-6.28-7.34V22.88a.82.82,0,0,0-.82-.82H44.92V18.78a5.3,5.3,0,0,0-5.29-5.29H26.87a5.3,5.3,0,0,0-5.29,5.29v3.28H12.82a.82.82,0,0,0-.82.82v29a.82.82,0,0,0,.82.82H41.89a13.63,13.63,0,0,0-3.18,8.64V65.7a.82.82,0,0,0,.82.82H67.18A.82.82,0,0,0,68,65.7V61.37C68,55.05,63.35,49.49,57.21,47.74Zm1.94-6.35a5.8,5.8,0,0,1-5.45,5.78h-.55a5.84,5.84,0,0,1-5.58-5.5c0-.1,0-.19,0-.29V39.34a9.87,9.87,0,0,0,6.94-3.17,6.57,6.57,0,0,0,4.64,3.14Zm-4.7,9.69H52.26L51.2,49l.21,0,.15,0,.27,0,.35,0h.17l.36,0h1.2l.43,0,.16,0,.36,0,.26,0,.15,0,.21,0Zm1.44,8.53-2.52,2.31-2.52-2.31,1.59-6.89h1.87Zm-2.52-29.7h.3a5.8,5.8,0,0,1,5.49,5.78v1.95a5.5,5.5,0,0,1-3.75-3.29.82.82,0,0,0-1.48-.1,7.77,7.77,0,0,1-6.34,3.44v-2h0a5.8,5.8,0,0,1,5.49-5.78ZM23.21,18.78a3.66,3.66,0,0,1,3.66-3.66H39.62a3.66,3.66,0,0,1,3.66,3.66v3.28H42v-2.7a3,3,0,0,0-3-3H27.49a3,3,0,0,0-3,3v2.7H23.21Zm17.14.59v2.7H26.14v-2.7A1.35,1.35,0,0,1,27.49,18H39A1.35,1.35,0,0,1,40.36,19.36ZM23.6,51.09h-10V34.58a9.91,9.91,0,0,0,6.3,4.27v.9a2.62,2.62,0,0,0,5.23,0v-.69h6.32a.82.82,0,0,0,0-1.64H25.17v-2a.82.82,0,0,0-.82-.82h-3.6a.82.82,0,0,0-.82.82v1.76a8.3,8.3,0,0,1-6.3-8V23.7H52.86v4.6h-.14l-.17,0-.2,0-.16,0-.2,0-.15,0-.21,0-.14,0-.22.06-.13,0-.24.08-.1,0q-.34.12-.66.28l-.07,0-.25.13-.1.06-.21.12-.11.07-.19.12-.11.08-.17.12-.11.09-.16.13-.11.1-.15.13-.11.1-.14.14-.11.11-.14.14-.1.11-.13.15-.1.12-.12.15-.09.13-.11.16-.09.13-.1.16-.08.13-.1.17-.08.14-.09.17-.07.14-.08.18-.06.15-.07.18-.06.15-.06.19,0,.15-.05.19,0,.15,0,.2,0,.15,0,.21,0,.15c0,.07,0,.15,0,.22L46,35c0,.08,0,.16,0,.25s0,.08,0,.12,0,.25,0,.37v1.6a8.32,8.32,0,0,1-1.15.11v-2A.82.82,0,0,0,44,34.6h-3.6a.82.82,0,0,0-.82.82v2H34.21a.82.82,0,0,0,0,1.64h5.34v.69a2.62,2.62,0,0,0,5.23,0v-.7A9.91,9.91,0,0,0,45.92,39V41.4q0,.19,0,.37s0,.1,0,.14,0,.15,0,.22,0,.12,0,.18l0,.18,0,.2,0,.16,0,.21,0,.14.06.22,0,.12.08.24,0,.1.1.26,0,.07.12.28,0,0a7.48,7.48,0,0,0,2.88,3.23,15.3,15.3,0,0,0-6,3.35Zm-2-11.35V38.16h0V36.23h2v3.51a1,1,0,0,1-2,0Zm21.57-1.51v1.51a1,1,0,0,1-2,0V36.23h2v2ZM66.36,64.88h-26V61.37a12.1,12.1,0,0,1,3.92-8.79l.08-.07.3-.27,0,0q.3-.26.61-.5l.11-.09.17-.13.17-.12.07-.05a13.87,13.87,0,0,1,3.78-1.89L50.9,52l-1.77,7.7a.82.82,0,0,0,.24.79l3.43,3.14a.82.82,0,0,0,1.1,0l3.43-3.14a.82.82,0,0,0,.24-.79L55.8,52l1.33-2.58a13.84,13.84,0,0,1,5.31,3.14,12.1,12.1,0,0,1,3.92,8.79Z"/></svg>
