<svg id="Layer_1" data-name="Layer 1" xmlns="http://www.w3.org/2000/svg" viewBox="0 0 80 80"><defs><style>.cls-1{fill:currentColor;}.cls-2{fill:none;}</style></defs><title>1_Tu-lanh-may-giat-dieu-hoa</title><path class="cls-1" d="M40,57.39c8.3,0,15-6.3,15-14.08S48.3,29.23,40,29.23,25,35.54,25,43.31,31.7,57.39,40,57.39Zm0-26.5c7.32,0,13.26,5.56,13.26,12.42S47.32,55.73,40,55.73,26.74,50.17,26.74,43.31,32.68,30.9,40,30.89Z"/><path class="cls-2" d="M35.94,44a4.36,4.36,0,0,1-2.84,1,4.21,4.21,0,0,1-1.83-.38,8.69,8.69,0,0,0,8.73,7,8.65,8.65,0,0,0,8.8-7.53l-.15-.1a2.69,2.69,0,0,0-3.52,0"/><path class="cls-2" d="M44.06,42.66a4.37,4.37,0,0,1,2.84-1,4.21,4.21,0,0,1,1.83.38A8.69,8.69,0,0,0,40,35a8.65,8.65,0,0,0-8.8,7.53l.14.1a2.68,2.68,0,0,0,3.52,0"/><path class="cls-2" d="M34.86,42.66h9.2a4.37,4.37,0,0,1,2.84-1,4.21,4.21,0,0,1,1.83.38A8.69,8.69,0,0,0,40,35a8.65,8.65,0,0,0-8.8,7.53l.14.1A2.68,2.68,0,0,0,34.86,42.66Z"/><path class="cls-2" d="M48.66,44a2.69,2.69,0,0,0-3.52,0H35.94a4.36,4.36,0,0,1-2.84,1,4.21,4.21,0,0,1-1.83-.38,8.69,8.69,0,0,0,8.73,7,8.65,8.65,0,0,0,8.8-7.53Z"/><path class="cls-1" d="M40,33.38c-5.86,0-10.61,4.45-10.61,9.94S34.14,53.24,40,53.25s10.61-4.45,10.61-9.94S45.86,33.38,40,33.38ZM40,35a8.69,8.69,0,0,1,8.73,7,4.21,4.21,0,0,0-1.83-.38,4.37,4.37,0,0,0-2.84,1h-9.2a2.68,2.68,0,0,1-3.52,0l-.14-.1A8.65,8.65,0,0,1,40,35Zm0,16.56a8.69,8.69,0,0,1-8.73-7A4.21,4.21,0,0,0,33.1,45a4.36,4.36,0,0,0,2.84-1h9.19a2.69,2.69,0,0,1,3.52,0l.15.1A8.65,8.65,0,0,1,40,51.59Z"/><path class="cls-1" d="M57.68,15.16H22.32A4.29,4.29,0,0,0,17.9,19.3V64.84H62.1V19.3A4.29,4.29,0,0,0,57.68,15.16Zm-38,4.14a2.57,2.57,0,0,1,2.65-2.48H32v8.28H19.66ZM60.34,63.19H19.66V61.53H60.34Zm0-3.31H19.66V26.75H60.34Zm0-34.78H33.81V16.81H57.68a2.57,2.57,0,0,1,2.65,2.48Z"/></svg>
