<svg id="Layer_1" data-name="Layer 1" xmlns="http://www.w3.org/2000/svg" viewBox="0 0 80 80"><defs><style>.cls-1{fill:currentColor;}</style></defs><title>2-Noi-that-phong-ngu-phong-khach</title><path class="cls-1" d="M64.29,38.83l-.38,0V28.59C63.91,24.47,61,23,58.33,23H21.48a6,6,0,0,0-3.82,1.23,5.35,5.35,0,0,0-1.76,4.35V38.79l-.38,0a6,6,0,0,0-3.68,1.68,6.35,6.35,0,0,0-1.63,4.61v7.63a1.88,1.88,0,0,0,1.9,1.9h1.2V61.1a1.88,1.88,0,0,0,1.9,1.9h2.2a1.88,1.88,0,0,0,1.9-1.9V54.6H60.69v6.5a1.88,1.88,0,0,0,1.9,1.9h2.2a1.88,1.88,0,0,0,1.9-1.9V54.6h1.2a1.88,1.88,0,0,0,1.9-1.9V45.14A6.72,6.72,0,0,0,68,40.52,6.11,6.11,0,0,0,64.29,38.83Zm-47-.49V28.16h.14c.15-2.38,1.59-3.68,4.1-3.68H58.33c2.65,0,4.11,1.46,4.11,4.11V38.77h-2.6v-6a1.88,1.88,0,0,0-1.9-1.9H43.72a1.88,1.88,0,0,0-1.9,1.9v6H38.25v-6a1.88,1.88,0,0,0-1.9-1.9H22.13a1.88,1.88,0,0,0-1.9,1.9v6h-3Zm41.12-6v6.41H43.29V32.36H58.36Zm-21.46,0v6.41H21.83V32.36H36.9ZM17.77,55v6.5h-3V54.6h3Zm47.32,0v6.5H62V54.6h3Zm3-5.69v3.85H11.62V48.91H68.12Zm0-2.33v.43H11.62v-2.3c0-4.41,3.42-4.89,4.89-4.89H63.24c3.11,0,4.89,1.78,4.89,4.89Z"/></svg>
