<svg id="Layer_1" data-name="Layer 1" xmlns="http://www.w3.org/2000/svg" viewBox="0 0 80 80"><defs><style>.cls-1{fill:currentColor;}</style></defs><title>5_Ngoai-that-cay-canh</title><path class="cls-1" d="M54.74,37.4h-2V35.53h2.06a.69.69,0,1,0,0-1.39h-2v-.56A5.68,5.68,0,0,0,47.94,28l-.17,0v-.17a9.25,9.25,0,0,0-18.49.44v.21h-2a.69.69,0,0,0,0,1.39h2V33h-2a.69.69,0,0,0,0,1.39h2v3.17h-2a.69.69,0,0,0,0,1.39h2v1.47H26.36a1.85,1.85,0,0,0-1.85,1.85v4.36a1.85,1.85,0,0,0,1.85,1.85h1l0,.16,3,11.83A.7.7,0,0,0,31,61h17.3a.7.7,0,0,0,.65-.54l3-11.83,0-.16h1a1.85,1.85,0,0,0,1.85-1.85V42.26a1.85,1.85,0,0,0-1.8-1.85h-.21V38.79h2a.69.69,0,1,0,0-1.39Zm-4.58-6.82a4.27,4.27,0,0,1,1.28,3v6.78H42.75V33.63a4.34,4.34,0,0,1,7.41-3ZM30.62,40.25V28.32a7.89,7.89,0,0,1,15.76-.52V28l-.19,0a5.68,5.68,0,0,0-4.79,5.61v.56h-2a.69.69,0,0,0,0,1.39h2v1.87h-2a.69.69,0,0,0,0,1.39h2v1.62H30.62Zm19.91,8.57L47.82,59.51l0,.16H31.56l0-.16L28.87,48.82l-.06-.26H50.6Zm2.46-7a.53.53,0,0,1,.46.51v4.36a.53.53,0,0,1-.51.51H26.41a.53.53,0,0,1-.51-.51V42.31a.53.53,0,0,1,.51-.51H53Z"/></svg>
