<svg id="Layer_1" data-name="Layer 1" xmlns="http://www.w3.org/2000/svg" viewBox="0 0 80 80"><defs><style>.cls-1{fill:currentColor;}</style></defs><title>3-Noi-that-phong-bep</title><path class="cls-1" d="M57,29.9H19.89a.67.67,0,0,0-.67.67V64.33a.67.67,0,0,0,.67.67H57a.67.67,0,0,0,.67-.67V30.57A.67.67,0,0,0,57,29.9Zm-.67,1.59V63.66H20.56V31.24h35.8Z"/><path class="cls-1" d="M23.12,61.76H53.79a.67.67,0,0,0,.67-.67V33.8a.67.67,0,0,0-.67-.67H23.12a.67.67,0,0,0-.67.67V61.09A.67.67,0,0,0,23.12,61.76Zm.67-1.59V34.47H53.12V60.42H23.79Z"/><path class="cls-1" d="M48.58,42.56H28.33a.67.67,0,0,0-.67.67V55.61a.67.67,0,0,0,.67.67H48.58a.67.67,0,0,0,.67-.67V43.23A.67.67,0,0,0,48.58,42.56Zm-.67,1.59V54.94H29v-11H47.91Z"/><path class="cls-1" d="M51.23,36.65a.67.67,0,0,0-.67.67v1.44H27.19V37.32a.67.67,0,0,0-1.34,0v2.11a.67.67,0,0,0,.67.67H51.23a.67.67,0,0,0,.67-.67V37.32A.67.67,0,0,0,51.23,36.65Z"/><path class="cls-1" d="M20.08,18.87H21v7.54a2.31,2.31,0,0,0,2.31,2.31H33.5a2.31,2.31,0,0,0,2.31-2.31V18.87h.88a.67.67,0,0,0,0-1.34H28.77V15.67a.67.67,0,1,0-1.34,0v1.86H20.08a.67.67,0,0,0,0,1.34Zm2.22.25v-.25H34.47v7.54a1,1,0,0,1-1,1H23.27a1,1,0,0,1-1-1Z"/><path class="cls-1" d="M64.11,23.66H41.61a.67.67,0,0,0-.65.82l.86,3.72a.67.67,0,0,0,.65.52H54.25a.67.67,0,0,0,.65-.52l.7-3,0-.19h8.47a.67.67,0,0,0,0-1.34ZM54.2,25.31l-.43,1.88,0,.19H43l0-.19-.43-1.88-.07-.3H54.27Z"/><path class="cls-1" d="M32.49,48.19H44.42a.67.67,0,1,0,0-1.34H32.49a.67.67,0,1,0,0,1.34Z"/><path class="cls-1" d="M32.49,52H44.42a.67.67,0,1,0,0-1.34H32.49a.67.67,0,1,0,0,1.34Z"/></svg>
