<?xml version="1.0" encoding="utf-8"?>
<!-- Generator: Adobe Illustrator 21.1.0, SVG Export Plug-In . SVG Version: 6.00 Build 0)  -->
<svg version="1.1" id="Layer_1" xmlns="http://www.w3.org/2000/svg" xmlns:xlink="http://www.w3.org/1999/xlink" x="0px" y="0px"
	 viewBox="0 0 80 80" style="enable-background:new 0 0 80 80;" xml:space="preserve">
<style type="text/css">
	.st0{fill:currentColor;}
</style>
<title>5_Dong-ho-tui-xach</title>
<path class="st0" d="M60.9,37.2c0-0.5-0.4-0.9-0.9-0.9l0,0h-3.3v-0.2c-0.2-1-0.5-2-0.8-2.9L55.8,33l0.2-0.1l3-1.9
	c0.4-0.3,0.5-0.8,0.3-1.2c0,0,0,0,0,0L57,26.2c-0.1-0.2-0.3-0.3-0.5-0.4h-0.2c-0.2,0-0.3,0.1-0.5,0.1L53,27.8l-0.2,0.1l-0.2-0.2
	c-0.6-0.8-1.4-1.5-2.1-2.1l-0.1-0.1v-0.1l-1.3-13.6c0-0.4-0.4-0.8-0.9-0.8H28c-0.4,0-0.8,0.3-0.9,0.8l-1.3,13.6v0.1l-0.1,0.1
	c-8,6.8-8.9,18.8-2.1,26.8c0.6,0.8,1.3,1.5,2.1,2.1l0.1,0.1v0.1l1.3,13.6c0,0.5,0.4,0.8,0.9,0.8h20.2c0.4,0,0.8-0.3,0.9-0.8
	l1.3-13.6v-0.1l0.1-0.1c3.5-3,5.8-7.2,6.5-11.9v-0.2h3.1c0.5,0,0.9-0.4,0.9-0.9l0,0L60.9,37.2z M54.1,29.1l1.7-1.1l0.2-0.1l0.2,0.2
	l1.1,1.7l0.2,0.2l-0.2,0.1l-1.8,1.1l-0.3,0.2L55,31.2c-0.3-0.6-0.6-1.1-1-1.7l-0.2-0.2L54.1,29.1z M27.7,23.5l0.6-6.3v-0.3h11.6
	c0.5,0,0.9-0.4,0.9-0.9c0-0.5-0.4-0.9-0.9-0.9l0,0H28.5v-0.3l0.2-1.9v-0.3h18.7V13l1,10.5l0.1,0.6L48,23.8c-6.1-3.8-13.8-3.8-19.9,0
	l-0.5,0.3L27.7,23.5z M48.5,56.5l-0.6,6.3V63H36.3c-0.5,0-0.9,0.4-0.9,0.9c0,0.5,0.4,0.9,0.9,0.9c0,0,0,0,0,0h11.4v0.3L47.5,67v0.3
	H28.8V67l-1-10.5l-0.1-0.6l0.5,0.3c6.1,3.8,13.8,3.8,19.9,0l0.5-0.3L48.5,56.5z M38.1,57.3c-9.6,0-17.3-7.8-17.3-17.3
	c0-9.6,7.8-17.3,17.3-17.3c9.6,0,17.3,7.8,17.3,17.3C55.4,49.6,47.7,57.3,38.1,57.3z M59.2,38.4v2.3h-2.1v-0.3c0-0.1,0-0.2,0-0.3
	c0-0.5,0-1.1-0.1-1.6v-0.3h2.2L59.2,38.4z"/>
<path class="st0" d="M38.1,25.7c-7.9,0-14.3,6.4-14.3,14.3s6.4,14.3,14.3,14.3S52.4,47.9,52.4,40l0,0C52.4,32.1,46,25.7,38.1,25.7z
	 M50.7,39.1h-1c-0.5,0-0.9,0.4-0.9,0.9s0.4,0.9,0.9,0.9h1v0.3c-0.6,6-5.4,10.8-11.4,11.4H39v-1c0-0.5-0.4-0.9-0.9-0.9
	s-0.9,0.4-0.9,0.9v1h-0.3c-6-0.6-10.8-5.3-11.4-11.4v-0.3h1c0.5,0,0.9-0.4,0.9-0.9s-0.4-0.9-0.9-0.9h-1v-0.3
	c0.6-6,5.3-10.8,11.4-11.4h0.3v1c0,0.5,0.4,0.9,0.9,0.9s0.9-0.4,0.9-0.9v-1h0.3c6,0.6,10.8,5.3,11.4,11.4L50.7,39.1z"/>
<path class="st0" d="M42.6,39.1H39v-5.9c0-0.5-0.4-0.9-0.9-0.9s-0.9,0.4-0.9,0.9V40c0,0.5,0.4,0.9,0.9,0.9l0,0h4.5
	c0.5,0,0.9-0.4,0.9-0.9S43.1,39.1,42.6,39.1L42.6,39.1z"/>
</svg>
