<?xml version="1.0" encoding="utf-8"?>
<!-- Generator: Adobe Illustrator 21.1.0, SVG Export Plug-In . SVG Version: 6.00 Build 0)  -->
<svg version="1.1" id="Layer_1" xmlns="http://www.w3.org/2000/svg" xmlns:xlink="http://www.w3.org/1999/xlink" x="0px" y="0px"
   viewBox="0 0 80 80" style="enable-background:new 0 0 80 80;" xml:space="preserve">
<style type="text/css">
  .st0{fill:none;}
  .st1{fill:currentColor;}
</style>
<title>3-GIay-dep-nam-nu</title>
<path class="st0" d="M33.4,60.5c-2.7-0.1-5.2-0.1-7.4-0.2c-5.4-0.2-9.3-0.4-9.3-0.4h-0.4v2.6h30.4c3.9,0,13.2-0.5,16.5-3.3
  c-2.8,0.7-8.5,1.4-21.1,1.4C39.2,60.6,36.2,60.6,33.4,60.5z"/>
<path class="st0" d="M61.4,52.5c-0.2,0-0.8-0.1-1.6-0.3c-2.3,2.1-5.2,3.3-8.3,3.5c-2.9,0.1-9.1,1.9-13.3,3.2h3.9
  C58.2,59,63,57.8,64.5,57C64.7,56.3,65,53.9,61.4,52.5z"/>
<path class="st1" d="M65.9,54.5c-0.8-1.6-2.2-2.9-3.9-3.4h-0.2l0,0c-1.6-0.3-9.6-1.6-13.7-3.8C44.3,45.2,37,42,34,42h-0.2
  c-0.5,0-1,0.2-1.4,0.5l-5.8,5l0,0l0,0c-0.5,0.1-0.9,0.1-1.4,0.1h-0.5c-1.9,0-3.8-0.5-5.5-1.5h-0.1v-2.2l0,0c0-0.3-0.2-0.6-0.5-0.7
  c-0.7-0.2-1.4-0.3-2.1-0.3c-0.7,0-1.5,0.2-2.1,0.6c-0.5,0.4-0.8,1-0.8,1.7v12.1l0,0c0,0,0,0.1,0,0.1c0.1,0.6,0.4,1.2,0.9,1.6l0,0
  v4.3c0,0.4,0.4,0.7,0.8,0.7c0,0,0,0,0,0h31.7c3.4,0,6.9-0.3,10.2-0.9c2-0.3,3.9-0.9,5.7-1.8c1.5-0.6,2.6-1.9,3-3.4l0,0
  C66.4,56.7,66.3,55.5,65.9,54.5z M15.3,49.1v-4c0-0.3,0-0.9,1.4-0.9c0.3,0,0.7,0,1,0.1h0.1v2c0,0.2,0.1,0.4,0.3,0.5
  c2.1,1.7,5.1,2.1,7.2,2.1h0.1c0.6,0,1.2,0,1.8-0.1c0.2,0,0.3-0.1,0.4-0.2l1.2-1l0.1-0.1l0,0l1.1-1l0,0l0.1-0.1l3.5-3l0,0H34
  c1.7,0.2,3.4,0.6,5,1.3l0.2,0.1l-0.1,0.1l-1.8,2.4l0,0c-0.1,0.1-0.1,0.3-0.1,0.5c0,0.2,0.2,0.3,0.3,0.4c0.1,0.1,0.3,0.1,0.4,0.1
  c0.3,0,0.5-0.1,0.6-0.3l2.1-2.7l0.1-0.1h0.1c0.7,0.3,1.5,0.6,2.4,1l0.2,0.1l-0.1,0.1l-1.7,2.2l0,0v0.1c-0.1,0.1-0.1,0.3-0.1,0.5
  c0,0.2,0.2,0.3,0.3,0.4c0.1,0.1,0.3,0.1,0.4,0.1c0.3,0,0.5-0.1,0.7-0.3l0,0l1.8-2.3l0.1-0.1h0.1c0.6,0.3,1.2,0.6,2,1l0.1,0.1
  l-0.1,0.1l-1.4,1.9l0,0c-0.1,0.1-0.1,0.3-0.1,0.5c0,0.2,0.2,0.3,0.3,0.4c0.1,0.1,0.3,0.1,0.4,0.1c0.3,0,0.5-0.1,0.6-0.3l1.4-1.9
  l0.1-0.1h0.1c0.6,0.3,1.3,0.6,2.1,0.8l0.2,0l-0.1,0.1l-1,1.7c-0.1,0.1-0.1,0.3-0.1,0.5c0.1,0.2,0.2,0.3,0.4,0.4
  c0.1,0.1,0.2,0.1,0.4,0.1c0.3,0,0.5-0.1,0.7-0.3l1.2-1.9l0-0.1H52c1.9,0.6,3.8,1.1,5.8,1.5l0.3,0.1l-0.2,0.2c-1.8,1.4-4,2.2-6.3,2.3
  c-2.6,0.3-5.1,0.8-7.5,1.6l0,0l-2.8,0.8c-3.6,1-6.9,2.2-7.9,2.5l0,0c-2,0-4.1-0.1-6.5-0.2h-0.1v-0.1c-0.8-3-2.7-5.6-5.4-7.2
  c-1.8-1.1-3.7-1.9-5.8-2.3h-0.1L15.3,49.1z M15.3,57.1L15.3,57.1v-6.5h0.2c2.3,0.5,7.8,2.3,9.5,8l0,0.2h-0.2
  c-3.9-0.2-6.8-0.3-7.8-0.3h-0.3C16,58.4,15.4,57.9,15.3,57.1L15.3,57.1z M47.1,62.6h-31v-2.9h0.5c0.2,0,3.9,0.2,9.3,0.4
  c2.4,0.1,4.9,0.2,7.4,0.2c2.8,0.1,5.8,0.1,8.7,0.1c10.2,0,17.3-0.5,21.1-1.4l0.1,0.2C60.1,61.9,51.7,62.6,47.1,62.6L47.1,62.6z
   M64.6,57L64.6,57L64.6,57c-1.6,1-6.6,2-21.3,2h-5v-0.3c6.7-2.1,11.1-3.1,13.3-3.2c3-0.2,5.9-1.4,8.2-3.4l0,0h0.1l0.6,0.1
  c0.3,0.1,0.6,0.1,0.9,0.2l0,0C65.3,53.8,64.8,56.5,64.6,57z"/>
<path class="st1" d="M14.1,25.5c0.8,1.6,2.2,2.9,3.9,3.4h0.2l0,0c1.6,0.3,9.6,1.6,13.7,3.8c3.8,2,11,5.2,14.1,5.2h0.2
  c0.5,0,1-0.2,1.4-0.5l5.8-5l0,0l0,0c0.5-0.1,0.9-0.1,1.4-0.1h0.5c1.9,0,3.8,0.5,5.5,1.5h0.1v2.2l0,0c0,0.3,0.2,0.6,0.5,0.7
  c0.7,0.2,1.4,0.3,2.1,0.3c0.7,0,1.5-0.2,2.1-0.6c0.5-0.4,0.8-1,0.8-1.7V22.8l0,0c0,0,0-0.1,0-0.1c-0.1-0.6-0.4-1.2-0.8-1.6l0,0v-4.4
  c0-0.4-0.4-0.7-0.8-0.7c0,0,0,0,0,0H32.9c-3.4,0-6.9,0.3-10.2,0.9c-2,0.3-3.9,1-5.7,1.9c-1.5,0.6-2.6,1.9-3,3.4l0,0
  C13.6,23.3,13.7,24.5,14.1,25.5z M64.7,30.9v4c0,0.3,0,0.9-1.4,0.9c-0.3,0-0.7,0-1-0.1h-0.1v-2c0-0.2-0.1-0.4-0.3-0.5
  c-2.1-1.7-5.1-2.1-7.2-2.1h-0.1c-0.6,0-1.2,0-1.8,0.1c-0.2,0-0.3,0.1-0.4,0.2l-1.2,1l-0.1,0.1l0,0l-1.1,1l0,0l-0.1,0.1l-3.5,3l0,0
  H46c-1.7-0.2-3.4-0.6-5-1.3l-0.2-0.1l0.1-0.1l1.8-2.4l0,0c0.1-0.1,0.1-0.3,0.1-0.5c0-0.2-0.2-0.3-0.3-0.4c-0.1-0.1-0.3-0.1-0.4-0.1
  c-0.3,0-0.5,0.1-0.6,0.3l-2.1,2.7l-0.1,0.1h-0.1c-0.7-0.3-1.5-0.6-2.4-1l-0.2-0.1l0.1-0.1l1.7-2.2l0,0v-0.1c0.1-0.1,0.1-0.3,0.1-0.5
  c0-0.2-0.2-0.3-0.3-0.4c-0.1-0.1-0.3-0.1-0.4-0.1c-0.3,0-0.5,0.1-0.7,0.3l0,0l-1.7,2.3L35.4,33h-0.1c-0.6-0.3-1.2-0.6-2-1l-0.1-0.1
  l0.1-0.1l1.4-1.9l0,0c0.1-0.1,0.1-0.3,0.1-0.5c0-0.2-0.2-0.3-0.3-0.4c-0.1-0.1-0.3-0.1-0.4-0.1c-0.3,0-0.5,0.1-0.6,0.3l-1.4,2
  l-0.1,0.1h-0.1c-0.6-0.3-1.3-0.6-2.1-0.9l-0.1,0l0.1-0.1l1-1.7c0.1-0.1,0.1-0.3,0.1-0.5c-0.1-0.2-0.2-0.3-0.4-0.4
  c-0.1-0.1-0.2-0.1-0.4-0.1c-0.3,0-0.5,0.1-0.7,0.4l-1.2,1.9l0,0.1H28c-1.9-0.6-3.8-1.1-5.8-1.5L22,28.3l0.2-0.2
  c1.8-1.4,4-2.2,6.3-2.3c2.5-0.3,5.1-0.8,7.5-1.5l0,0l2.8-0.8c3.6-1,6.9-2.2,7.9-2.5l0,0c2,0,4.1,0.1,6.5,0.2h0.1v0.1
  c0.8,3,2.7,5.6,5.4,7.2c1.8,1.1,3.7,1.9,5.8,2.3h0.1L64.7,30.9z M64.7,22.9L64.7,22.9v6.5h-0.2c-2.3-0.5-7.8-2.4-9.5-8l0-0.2h0.2
  c3.9,0.1,6.8,0.3,7.8,0.3h0.3C64,21.6,64.6,22.1,64.7,22.9L64.7,22.9z M32.9,17.4h31v2.9h-0.5c-0.2,0-3.9-0.2-9.3-0.4
  c-2.4-0.1-4.8-0.2-7.4-0.2c-2.8-0.1-5.8-0.1-8.7-0.1c-10.2,0-17.3,0.5-21.1,1.4l-0.1-0.2C19.9,18.1,28.4,17.4,32.9,17.4z M15.4,23
  v-0.1l0,0C17,22,22,21,36.7,21h5v0.3c-6.7,2-11,3.1-13.3,3.2c-3,0.2-5.9,1.4-8.2,3.4l0,0h-0.1l-0.6-0.1c-0.3-0.1-0.6-0.1-0.9-0.1
  l0,0C14.7,26.1,15.3,23.5,15.4,23z"/>
</svg>
