<?xml version="1.0" encoding="utf-8"?>
<!-- Generator: Adobe Illustrator 21.1.0, SVG Export Plug-In . SVG Version: 6.00 Build 0)  -->
<svg version="1.1" id="Layer_1" xmlns="http://www.w3.org/2000/svg" xmlns:xlink="http://www.w3.org/1999/xlink" x="0px" y="0px"
   viewBox="0 0 80 80" style="enable-background:new 0 0 80 80;" xml:space="preserve">
<style type="text/css">
  .st0{fill:currentColor;}
</style>
<title>4_Nuoc-hoa-mi-pham</title>
<path class="st0" d="M63.1,34c-1-2.2-3.1-3.7-5.5-4h-0.1l-0.1,0l-0.8-1.6c0-0.1-0.1-0.1-0.1-0.2l0,0l0,0c-0.4-0.8-1.4-1.1-2.2-0.7
  L53.3,28L53,28l-0.1-0.2c-3.3-5.6-9.3-9-15.8-9h-0.9v-1.3c0-0.9-0.7-1.5-1.5-1.6H31c-0.9,0-1.6,0.7-1.6,1.6v8.8h-2
  c-1,0-1.8,0.8-1.8,1.8v3.4l-0.1,0.1c-2.7,1.4-5,3.4-6.7,6c-3,4.8-3.4,10.8-1,15.9c1,2.2,2.5,4.1,4.4,5.7l0.2,0.2l-0.2,0.2
  c-1,0.9-1.2,2.5-0.3,3.5c0.5,0.5,1.1,0.9,1.8,0.9h18.1c1.4,0,2.5-1.1,2.5-2.5c0-0.7-0.3-1.4-0.9-1.9l-0.2-0.2l0.2-0.2
  c1.8-1.6,3.3-3.5,4.4-5.7c2.4-5.1,2-11.1-1-15.9c-1.6-2.6-4-4.7-6.7-6L40,31.6v-0.2l0,0v-3l0,0v-0.1c0-0.1,0-0.1,0-0.2
  c0-1-0.8-1.8-1.8-1.8h-2v-6.2h0.9c6,0,11.5,3.1,14.6,8.2l0.1,0.2l-0.2,0.1l-0.8,0.4c-0.8,0.4-1.2,1.4-0.8,2.2c0,0,0,0,0,0l0.8,1.7
  l0.1,0.1l-0.1,0.1c-0.6,1-1,2.1-1.1,3.3c-0.2,3.9,2.7,7.2,6.6,7.4s7.2-2.7,7.4-6.6C63.8,36.2,63.6,35,63.1,34z M30.7,26.1v-8.6
  c0-0.1,0.1-0.3,0.3-0.3l0,0h3.7c0.1,0,0.3,0.1,0.3,0.3v2.2l0,0v6.6h-4.2V26.1z M41.9,62.7H23.7c-0.7,0.1-1.2-0.4-1.3-1.1
  c-0.1-0.7,0.4-1.2,1.1-1.3c0.1,0,0.1,0,0.2,0h12.7c0.1,0,0.1,0,0.2,0h5.6l0,0c0.6,0.2,1,0.8,0.8,1.5C42.8,62.3,42.4,62.7,41.9,62.7
  L41.9,62.7z M43.6,35.7c6,6,6,15.7,0,21.6c-0.6,0.6-1.3,1.2-2,1.7h-0.1h-3.8l0,0c-0.1,0-0.2,0-0.2,0H23.9h-0.1
  c-6.9-5-8.4-14.5-3.5-21.4c2.9-4,7.5-6.4,12.5-6.4C36.9,31.3,40.8,32.9,43.6,35.7L43.6,35.7z M38.2,27.7c0.3,0,0.5,0.2,0.5,0.5
  c0,0.1,0,0.2,0,0.3l0,0v2.6L38.5,31c-3.7-1.3-7.6-1.3-11.3,0l-0.3,0.1v-2.9c0-0.3,0.2-0.5,0.5-0.5c0,0,0,0,0,0H38.2z M51.2,30.5
  c0-0.1,0.1-0.2,0.2-0.2l3.5-1.6c0.1,0,0.1,0,0.2,0c0.1,0,0.3,0.1,0.3,0.2v0.1l0,0l0,0V29l0.4,0.8l0.1,0.3h-0.3
  c-1.3,0.2-2.6,0.8-3.6,1.7L51.7,32l-0.1-0.3l-0.5-1C51.1,30.6,51.1,30.5,51.2,30.5L51.2,30.5z M62.2,39c-0.8,2.3-3,3.8-5.4,3.8l0,0
  c-2.2,0-4.2-1.3-5.2-3.3c-0.9-1.9-0.7-4.2,0.6-5.9l0,0c0.6-0.7,1.3-1.3,2.1-1.7c0.8-0.4,1.6-0.6,2.5-0.6c2.2,0,4.2,1.3,5.2,3.3
  C62.6,36,62.7,37.6,62.2,39L62.2,39z"/>
<path class="st0" d="M37.6,40.9c-2.6-2.7-6.9-2.7-9.6,0s-2.7,6.9,0,9.6c0.3,0.3,0.6,0.6,1,0.8c0.1,0.1,0.3,0.1,0.4,0.1h6.9
  c0.1,0,0.3,0,0.4-0.1c3.1-2.1,3.8-6.3,1.7-9.4C38.1,41.5,37.9,41.2,37.6,40.9z M36.1,49.9L36.1,49.9h-6.5l0,0
  c-2.3-1.8-2.8-5.1-1-7.5c1.8-2.3,5.1-2.8,7.5-1c2.3,1.8,2.8,5.1,1,7.5C36.8,49.3,36.5,49.6,36.1,49.9L36.1,49.9z"/>
<circle class="st0" cx="32.8" cy="20" r="0.6"/>
</svg>
