<?xml version="1.0" encoding="utf-8"?>
<!-- Generator: Adobe Illustrator 21.1.0, SVG Export Plug-In . SVG Version: 6.00 Build 0)  -->
<svg version="1.1" id="Layer_1" xmlns="http://www.w3.org/2000/svg" xmlns:xlink="http://www.w3.org/1999/xlink" x="0px" y="0px"
	 viewBox="0 0 80 80" style="enable-background:new 0 0 80 80;" xml:space="preserve">
<style type="text/css">
	.st0{fill:currentColor;}
</style>
<title>2-Thoi-trang-nam-nu</title>
<path class="st0" d="M68.5,29.1L68.5,29.1c0.3-0.3,0.3-0.8,0-1.1c0,0,0,0,0,0l0,0l-12-10.7l0,0c-0.1-0.1-0.2-0.1-0.3-0.1L47.5,14
	c-0.4-0.1-0.8,0.1-1,0.5c0,0.1,0,0.1,0,0.2c-0.1,1.2-0.4,2.3-1,3.3c-1.1,2-3.2,3.3-5.5,3.3l0,0c-2.3,0.1-4.5-1.2-5.7-3.2
	c-0.6-1-0.9-2.1-1-3.3c0-0.4-0.4-0.7-0.8-0.7l0,0c-0.1,0-0.1,0-0.2,0l-8.7,3.1c-0.1,0-0.2,0.1-0.3,0.1L11.5,28
	c-0.3,0.3-0.3,0.8,0,1.1l0,0l0,0l9.5,9.6l0.1,0.1v26.4c0,0.4,0.3,0.8,0.8,0.8h0h36.2c0.4,0,0.8-0.3,0.8-0.8l0,0V38.8l0.1-0.1
	L68.5,29.1L68.5,29.1z M66.5,28.9l-7,7.1l-0.7,0.7v-6.2c0-0.4-0.3-0.8-0.8-0.8c-0.4,0-0.8,0.3-0.8,0.8v34H22.6v-34
	c0-0.4-0.3-0.8-0.8-0.8s-0.8,0.3-0.8,0.8v6.2L20.4,36l-7-7.1l-0.3-0.3l0.3-0.3l10.8-9.7h0.1h0.1l7.1-2.6l0.4-0.1l0.1,0.4
	c0.7,4.4,4.9,7.3,9.2,6.6c3.4-0.6,6-3.2,6.6-6.6l0.1-0.4l0.4,0.2l7.2,2.6h0.1h0.1l10.8,9.7l0.3,0.3L66.5,28.9z"/>
</svg>
