<?xml version="1.0" encoding="utf-8"?>
<!-- Generator: Adobe Illustrator 21.1.0, SVG Export Plug-In . SVG Version: 6.00 Build 0)  -->
<svg version="1.1" id="Layer_1" xmlns="http://www.w3.org/2000/svg" xmlns:xlink="http://www.w3.org/1999/xlink" x="0px" y="0px"
   viewBox="0 0 80 80" style="enable-background:new 0 0 80 80;" xml:space="preserve">
<style type="text/css">
  .st0{fill:none;}
  .st1{fill:currentColor;}
</style>
<title>1_Me-va-be</title>
<path class="st0" d="M40,34.5c5.9,0,10.8-4.8,10.8-10.7c0,0,0,0,0,0v-5.3c-3.9,0.3-7.5,2.3-9.8,5.4c-0.2,0.3-0.6,0.5-1,0.5l0,0
  c-0.4,0-0.7-0.2-1-0.5c-2.4-3.1-5.9-5.1-9.8-5.4v5.3C29.2,29.7,34,34.5,40,34.5C40,34.5,40,34.5,40,34.5L40,34.5z"/>
<path class="st1" d="M42.1,39.2c-0.7,0-1.4,0.2-1.9,0.5L40,39.9l-0.2-0.1c-0.6-0.4-1.2-0.5-1.9-0.5c-2.1,0-3.7,1.7-3.7,3.8
  c0,1.2,0.9,2.7,2.8,4.5c0.8,0.8,1.7,1.6,2.6,2.3c0.3,0.2,0.7,0.2,1,0c0.9-0.7,1.8-1.5,2.6-2.3c1.9-1.8,2.7-3.3,2.7-4.5
  C45.9,40.9,44.2,39.2,42.1,39.2z M40.3,48L40,48.2L39.8,48c-1.5-1.2-4-3.7-4-5c0-1.2,0.9-2.2,2.1-2.2c0.6,0,1.2,0.2,1.5,0.7
  c0.3,0.3,0.8,0.3,1.1,0.1c0,0,0,0,0.1-0.1c0.4-0.4,1-0.7,1.5-0.7c1.2,0,2.1,1,2.1,2.2C44.3,44.3,41.7,46.8,40.3,48z"/>
<path class="st1" d="M54.4,39.9c-1.3-2.3-3.2-4.3-5.4-5.6l-0.5-0.3L48,33.6l0.4-0.3c0.2-0.2,0.4-0.4,0.6-0.5c2.4-2.4,3.7-5.6,3.7-9
  v-6.4v-0.1l2.3-6.2c0.2-0.4-0.1-0.9-0.5-1c-0.1,0-0.1,0-0.2,0l0,0c-0.3,0-0.6,0.2-0.7,0.5l-2.1,5.6l-0.1,0.2h-0.3
  c-4.2,0.2-8.1,2-10.9,5.1L40,21.9l-0.3-0.3c-2.8-3.1-6.7-4.9-10.9-5.1h-0.3l-0.1-0.2l-2.1-5.6c-0.1-0.3-0.4-0.5-0.7-0.5l0,0
  c-0.4,0-0.8,0.4-0.8,0.8c0,0.1,0,0.2,0,0.3l2.3,6.2v0.1v6.4c0,3.4,1.3,6.6,3.7,9c0.2,0.2,0.4,0.4,0.6,0.5l0.4,0.3l-0.5,0.3L31,34.2
  c-6.4,4-9.1,12-6.3,19l6.5,16.3c0.1,0.3,0.4,0.5,0.8,0.5h16c0.3,0,0.6-0.2,0.7-0.5l6.5-16.2C57,48.9,56.7,44,54.4,39.9L54.4,39.9z
   M28.8,23.7V18h0.4c4,0.3,7.7,2.4,10.1,5.6c0.1,0.2,0.4,0.4,0.6,0.4l0,0c0.2,0,0.5-0.1,0.6-0.3c2.4-3.2,6.1-5.3,10.1-5.6h0.4v5.7
  c0,6.1-5,11.1-11.2,11.1l0,0C33.8,34.9,28.8,29.9,28.8,23.7C28.8,23.7,28.8,23.7,28.8,23.7z M53.8,52.5L53.8,52.5L53.8,52.5
  l-4.3,10.9l0,0l0,0l-1.9,4.7l-0.1,0.3h-15l-0.1-0.3l-1.9-4.7l0,0l0,0l-4.3-10.7v-0.1l0,0c-0.6-1.5-1-3.2-1-4.9v-0.1c0,0,0-0.1,0-0.1
  l0,0c0,0,0-0.1,0-0.1v-0.1c0-1.7,0.4-3.4,1-5l0,0l0,0l0.1-0.1c1.1-2.7,3.1-5,5.5-6.5l1-0.6c0.1,0,0.1-0.1,0.2-0.2l0.2-0.3l0.3,0.2
  c2,1.1,4.2,1.7,6.5,1.7l0,0c2.3,0,4.5-0.6,6.5-1.8l0.3-0.2l0.2,0.3c0.1,0.1,0.1,0.1,0.2,0.2l1,0.6c2.5,1.5,4.4,3.8,5.5,6.5l0.1,0.1
  l0,0l0,0C55.1,45.5,55.1,49.2,53.8,52.5L53.8,52.5z"/>
</svg>
