<svg width="16" height="14" viewBox="0 0 16 14" fill="none" xmlns="http://www.w3.org/2000/svg">
<path d="M13.3541 7.68595C13.3157 7.66592 13.2772 7.65593 13.2384 7.65593C13.1549 7.65593 13.0813 7.68905 13.0172 7.75543L12.4014 8.39173C12.3439 8.45146 12.315 8.52428 12.315 8.61054V11.1359C12.315 11.5735 12.1646 11.9478 11.8629 12.2595C11.5615 12.571 11.199 12.7268 10.7756 12.7268H2.77088C2.34749 12.7268 1.98507 12.571 1.68364 12.2595C1.38214 11.9478 1.23147 11.5735 1.23147 11.1359V2.86343C1.23147 2.42594 1.38214 2.05142 1.68364 1.7398C1.98507 1.42825 2.34749 1.27251 2.77088 1.27251H10.7757C10.9168 1.27251 11.0611 1.29239 11.2086 1.3322C11.2472 1.34536 11.276 1.35208 11.295 1.35208C11.3785 1.35208 11.4523 1.31903 11.5164 1.25276L11.9878 0.765544C12.0647 0.686106 12.0937 0.589917 12.0743 0.477324C12.0551 0.371245 11.9973 0.294976 11.9011 0.248623C11.5549 0.0831296 11.1795 0 10.7754 0H2.77088C2.00761 0 1.35494 0.28007 0.812938 0.840211C0.271002 1.40042 0 2.07483 0 2.86367V11.1363C0 11.925 0.271002 12.5995 0.812972 13.1596C1.35498 13.7199 2.00765 14 2.77091 14H10.7756C11.5388 14 12.1915 13.7199 12.7336 13.1596C13.2756 12.5995 13.5468 11.9251 13.5468 11.1363V7.97424C13.5468 7.83514 13.4823 7.73909 13.3541 7.68595Z" fill="#FFC13D"/>
<path d="M15.7691 1.97864L14.7107 0.884787C14.5568 0.725737 14.3739 0.646194 14.1621 0.646194C13.9507 0.646194 13.7676 0.725737 13.6138 0.884787L7.38888 7.31801L4.85867 4.70297C4.70471 4.54381 4.52186 4.46437 4.31027 4.46437C4.09864 4.46437 3.91586 4.54381 3.76186 4.70297L2.70356 5.79667C2.54963 5.95576 2.4726 6.14473 2.4726 6.36354C2.4726 6.58224 2.54963 6.77114 2.70356 6.93029L6.84061 11.2058C6.99457 11.365 7.17742 11.4444 7.38901 11.4444C7.6006 11.4444 7.78342 11.365 7.93742 11.2058L15.769 3.11212C15.9229 2.95307 16 2.76407 16 2.54536C16 2.32665 15.9231 2.13769 15.7691 1.97864Z" fill="#FFC13D"/>
</svg>
