<svg width="15" height="15" viewBox="0 0 15 15" fill="none" xmlns="http://www.w3.org/2000/svg">
<path fill-rule="evenodd" clip-rule="evenodd" d="M14.6329 12.8602L11.3742 9.60158C11.3569 9.58426 11.3366 9.57215 11.3185 9.55603C11.9597 8.58339 12.3339 7.4191 12.3339 6.16702C12.3339 2.76105 9.57287 0 6.16696 0C2.76105 0 0 2.76105 0 6.16696C0 9.57281 2.76099 12.3339 6.1669 12.3339C7.41904 12.3339 8.58327 11.9597 9.55591 11.3185C9.57203 11.3365 9.58408 11.3568 9.6014 11.3742L12.8601 14.6329C13.3497 15.1224 14.1433 15.1224 14.6329 14.6329C15.1224 14.1434 15.1224 13.3497 14.6329 12.8602ZM6.16696 10.196C3.9417 10.196 2.13783 8.39217 2.13783 6.16696C2.13783 3.9417 3.94176 2.13783 6.16696 2.13783C8.39211 2.13783 10.196 3.94176 10.196 6.16696C10.196 8.39217 8.39211 10.196 6.16696 10.196Z" fill="#2A2A2A"/>
</svg>
