<svg width="5" height="8" viewBox="0 0 5 8" fill="none" xmlns="http://www.w3.org/2000/svg">
<path d="M0.164906 0.148501C0.054938 0.247392 -3.33753e-07 0.364616 -3.27833e-07 0.500065L-2.18573e-08 7.49996C-1.59343e-08 7.63547 0.0549384 7.75261 0.164906 7.85158C0.274996 7.95055 0.405151 8 0.555616 8C0.706051 8 0.836206 7.95055 0.946205 7.85158L4.83497 4.35162C4.94494 4.25254 5 4.13539 5 4C5 3.86461 4.94494 3.74735 4.83497 3.64846L0.946174 0.148501C0.836206 0.0496368 0.70605 -3.08625e-08 0.555586 -2.42854e-08C0.405151 -1.77097e-08 0.274996 0.0496368 0.164906 0.148501Z" fill="white"/>
</svg>
