<svg width="22" height="22" viewBox="0 0 22 22" fill="none" xmlns="http://www.w3.org/2000/svg">
<path d="M20.8699 0.185321L0.603676 11.1419C-0.22999 11.5924 -0.195789 12.2526 0.678919 12.6097L3.26628 13.664C4.13927 14.0201 5.46288 13.8271 6.20506 13.2285L17.442 4.09316C18.1808 3.49283 18.2603 3.58187 17.6182 4.29062L8.73427 14.0959C8.09042 14.802 8.28195 15.6677 9.15752 16.0194L9.4602 16.142C10.3358 16.491 11.7671 17.0781 12.6384 17.4449L15.5079 18.649C16.3801 19.0149 17.0932 19.3181 17.0932 19.3234C17.0932 19.3287 17.0983 19.3455 17.1026 19.3463C17.1068 19.3481 17.3129 18.5847 17.5592 17.6485L21.9353 1.0695C22.1815 0.132429 21.7035 -0.264261 20.8699 0.185321Z" fill="white"/>
<path d="M8.82749 17.131L6.84208 16.2935C5.97165 15.9259 5.55438 16.357 5.91521 17.2535C5.91607 17.2535 7.75868 21.8322 7.70738 21.9935C7.65437 22.1539 9.47561 19.2766 9.47561 19.2766C9.99034 18.4638 9.69792 17.4986 8.82749 17.131Z" fill="white"/>
</svg>
