<svg width="16" height="14" viewBox="0 0 16 14" fill="none" xmlns="http://www.w3.org/2000/svg">
<path d="M13.3541 7.68595C13.3157 7.66592 13.2772 7.65593 13.2384 7.65593C13.1549 7.65593 13.0813 7.68905 13.0172 7.75543L12.4014 8.39173C12.3439 8.45146 12.315 8.52428 12.315 8.61054V11.1359C12.315 11.5735 12.1646 11.9478 11.8629 12.2595C11.5615 12.571 11.199 12.7268 10.7756 12.7268H2.77088C2.34749 12.7268 1.98507 12.571 1.68364 12.2595C1.38214 11.9478 1.23147 11.5735 1.23147 11.1359V2.86343C1.23147 2.42594 1.38214 2.05142 1.68364 1.7398C1.98507 1.42825 2.34749 1.27251 2.77088 1.27251H10.7757C10.9168 1.27251 11.0611 1.29239 11.2086 1.3322C11.2472 1.34536 11.276 1.35208 11.295 1.35208C11.3785 1.35208 11.4523 1.31903 11.5164 1.25276L11.9878 0.765544C12.0647 0.686106 12.0937 0.589917 12.0743 0.477324C12.0551 0.371245 11.9973 0.294976 11.9011 0.248623C11.5549 0.0831296 11.1795 0 10.7754 0H2.77088C2.00761 0 1.35494 0.28007 0.812938 0.840211C0.271002 1.40042 0 2.07483 0 2.86367V11.1363C0 11.925 0.271002 12.5995 0.812972 13.1596C1.35498 13.7199 2.00765 14 2.77091 14H10.7756C11.5388 14 12.1915 13.7199 12.7336 13.1596C13.2756 12.5995 13.5468 11.9251 13.5468 11.1363V7.97424C13.5468 7.83514 13.4823 7.73909 13.3541 7.68595Z" fill="#D9D9D9"/>
<path d="M15.7692 1.97862L14.7108 0.884772C14.5568 0.725722 14.3739 0.646179 14.1622 0.646179C13.9507 0.646179 13.7677 0.725722 13.6139 0.884772L7.38894 7.318L4.85873 4.70295C4.70477 4.5438 4.52192 4.46436 4.31033 4.46436C4.0987 4.46436 3.91592 4.5438 3.76192 4.70295L2.70362 5.79666C2.54969 5.95574 2.47266 6.14471 2.47266 6.36352C2.47266 6.58223 2.54969 6.77112 2.70362 6.93028L6.84067 11.2058C6.99464 11.3649 7.17748 11.4443 7.38907 11.4443C7.60067 11.4443 7.78348 11.365 7.93748 11.2058L15.7691 3.1121C15.9229 2.95305 16.0001 2.76405 16.0001 2.54534C16.0001 2.32664 15.9231 2.13767 15.7692 1.97862Z" fill="#D9D9D9"/>
</svg>
