<svg width="147" height="30" viewBox="0 0 147 30" fill="none" xmlns="http://www.w3.org/2000/svg">
<path d="M42.418 29.9677H33.6968L38.7607 0.0968018H47.4819L42.418 29.9677Z" fill="#E4AF21"/>
<path d="M71.5511 6.90321L61.0794 21.9677H69.1442L67.8313 29.9677H49.5449L50.7328 22.8709L61.1107 7.83869H54.2025L55.5154 0.0645142H72.7077L71.5511 6.90321Z" fill="#E4AF21"/>
<path d="M95.9022 6.90318L85.4305 21.9677H93.4953L92.1824 29.9354H73.896L75.0838 22.8386L85.4618 7.80641H78.5536L79.8664 0.0322266H97.0588L95.9022 6.90318Z" fill="white"/>
<path d="M118.471 7.83875H111.594L110.969 11.2258H117.314L116.126 18.4516H109.781L109.156 22.0968H116.814L115.501 30H99.5903L104.654 0.129089H119.784L118.471 7.83875Z" fill="white"/>
<path d="M146.666 8.48394C146.666 10.6452 146.26 12.4839 145.416 13.9678C144.572 15.4517 143.384 16.5484 141.853 17.2259L144.603 29.9678H135.507L133.944 19.0646H132.85L131.006 29.9678H122.753L127.817 0.0968628H137.914C140.758 0.0968628 142.915 0.806539 144.416 2.19363C145.916 3.58073 146.666 5.6775 146.666 8.48394ZM137.976 9.61297C137.976 8.74201 137.758 8.16136 137.289 7.87104C136.82 7.58072 136.414 7.45169 135.976 7.45169H134.819L133.882 12.9678H134.788C135.601 12.9678 136.351 12.7097 137.007 12.1936C137.633 11.7097 137.976 10.8388 137.976 9.61297Z" fill="white"/>
<path d="M28.9457 7.12902C28.9457 3.19354 25.7573 0 21.8499 0H3.93861L3.1884 5.70967C4.37624 5.54838 5.59533 5.4516 6.81442 5.4516C8.81499 5.4516 10.7843 5.67741 12.6911 6.09676C13.0662 5.67741 13.4726 5.32257 13.9727 4.99999C14.2228 4.8387 14.4728 4.67741 14.7542 4.54838C14.8792 4.48386 15.0355 4.41935 15.1605 4.35483C15.223 4.32257 15.2856 4.29031 15.3481 4.29031C16.7235 3.77419 18.1614 3.74193 19.5055 4.16128C20.5683 4.4516 21.6936 4.58064 22.8189 4.51612C24.0068 4.4516 25.1634 4.12902 26.2887 3.6129C26.2262 4.06451 25.9761 4.51612 25.6322 4.8387C25.5697 4.90322 25.5072 4.93547 25.4447 4.96773C24.4757 5.64515 23.5692 5.96773 22.6939 6.22579C21.8499 6.4516 20.8809 6.54838 20.0369 6.51612H19.9431H19.8494H19.7868L19.6618 6.54837L19.5368 6.58063L19.443 6.61289L19.3805 6.64515H19.3492L19.2867 6.67741L19.2242 6.70966L19.1304 6.77418L19.0054 6.8387L18.9116 6.90321C18.5677 7.19353 18.3802 7.64515 18.3802 8.09676C18.3802 8.38708 18.474 8.64515 18.6303 8.90321C18.6615 8.93547 18.6615 8.96772 18.6928 8.96772C18.6928 8.99998 18.724 8.99998 18.724 9.03224C18.8178 9.16127 18.8803 9.25805 18.9741 9.38708C19.9119 10.8709 20.1307 12.6129 19.7243 14.2258L19.7868 14.5161C19.8181 14.5806 19.8181 14.6129 19.8181 14.6774C19.8181 14.7097 19.8494 14.7419 19.8494 14.7742C19.8806 14.8709 19.9119 14.9677 19.9119 15.0645C19.9119 15.0967 19.9119 15.129 19.9431 15.1613C19.9744 15.2903 20.0056 15.4193 20.0056 15.5484C20.0056 15.5806 20.0056 15.6129 20.0056 15.6129C20.0056 15.7096 20.0369 15.8064 20.0369 15.9355C20.0369 15.9677 20.0369 15.9677 20.0369 16C20.0682 16.2903 20.0994 16.5806 20.1932 16.8709C20.2245 17.0322 20.2557 17.1613 20.287 17.3225L20.5058 17.9677C20.5683 18.129 20.6308 18.258 20.6933 18.3871L21.4436 19.6451C21.5061 19.7742 21.5686 19.8709 21.6311 20C21.6936 20.1935 21.7249 20.4193 21.7249 20.6129C21.7249 20.7742 21.6936 20.9032 21.6624 21.0645C21.4748 22.258 20.8184 23.3548 19.7556 24.0645C19.3492 24.3548 18.8803 24.5161 18.4427 24.6451H18.4114C18.3802 24.6451 18.3802 24.6451 18.3489 24.6774C17.6612 24.8387 16.911 24.5483 16.5047 23.9032C16.4109 23.7419 16.3171 23.6129 16.2858 23.4193L16.2546 23.2258L16.2233 23.1612L16.1608 23.0967L16.0983 23.0322L16.0358 22.9677L15.9107 22.9032L15.7857 22.8387L15.6919 22.8064L15.4731 22.7742C14.8792 22.7742 14.3165 22.7096 13.7851 22.5806C12.4723 22.2903 11.2844 21.6774 10.3154 20.8064C10.0028 20.9677 9.69024 21.129 9.37765 21.2903C5.56407 23.4193 2.50071 26.3548 0 29.9032H4.31372H21.1622C25.4447 29.9032 28.9144 26.4193 28.9144 22.0967C28.9144 17.7742 25.4447 14.2903 21.1622 14.2903H21.8187C25.7573 14.2903 28.9457 11.0968 28.9457 7.12902Z" fill="#E4AF21"/>
<path d="M8.43996 12.1935C8.43996 12.258 8.4087 12.2903 8.37744 12.3225L8.87758 13.0322C9.72157 12.6774 10.5968 12.387 11.4721 12.129L11.2533 11.9677C11.222 11.9999 11.1907 12.0322 11.1282 12.0322C11.0344 12.0322 10.9407 11.9677 10.9407 11.8709L8.43996 12.1935Z" fill="black"/>
<path d="M8.84635 13.0645L8.34621 12.3871C8.34621 12.3871 8.31495 12.3871 8.28369 12.4193L8.40873 13.2903C8.56502 13.1935 8.69006 13.129 8.84635 13.0645Z" fill="black"/>
<path d="M6.22072 13.7742C6.22072 13.7742 6.18946 13.7742 6.1582 13.7742L6.18946 14.3871C6.28324 14.3226 6.37701 14.258 6.47079 14.2258L6.22072 13.7742Z" fill="black"/>
<path d="M4.03223 13.0645C4.09474 13.0967 4.126 13.1612 4.126 13.2257C4.126 13.2257 4.126 13.2257 4.126 13.258L5.93901 13.5806C5.97027 13.5161 6.00153 13.4515 6.06405 13.4515L5.93901 12.0645C5.37636 12.1935 4.8137 12.3225 4.2823 12.4838L4.03223 13.0645Z" fill="black"/>
<path d="M8.22119 11.6451L8.25245 12C8.34623 12 8.40874 12.0645 8.44 12.1613L10.972 11.8387C10.972 11.7419 11.0345 11.6774 11.097 11.6451L11.0657 11.4516C10.0967 11.4516 9.15896 11.5161 8.22119 11.6451Z" fill="black"/>
<path d="M2.96979 15.6452L2.75098 16.9033C2.90727 16.7742 3.03231 16.6452 3.1886 16.5484L2.96979 15.6452C3.00105 15.6452 3.00105 15.6452 2.96979 15.6452Z" fill="black"/>
<path d="M2.93824 15.1935C2.9695 15.1935 3.00076 15.1935 3.03202 15.1935L3.84475 13.3871C3.81349 13.3548 3.78223 13.3226 3.75097 13.2581L2.15677 13.4516L2.03174 14.5161L2.81321 15.2581C2.84447 15.2258 2.90699 15.1935 2.93824 15.1935Z" fill="black"/>
<path d="M3.25104 16.5161C3.37607 16.4194 3.50111 16.3226 3.62614 16.1936L3.09474 15.6129C3.06349 15.6129 3.06349 15.6452 3.03223 15.6452L3.25104 16.5161Z" fill="black"/>
<path d="M3.93848 13.0323C3.96974 13.0323 3.96974 13.0323 4.001 13.0323L4.21981 12.4839C3.53212 12.6774 2.87568 12.9032 2.21925 13.129L2.18799 13.4194L3.75093 13.2258C3.75093 13.129 3.84471 13.0323 3.93848 13.0323Z" fill="black"/>
<path d="M3.87621 13.4193L3.06348 15.2258C3.09474 15.2581 3.12599 15.2581 3.12599 15.2903L5.93929 13.6774C5.93929 13.6452 5.93929 13.6452 5.93929 13.6129C5.93929 13.6129 5.93929 13.6129 5.93929 13.5806L4.12628 13.2581C4.09502 13.3226 4.0325 13.3871 3.96998 13.3871C3.93872 13.4193 3.90746 13.4193 3.87621 13.4193Z" fill="black"/>
<path d="M15.0044 11.5806H14.9731C15.0669 11.5806 15.1607 11.5806 15.2857 11.6128C15.192 11.5806 15.0982 11.5806 15.0044 11.5806Z" fill="black"/>
<path d="M13.5039 11.7419C13.9728 11.6774 14.4729 11.6129 14.9731 11.5806C14.4729 11.5161 14.004 11.4839 13.5039 11.4516V11.7419Z" fill="black"/>
<path d="M2.90712 15.6452C2.8446 15.6452 2.81334 15.6129 2.78208 15.5484L1.81306 16.1936L1.56299 18C1.93809 17.6452 2.3132 17.2903 2.71956 16.9678L2.90712 15.6452Z" fill="black"/>
<path d="M2.75075 15.4517C2.75075 15.3871 2.75075 15.3549 2.78201 15.2904L2.0318 14.5807L1.81299 16.1291L2.75075 15.5162C2.75075 15.5162 2.75075 15.4839 2.75075 15.4517Z" fill="black"/>
<path d="M3.65737 16.1613C4.43884 15.5484 5.28283 14.9677 6.15807 14.4193L6.12681 13.7742C6.0643 13.7742 6.03304 13.7419 6.00178 13.7097L3.18849 15.3226C3.18849 15.3548 3.21974 15.3548 3.21974 15.3871C3.21974 15.4516 3.18849 15.5161 3.15723 15.5484L3.65737 16.1613Z" fill="black"/>
<path d="M6.2828 13.4839L8.09581 12.2903C8.09581 12.2581 8.06456 12.2581 8.06456 12.2258C8.06456 12.129 8.12707 12.0323 8.22085 12.0323L8.18959 11.6774C7.43938 11.7742 6.72043 11.9032 5.97021 12.0645L6.12651 13.4194C6.18903 13.4194 6.25154 13.4194 6.2828 13.4839Z" fill="black"/>
<path d="M6.53328 14.2257C7.1272 13.8709 7.75238 13.5483 8.37755 13.258L8.25252 12.387C8.19 12.387 8.12748 12.3548 8.09622 12.3225L6.28321 13.5161C6.28321 13.5483 6.31447 13.5483 6.31447 13.5806C6.31447 13.6451 6.28321 13.7096 6.25195 13.7419L6.53328 14.2257Z" fill="black"/>
<path d="M15.4106 11.6129C15.5357 11.6129 15.6607 11.6451 15.7858 11.6451C15.6607 11.6451 15.5357 11.6451 15.4106 11.6129Z" fill="black"/>
<path d="M11.9407 11.4194C11.6593 11.4194 11.378 11.4194 11.0967 11.4194L11.1279 11.6129C11.2217 11.6129 11.3155 11.6774 11.3155 11.8065C11.3155 11.8387 11.3155 11.9032 11.2842 11.9355L11.5343 12.1613C12.1595 12 12.8159 11.871 13.4723 11.7742V11.4839C12.9722 11.4194 12.4721 11.4194 11.9407 11.4194Z" fill="black"/>
<path d="M18.5054 5.93542L21.6938 5.22574C21.6938 5.16123 21.6938 5.12897 21.725 5.09671L21.1624 4.48381C20.5997 4.41929 20.0371 4.32252 19.5057 4.16123C19.3806 4.12897 19.2243 4.09671 19.0993 4.06445L18.4429 5.83864C18.4429 5.8709 18.5054 5.90316 18.5054 5.93542Z" fill="black"/>
<path d="M21.8498 5.0323C21.881 5.0323 21.9123 5.0323 21.9436 5.06456L22.2561 4.54843C21.9123 4.54843 21.5685 4.54843 21.2246 4.51617L21.756 5.09682C21.7873 5.0323 21.8185 5.0323 21.8498 5.0323Z" fill="black"/>
<path d="M18.5991 15.2903C18.6304 15.2903 18.6304 15.2903 18.5991 15.2903L19.1618 12.3548C19.0993 12.3548 19.0367 12.3226 19.0055 12.2581L16.9424 13.0322V13.0645C16.9424 13.129 16.9111 13.1613 16.8799 13.2258L18.5053 15.3548C18.5366 15.3226 18.5679 15.3226 18.5991 15.2903Z" fill="black"/>
<path d="M20.0995 16.2258C20.0995 16.129 20.0683 16.0322 20.0683 15.9354C20.0683 15.9032 20.0683 15.9032 20.0683 15.8709C20.0683 15.7741 20.037 15.6774 20.037 15.5483C20.037 15.5161 20.037 15.4838 20.037 15.4838C20.0057 15.3548 20.0057 15.2258 19.9745 15.0967C19.9745 15.0645 19.9745 15.0322 19.9432 15C19.912 14.9032 19.912 14.8064 19.8807 14.7096C19.8807 14.6774 19.8494 14.6451 19.8494 14.6129C19.8494 14.5483 19.8182 14.5161 19.8182 14.4516L19.7244 14.1935C19.7869 13.9032 19.8494 13.6129 19.8807 13.3225L19.2868 12.3548C19.2555 12.3548 19.2555 12.3871 19.2243 12.3871H19.2555L18.6929 15.3225C18.7554 15.3548 18.8179 15.4193 18.8179 15.4838C18.8179 15.5161 18.8179 15.5483 18.8179 15.5483L20.0995 16.2258Z" fill="black"/>
<path d="M12.8159 7.25806L15.3166 7.3871C15.3166 7.32258 15.3479 7.29032 15.3792 7.25806L14.0976 4.87097C14.035 4.90323 13.9725 4.93549 13.91 5C13.5974 5.19355 13.3473 5.41936 13.066 5.64516L12.7222 7.09677C12.7847 7.12903 12.8159 7.19355 12.8159 7.25806Z" fill="black"/>
<path d="M19.0053 19.8064L18.599 15.7096C18.5677 15.7096 18.5677 15.7096 18.5364 15.7096L17.4424 17.7418C17.4736 17.7741 17.5049 17.8386 17.5049 17.8709C17.5049 17.9354 17.4736 17.9677 17.4424 18.0322L18.9115 19.8386C18.9741 19.8064 19.0053 19.8064 19.0053 19.8064Z" fill="black"/>
<path d="M18.4741 22.871L19.1931 24.2903C19.4119 24.1936 19.5994 24.0968 19.787 23.9678C20.3184 23.6129 20.756 23.129 21.0999 22.6129L18.5679 22.7419C18.5679 22.8065 18.5366 22.8387 18.4741 22.871Z" fill="black"/>
<path d="M19.3491 12.0645C19.3804 12.0967 19.3804 12.129 19.3804 12.1612C19.3804 12.1935 19.3804 12.2258 19.3491 12.258L19.8805 12.6129C19.8805 12.2903 19.8493 11.9354 19.7867 11.6129L19.3491 12.0645Z" fill="black"/>
<path d="M18.3804 22.5483H18.4117L18.9743 20.1935C18.9118 20.1612 18.8805 20.129 18.8493 20.0645L16.5674 20.6128C16.5674 20.6774 16.5674 20.7096 16.5361 20.7419L18.2866 22.5806C18.2866 22.5483 18.3179 22.5483 18.3804 22.5483Z" fill="black"/>
<path d="M15.4107 7.58063L13.6289 9.51611C13.6602 9.54837 13.6602 9.58062 13.6602 9.61288L17.1612 9.80643C17.1612 9.77417 17.1924 9.74191 17.2237 9.70966L15.6295 7.58063C15.5982 7.58063 15.567 7.61289 15.5357 7.61289C15.4732 7.61289 15.4419 7.61289 15.4107 7.58063Z" fill="black"/>
<path d="M18.4427 15.5484L15.5982 15.8387C15.5982 15.871 15.5669 15.9355 15.5669 15.9678L17.2236 17.7742C17.2549 17.7419 17.2861 17.7419 17.3174 17.7419C17.3486 17.7419 17.3799 17.7419 17.4112 17.7419L18.5365 15.6774C18.474 15.6129 18.4427 15.5807 18.4427 15.5484Z" fill="black"/>
<path d="M18.3489 6.19351H18.3176L17.4111 9.70964C17.4424 9.70964 17.4424 9.74189 17.4737 9.74189C17.5049 9.77415 17.5362 9.80641 17.5362 9.87093H19.2554C19.1616 9.70964 19.0679 9.54835 18.9741 9.3548C18.9116 9.22577 18.8178 9.12899 18.724 8.99996C18.6927 8.9677 18.6927 8.9677 18.6927 8.93544C18.6615 8.90319 18.6615 8.87093 18.6302 8.87093C18.4739 8.61286 18.4114 8.3548 18.3802 8.06448C18.3802 7.61287 18.5677 7.16125 18.9116 6.87093L18.9741 6.80642L18.4427 6.16125C18.4114 6.19351 18.3802 6.19351 18.3489 6.19351Z" fill="black"/>
<path d="M17.4422 18.0645C17.4109 18.0967 17.3797 18.0967 17.3484 18.0967H17.3171C17.1608 18.6128 16.6607 19.9677 16.4731 20.4838C16.5044 20.5161 16.5357 20.5483 16.5669 20.5806L18.8801 20.0322C18.8801 19.9677 18.9113 19.9354 18.9426 19.8709L17.4422 18.0645Z" fill="black"/>
<path d="M17.4426 10.0322C17.4113 10.0645 17.38 10.0645 17.3488 10.0645H17.3175L16.8174 12.8709C16.8799 12.8709 16.9112 12.9354 16.9424 12.9677L19.0055 12.1935V12.1613C19.0055 12.0967 19.0368 12.0645 19.068 12L17.4426 10.0322Z" fill="black"/>
<path d="M15.6919 7.35474C15.6919 7.35474 15.6919 7.387 15.6919 7.41926C15.6919 7.48377 15.6607 7.54829 15.6294 7.58055L17.2236 9.70958C17.2549 9.70958 17.2861 9.67732 17.3174 9.67732H17.3486L18.2551 6.1612C18.2239 6.1612 18.1926 6.12894 18.1614 6.09668L15.6919 7.35474Z" fill="black"/>
<path d="M2.81314 24.7742C2.81314 24.7096 2.8444 24.6451 2.87566 24.6129L1.9379 23.2258C1.90664 23.2258 1.87538 23.258 1.87538 23.258C1.84412 23.258 1.81286 23.258 1.75034 23.2258L0.718803 24.6129L0.53125 26.0322L2.81314 24.8387C2.81314 24.8064 2.81314 24.8064 2.81314 24.7742Z" fill="black"/>
<path d="M2.90701 24.5806C2.93827 24.5806 2.96953 24.5483 2.96953 24.5483C3.00079 24.5483 3.03205 24.5483 3.06331 24.5483L4.34492 21.9354C4.34492 21.9354 4.31366 21.9354 4.31366 21.9031L2.00051 22.9677V22.9999C2.00051 23.0644 1.96925 23.1289 1.93799 23.1612L2.90701 24.5806Z" fill="black"/>
<path d="M16.5047 4.70966C16.4734 4.74191 16.4421 4.77417 16.3796 4.77417C16.3484 4.77417 16.3484 4.77417 16.3171 4.77417L15.5669 7.25804C15.5982 7.25804 15.6294 7.2903 15.6607 7.32255L18.1301 6.06449C18.1301 6.06449 18.1301 6.03223 18.1301 5.99998C18.1301 5.96772 18.1301 5.93546 18.1614 5.9032L16.5047 4.70966Z" fill="black"/>
<path d="M24.6633 4.77429L22.0689 5.19365C22.0689 5.25816 22.0376 5.29042 22.0063 5.32268L22.7253 6.16139C23.3192 6.0001 23.9444 5.77429 24.6008 5.41945L24.7571 4.83881C24.7259 4.87107 24.6946 4.80655 24.6633 4.77429Z" fill="black"/>
<path d="M18.1927 22.7419C18.1927 22.7096 18.1927 22.7096 18.1927 22.6774L13.7852 21.2258C13.7852 21.2903 13.7539 21.2903 13.7227 21.3225L14.2541 22.7096C14.6604 22.7742 15.0668 22.8064 15.4731 22.8064L15.692 22.8387L15.7857 22.8709L15.9108 22.9354L16.0045 23L16.0671 23.0645L16.1296 23.129L16.1921 23.1935L16.2546 23.2258L16.2859 23.3225C16.3484 23.4838 16.4109 23.6451 16.5047 23.8064C16.5359 23.8709 16.5985 23.9354 16.6297 24L18.1927 22.8387C18.1927 22.8064 18.1927 22.7742 18.1927 22.7419Z" fill="black"/>
<path d="M19.068 20.1935H19.0368L18.4429 22.5483C18.5054 22.5806 18.5366 22.6128 18.5679 22.7096L21.1311 22.5806C21.2874 22.3225 21.4125 22.0322 21.5062 21.7419L19.1931 20.129C19.1618 20.1612 19.0993 20.1935 19.068 20.1935Z" fill="black"/>
<path d="M13.4415 21.1612C13.4415 21.129 13.4415 21.0967 13.4728 21.0645L11.7535 19.8709C11.7223 19.9032 11.691 19.9354 11.6285 19.9354C11.6285 19.9354 11.6285 19.9354 11.5972 19.9354L11.3784 21.6128C11.691 21.8064 12.0349 21.9999 12.3787 22.129L13.4728 21.2257C13.4415 21.2257 13.4415 21.1935 13.4415 21.1612Z" fill="black"/>
<path d="M5.72034 9.96773L5.65782 9.32257C5.62656 9.32257 5.62656 9.32257 5.5953 9.32257L5.28271 9.99999C5.43901 9.99999 5.56404 9.99999 5.72034 9.96773Z" fill="black"/>
<path d="M7.09586 21.3547L4.62642 21.8386C4.62642 21.9354 4.53264 21.9999 4.43886 21.9999C4.40761 21.9999 4.37635 21.9999 4.34509 21.9999L3.06348 24.6128C3.09474 24.6451 3.15725 24.7096 3.15725 24.7741C3.15725 24.8063 3.15725 24.8386 3.15725 24.8709L3.96998 25.3225C4.75145 24.5805 5.56418 23.9031 6.43943 23.258L7.18964 21.4838C7.12712 21.4193 7.09586 21.387 7.09586 21.3547Z" fill="black"/>
<path d="M5.4705 9.03224L3.93882 7.58063C3.90756 7.61289 3.8763 7.61289 3.84504 7.61289C3.78253 7.61289 3.75127 7.61289 3.72001 7.58063L2.87602 8.35482L2.71973 9.58062L5.4705 9.16127C5.43924 9.09675 5.4705 9.0645 5.4705 9.03224Z" fill="black"/>
<path d="M4.03235 20.1935C3.81354 20.3548 3.62598 20.5161 3.40717 20.6774C2.93829 21.0645 2.46941 21.4839 2.00052 21.871L1.87549 22.9032C1.90675 22.9032 1.96926 22.9355 2.00052 23L4.28242 21.9355C4.28242 21.9032 4.25116 21.871 4.25116 21.8387C4.25116 21.7419 4.28242 21.6774 4.37619 21.6452L4.03235 20.1935Z" fill="black"/>
<path d="M21.4748 19.5483L20.9121 18.6129L19.1929 19.9032C19.1929 19.9354 19.2241 19.9677 19.2241 19.9677C19.2241 19.9999 19.2241 20.0322 19.1929 20.0645L21.506 21.6774C21.5685 21.4516 21.6311 21.1935 21.6936 20.9677C21.7248 20.8387 21.7561 20.6774 21.7561 20.5161C21.7561 20.3225 21.7248 20.0967 21.6623 19.9032C21.5998 19.8064 21.5373 19.6774 21.4748 19.5483Z" fill="black"/>
<path d="M11.4094 19.8386L7.43949 21.2257V21.258C7.43949 21.3547 7.37697 21.4515 7.31445 21.4515L7.47075 22.4838C8.09592 22.0644 8.7211 21.7096 9.37754 21.3225C9.69012 21.1612 10.0027 20.9999 10.3153 20.8386C10.4091 20.9354 10.5341 21.0322 10.6279 21.0967L11.4406 19.9031C11.4406 19.9031 11.4406 19.8709 11.4094 19.8386Z" fill="black"/>
<path d="M24.8506 4.90332H24.8194L24.6631 5.45171C24.9132 5.32268 25.1632 5.16139 25.4133 5.0001C25.4446 4.96784 25.5071 4.93558 25.5383 4.90332L25.0069 4.77429C25.0069 4.83881 24.9444 4.87107 24.8506 4.90332Z" fill="black"/>
<path d="M19.193 19.8709L20.9122 18.5806L20.7559 18.2903C20.6622 18.1613 20.5997 18 20.5684 17.8709L20.3496 17.2258C20.3183 17.0645 20.2871 16.9355 20.2558 16.7742C20.2245 16.6129 20.1933 16.4193 20.162 16.258L18.8492 15.5806C18.8179 15.6129 18.7866 15.6451 18.7241 15.6774L19.068 19.8064H19.0367C19.0992 19.8064 19.1617 19.8064 19.193 19.8709Z" fill="black"/>
<path d="M22.0689 5.16134L24.6633 4.74199C24.6633 4.67747 24.6946 4.61296 24.7259 4.5807L24.5383 4.25812C23.9444 4.41941 23.3817 4.48392 22.7878 4.54844C22.6315 4.54844 22.4752 4.5807 22.3189 4.5807L22.0063 5.12908C22.0376 5.09683 22.0376 5.12908 22.0689 5.16134Z" fill="black"/>
<path d="M17.5361 9.90323C17.5361 9.93549 17.5049 9.96775 17.4736 10L19.0991 12C19.1303 11.9677 19.1616 11.9677 19.1929 11.9677C19.2554 11.9677 19.2866 11.9677 19.3179 12L19.818 11.5161C19.7243 10.9677 19.5367 10.4194 19.2866 9.87097H17.5361V9.90323Z" fill="black"/>
<path d="M19.3179 12.3225L19.8805 13.2257C19.9118 13.0322 19.9118 12.8386 19.9118 12.6451L19.3179 12.3225Z" fill="black"/>
<path d="M10.5967 6.45162C10.5967 6.48388 10.5967 6.48388 10.5967 6.51614L12.5035 7.19355C12.5347 7.12904 12.5973 7.09678 12.6598 7.09678H12.691L13.0661 5.74194C12.9411 5.87098 12.8161 6.00001 12.691 6.12904C12.2221 6.03227 11.722 5.93549 11.2219 5.83872L10.5654 6.3871C10.5654 6.3871 10.5967 6.41936 10.5967 6.45162Z" fill="black"/>
<path d="M3.96977 7.32262L5.75152 6.19359C5.75152 6.16133 5.75152 6.16133 5.72026 6.12908C5.72026 6.06456 5.72026 6.0323 5.75152 6.00004L5.34516 5.51617C4.84502 5.54843 4.31362 5.58069 3.81348 5.64521V7.25811C3.87599 7.22585 3.93851 7.25811 3.96977 7.32262Z" fill="black"/>
<path d="M6.09571 6.09679L10.2219 6.41937C10.2219 6.38711 10.2531 6.3226 10.2844 6.29034L9.90929 5.61292C8.87775 5.48389 7.84621 5.41937 6.81466 5.41937C6.78341 5.41937 6.75215 5.41937 6.72089 5.41937L6.06445 5.9355C6.06445 6.00002 6.09571 6.03227 6.09571 6.09679Z" fill="black"/>
<path d="M16.5674 4.58065C16.5674 4.61291 16.5674 4.64516 16.5361 4.67742L18.1929 5.87097C18.2241 5.83871 18.2554 5.80645 18.3179 5.80645C18.3491 5.80645 18.3491 5.80645 18.3804 5.80645L19.0368 4.03226C18.568 3.93549 18.0991 3.87097 17.5989 3.87097L16.5361 4.51613C16.5674 4.51613 16.5674 4.54839 16.5674 4.58065Z" fill="black"/>
<path d="M15.5043 7.22579C15.5355 7.22579 15.5355 7.22579 15.5668 7.22579L16.317 4.74192C16.2545 4.70967 16.2232 4.64515 16.192 4.58063V4.54838L15.2855 4.32257C15.2542 4.35483 15.1917 4.35483 15.1604 4.38709C15.0354 4.4516 14.8791 4.51612 14.7541 4.58063C14.5665 4.67741 14.379 4.77418 14.1914 4.90321L15.473 7.29031C15.473 7.25805 15.473 7.22579 15.5043 7.22579Z" fill="black"/>
<path d="M18.4427 15.4838C18.4427 15.4193 18.474 15.3871 18.5053 15.3548L16.8485 13.2258C16.8173 13.2258 16.786 13.258 16.7548 13.258C16.7235 13.258 16.6922 13.258 16.661 13.258L15.9733 14.6451C16.1921 14.6451 16.4109 14.6774 16.6297 14.6774C16.3797 14.7096 16.1296 14.7742 15.8795 14.8064L15.4731 15.6451C15.5044 15.6774 15.5357 15.7096 15.5669 15.7742L18.4427 15.4838Z" fill="black"/>
<path d="M15.3791 15.6129C15.4104 15.6129 15.4416 15.6129 15.4729 15.6129L15.8792 14.8065C15.5041 14.871 15.0978 14.9677 14.7227 15.0645L15.2853 15.6452C15.3166 15.6452 15.3478 15.6452 15.3791 15.6129Z" fill="black"/>
<path d="M19.0993 6.70961L19.1931 6.6451H19.2243L18.4741 6.12897L19.0055 6.77413L19.0993 6.70961Z" fill="black"/>
<path d="M14.3791 18.5162L15.3168 16C15.2543 15.9678 15.2231 15.9033 15.2231 15.8387C15.2231 15.7742 15.2231 15.742 15.2543 15.7097L14.6604 15.0968C14.3478 15.1613 14.0665 15.2581 13.7852 15.3226L14.3166 18.5162C14.3478 18.5162 14.3791 18.5162 14.3791 18.5162Z" fill="black"/>
<path d="M14.1915 18.5806C14.2228 18.5484 14.254 18.5161 14.2853 18.5161L13.7539 15.3226C13.41 15.4193 13.0662 15.5161 12.7536 15.6129L12.0972 17.129C12.1597 17.1613 12.1909 17.2258 12.1909 17.2903C12.1909 17.3226 12.1909 17.3548 12.1597 17.3871L14.1915 18.5806Z" fill="black"/>
<path d="M13.5039 9.83869V10.8064C14.004 10.9355 14.4729 11.0645 14.9418 11.1935L13.5664 9.77417C13.5664 9.83869 13.5352 9.83869 13.5039 9.83869Z" fill="black"/>
<path d="M10.878 8.96765C10.8467 9.03217 10.8154 9.06443 10.7529 9.09668L10.9405 10.3225C11.7845 10.4515 12.6285 10.6128 13.4724 10.8386V9.87088C13.3787 9.87088 13.3162 9.7741 13.3162 9.67733V9.64507L10.878 8.96765Z" fill="black"/>
<path d="M11.9719 17.1291C12.0032 17.1291 12.0344 17.1291 12.0344 17.1291L12.6596 15.6452C12.1595 15.8065 11.6593 15.9678 11.1592 16.1613L11.8469 17.1291C11.9094 17.1291 11.9406 17.1291 11.9719 17.1291Z" fill="black"/>
<path d="M11.1281 16.1935C10.3779 16.4838 9.62765 16.8064 8.87744 17.1612L9.03374 18.387C9.09625 18.387 9.15877 18.4193 9.19003 18.4838L11.7533 17.3548V17.3225C11.7533 17.258 11.7845 17.1935 11.8158 17.1612L11.1281 16.1935Z" fill="black"/>
<path d="M8.09623 7.83875C8.06497 7.90326 8.03371 7.93552 7.97119 7.93552L8.12749 10C9.06525 10.0645 10.003 10.1291 10.9095 10.2904L10.722 9.09681C10.6282 9.09681 10.5344 9.03229 10.5344 8.90326C10.5344 8.871 10.5344 8.871 10.5344 8.83874L8.09623 7.83875Z" fill="black"/>
<path d="M12.6597 13.0968L13.3786 13.7097C13.4099 13.6774 13.4411 13.6452 13.5037 13.6452V12.7419C13.2223 12.871 12.941 12.9677 12.6597 13.0968Z" fill="black"/>
<path d="M12.8159 7.32257C12.8159 7.38709 12.7534 7.4516 12.7222 7.4516L13.4099 9.4516H13.4411C13.5036 9.4516 13.5349 9.4516 13.5662 9.48386L15.3479 7.54838C15.3166 7.51612 15.3166 7.48386 15.3166 7.4516L12.8159 7.32257Z" fill="black"/>
<path d="M14.2229 14.6452L13.5977 14C13.5664 14 13.5664 14.0323 13.5352 14.0323L13.6289 14.6452C13.8477 14.6452 14.0353 14.6452 14.2229 14.6452Z" fill="black"/>
<path d="M8.34627 17.4515C7.65857 17.8064 7.00214 18.1935 6.3457 18.5806L6.37696 19.0967C6.43948 19.0967 6.502 19.1612 6.53326 19.2257L8.87767 18.6451C8.87767 18.5806 8.90893 18.5161 8.94019 18.4838L8.34627 17.4515Z" fill="black"/>
<path d="M16.3482 20.4193C16.3794 20.4193 16.3794 20.4193 16.4107 20.4193C16.6608 19.7419 17.1297 18.5161 17.2547 18.0645C17.1922 18.0322 17.1297 17.9677 17.1297 17.9032C16.692 17.9677 15.4104 18.3548 14.5039 18.6774C14.5039 18.6774 14.5039 18.6774 14.5039 18.7096C14.5039 18.7419 14.5039 18.8064 14.4727 18.8387L16.2232 20.5161C16.2857 20.4516 16.3169 20.4193 16.3482 20.4193Z" fill="black"/>
<path d="M9.00262 18.4193L8.84632 17.1935C8.69003 17.258 8.53374 17.3548 8.37744 17.4193L9.00262 18.4193Z" fill="black"/>
<path d="M6.34532 19.0967L6.31406 18.6129C6.18903 18.6774 6.09525 18.7419 5.97021 18.8064L6.25154 19.0967C6.2828 19.0967 6.31406 19.0967 6.34532 19.0967Z" fill="black"/>
<path d="M21.881 5.38708C21.8497 5.38708 21.8185 5.38708 21.8185 5.38708L21.3809 6.4516C21.8185 6.38708 22.2561 6.32257 22.6625 6.22579H22.6937L21.9748 5.38708C21.9435 5.38708 21.9123 5.38708 21.881 5.38708Z" fill="black"/>
<path d="M13.1289 14.6774C13.2852 14.6774 13.4415 14.6452 13.5978 14.6452L13.504 14.0323C13.4728 14.0323 13.4415 14.0323 13.4102 14L13.1289 14.6774Z" fill="black"/>
<path d="M9.94028 14.5484C9.53391 14.8065 9.12755 15.0645 8.75244 15.3226C9.25258 15.1936 9.78398 15.0968 10.2841 15.0323L9.94028 14.5484Z" fill="black"/>
<path d="M13.0976 14.6774L13.4101 13.9999C13.3789 13.9677 13.3476 13.9354 13.3476 13.8709C13.3476 13.8386 13.3476 13.7741 13.3789 13.7419L12.6599 13.129C11.7534 13.5483 10.8469 13.9999 10.0029 14.5161L10.378 14.9999C11.222 14.8709 12.1598 14.7419 13.0976 14.6774Z" fill="black"/>
<path d="M11.5656 19.5807C11.5969 19.5807 11.5969 19.5807 11.5656 19.5807L11.9094 17.5161C11.8782 17.5161 11.8157 17.4839 11.7844 17.4194L9.22119 18.5484V18.5807C9.22119 18.6129 9.22119 18.6452 9.22119 18.6452L11.4093 19.6452C11.4718 19.6129 11.5031 19.5807 11.5656 19.5807Z" fill="black"/>
<path d="M4.43858 21.6129C4.46984 21.6129 4.53236 21.6129 4.56362 21.6451L6.25159 19.4193C6.22034 19.3871 6.18908 19.3548 6.18908 19.2903C6.18908 19.2258 6.18908 19.1935 6.22034 19.1613L5.93901 18.8387C5.28257 19.258 4.65739 19.6774 4.06348 20.1613L4.43858 21.6129C4.40732 21.6129 4.40732 21.6129 4.43858 21.6129Z" fill="black"/>
<path d="M5.68896 9.32258L5.75148 9.96774C6.03281 9.96774 6.3454 9.96774 6.62673 9.96774C7.09561 9.96774 7.59575 9.96774 8.06464 10L7.90834 7.93549C7.84582 7.93549 7.81456 7.90323 7.75205 7.87097L5.78274 9.06452C5.78274 9.09678 5.78274 9.09678 5.814 9.12903C5.84526 9.22581 5.75148 9.29032 5.68896 9.32258Z" fill="black"/>
<path d="M5.50142 8.99999C5.53268 8.96773 5.56394 8.96773 5.59519 8.96773H5.62645L5.84527 6.32257C5.81401 6.32257 5.75149 6.29031 5.72023 6.25806L3.93848 7.38709C3.93848 7.41934 3.93848 7.41935 3.96974 7.4516C3.96974 7.48386 3.96974 7.54838 3.93848 7.58063L5.50142 8.99999Z" fill="black"/>
<path d="M10.5655 6.5484C10.5342 6.61292 10.5029 6.64518 10.4404 6.64518L10.6905 8.70969C10.753 8.70969 10.7843 8.74195 10.8155 8.7742L12.4723 7.38711C12.4723 7.35485 12.441 7.32259 12.441 7.29034C12.441 7.25808 12.441 7.25808 12.441 7.22582L10.5655 6.5484Z" fill="black"/>
<path d="M7.09592 21.2903C7.09592 21.2258 7.12718 21.1612 7.1897 21.0967L6.43949 19.4516H6.40823C6.37697 19.4516 6.31445 19.4516 6.28319 19.4193L4.59521 21.6451C4.62647 21.6774 4.65773 21.7096 4.65773 21.7741L7.09592 21.2903Z" fill="black"/>
<path d="M13.6602 9.67749C13.6602 9.70975 13.6289 9.74201 13.6289 9.77426L15.0356 11.2581C15.5982 11.4194 16.1296 11.613 16.661 11.8065C16.3797 11.871 16.0671 11.9356 15.7858 12.0323L16.661 12.9355C16.6923 12.9033 16.7235 12.9033 16.7548 12.9033H16.786L17.2862 10.0968C17.2237 10.0646 17.1612 10.0001 17.1612 9.93555L13.6602 9.67749Z" fill="black"/>
<path d="M17.1609 17.8709C17.1609 17.8387 17.1922 17.8064 17.1922 17.7742L15.5355 15.9677C15.5042 16 15.4729 16 15.4417 16C15.4104 16 15.4104 16 15.3792 16L14.4414 18.5161C14.4727 18.5484 14.5039 18.5806 14.5352 18.6129C15.0666 18.4516 16.5983 17.9355 17.1609 17.8709Z" fill="black"/>
<path d="M9.22122 18.7097C9.18996 18.7742 9.12745 18.8064 9.06493 18.8064C9.03367 18.8064 9.00241 18.8064 8.97115 18.7742L7.37695 21.129C7.40821 21.1613 7.40821 21.1613 7.40821 21.1935L11.3781 19.8064V19.7742C11.3781 19.7419 11.3781 19.7097 11.3781 19.7097L9.22122 18.7097Z" fill="black"/>
<path d="M13.4727 21.0322C13.5039 20.9999 13.5352 20.9677 13.5977 20.9677C13.629 20.9677 13.629 20.9677 13.629 20.9677L14.2229 18.8709C14.1916 18.8386 14.1604 18.8064 14.1291 18.7741L11.7222 19.7096V19.7418C11.7222 19.7741 11.7222 19.8064 11.6909 19.8386L13.4727 21.0322Z" fill="black"/>
<path d="M18.2239 22.6128L16.4734 20.7741C16.4421 20.8064 16.4109 20.8064 16.3796 20.8064C16.2859 20.8064 16.2233 20.7419 16.1921 20.6774L13.8164 21.129C13.8164 21.1612 13.8164 21.1612 13.8164 21.1935L18.2239 22.6451V22.6128Z" fill="black"/>
<path d="M16.1921 20.6451C16.1921 20.6129 16.1921 20.5484 16.2234 20.5161L14.4729 18.8387C14.4416 18.8709 14.4104 18.8709 14.3791 18.8709C14.3478 18.8709 14.3478 18.8709 14.3478 18.8709L13.6914 20.9677C13.7539 21 13.7852 21.0322 13.7852 21.0967L16.1921 20.6451Z" fill="black"/>
<path d="M10.253 6.58069L8.09619 7.70972C8.09619 7.74198 8.09619 7.74198 8.09619 7.77424C8.09619 7.80649 8.09619 7.80649 8.09619 7.83875L10.5344 8.83875C10.5656 8.80649 10.5969 8.74198 10.6594 8.74198L10.4093 6.67746C10.3468 6.6452 10.2843 6.61295 10.253 6.58069Z" fill="black"/>
<path d="M12.6597 7.48383C12.5972 7.48383 12.5659 7.45157 12.5034 7.41931L10.8467 8.80641C10.8467 8.83866 10.8779 8.87092 10.8779 8.90318V8.93544L13.2849 9.5806C13.3161 9.54834 13.3474 9.48382 13.3786 9.48382L12.6597 7.48383C12.691 7.48383 12.6597 7.48383 12.6597 7.48383Z" fill="black"/>
<path d="M13.6915 13.7741L16.5985 13.0967C16.5985 13.0322 16.5985 12.9999 16.6298 12.9677L15.7545 12.0645C15.0043 12.258 14.2541 12.5161 13.5352 12.7741V13.6774C13.5977 13.6774 13.6602 13.7096 13.6915 13.7741Z" fill="black"/>
<path d="M14.973 14.6128C15.2856 14.6128 15.6295 14.6128 15.9421 14.6451L16.6298 13.2257C16.5985 13.1935 16.5672 13.1612 16.5672 13.129L13.6602 13.8064C13.6602 13.8709 13.6602 13.9032 13.6289 13.9354L14.2541 14.6128C14.5354 14.6451 14.7542 14.6128 14.973 14.6128Z" fill="black"/>
<path d="M18.4116 22.9032C18.3491 22.9032 18.2866 22.8709 18.2553 22.8387L16.6924 24C17.13 24.4838 17.7864 24.7096 18.3804 24.5484C18.4116 24.5484 18.4116 24.5484 18.4429 24.5161H18.4741C18.6929 24.4516 18.943 24.3871 19.1618 24.2903L18.4429 22.9032H18.4116Z" fill="black"/>
<path d="M7.25217 21.0967C7.28343 21.0967 7.31469 21.0967 7.34595 21.129L8.94015 18.7742C8.90889 18.7419 8.90889 18.7419 8.87763 18.7097L6.56448 19.258C6.56448 19.3226 6.53322 19.3871 6.4707 19.4516L7.22091 21.0967H7.25217Z" fill="black"/>
<path d="M6.09571 6.12897C6.09571 6.16123 6.09571 6.16123 6.06445 6.19348L7.78369 7.61284C7.81495 7.58058 7.84621 7.54832 7.90872 7.54832C7.97124 7.54832 8.03376 7.58058 8.06502 7.64509L10.2219 6.51606C10.2219 6.48381 10.2219 6.48381 10.2219 6.45155L6.09571 6.12897Z" fill="black"/>
<path d="M14.1604 18.742C14.1604 18.6774 14.1604 18.6452 14.1604 18.6129L12.1286 17.4194C12.0973 17.4516 12.0348 17.4839 12.0035 17.4839C12.0035 17.4839 12.0035 17.4839 11.9723 17.4839L11.6284 19.5484C11.6909 19.5484 11.7222 19.6129 11.7535 19.6452L14.1604 18.742Z" fill="black"/>
<path d="M5.93903 6.29029C5.90777 6.29029 5.90777 6.29029 5.93903 6.29029L5.72021 8.9677C5.75147 8.9677 5.78273 8.99996 5.81399 9.03222L7.7833 7.83867C7.7833 7.80641 7.7833 7.80641 7.75204 7.77415C7.75204 7.7419 7.75204 7.67738 7.7833 7.64512L6.06406 6.22577C6.00154 6.25803 5.97029 6.29029 5.93903 6.29029Z" fill="black"/>
<path d="M21.7876 5.38712C21.7563 5.35486 21.725 5.3226 21.6938 5.29034L18.5054 6.00002C18.5054 6.03228 18.5054 6.06454 18.4741 6.09679L19.2556 6.64518L19.2869 6.61292H19.3181L19.3806 6.58066L19.4744 6.54841L19.5994 6.51615L19.7245 6.48389H19.787H19.8808H19.9745C20.4122 6.48389 20.8498 6.48389 21.3187 6.41937L21.7876 5.38712Z" fill="black"/>
<path d="M16.3797 4.3871C16.4422 4.3871 16.5047 4.41936 16.536 4.45162L17.5363 3.87097C16.8173 3.87097 16.0671 4 15.3481 4.29033L16.1921 4.51613C16.2234 4.45162 16.2859 4.3871 16.3797 4.3871Z" fill="black"/>
<path d="M2.84455 24.871L0.500141 26.0968L0 29.9032C0.750212 28.8387 1.53168 27.8387 2.37567 26.9032L2.90707 24.9355C2.87581 24.9355 2.84455 24.9032 2.84455 24.871Z" fill="black"/>
<path d="M3.62619 7.45159C3.62619 7.35482 3.68871 7.25804 3.78248 7.25804V5.64514C3.59493 5.6774 3.40738 5.6774 3.21982 5.70966L2.87598 8.2903L3.68871 7.54836C3.65745 7.51611 3.62619 7.48385 3.62619 7.45159Z" fill="black"/>
<path d="M13.6288 21.3549C13.5662 21.3549 13.535 21.3226 13.4725 21.2903L12.4097 22.1613C12.8473 22.3549 13.2849 22.4839 13.7538 22.6129C13.8788 22.6452 14.0351 22.6774 14.1602 22.7097L13.6288 21.3549C13.66 21.3549 13.66 21.3549 13.6288 21.3549Z" fill="black"/>
<path d="M7.22091 21.4838L6.50195 23.1612C6.81454 22.9354 7.12713 22.7096 7.43972 22.5161L7.28342 21.4838C7.25216 21.4838 7.25217 21.4838 7.22091 21.4838Z" fill="black"/>
<path d="M10.378 6.25804C10.4406 6.25804 10.4718 6.2903 10.5343 6.32256L11.1595 5.80643C10.7532 5.74192 10.378 5.6774 9.97168 5.64514L10.3155 6.2903C10.3468 6.2903 10.378 6.25804 10.378 6.25804Z" fill="black"/>
<path d="M5.53306 9.29026C5.5018 9.258 5.47054 9.22574 5.47054 9.19348L2.6885 9.61284L2.59473 10.258C3.46997 10.129 4.34522 10.0644 5.25173 9.99993L5.53306 9.29026Z" fill="black"/>
<path d="M5.90786 5.90321C5.93911 5.90321 6.00163 5.90321 6.03289 5.93547L6.65807 5.4516C6.2517 5.4516 5.81408 5.4516 5.40771 5.48386L5.81408 5.93547C5.81408 5.93547 5.8766 5.90321 5.90786 5.90321Z" fill="black"/>
<path d="M1.62526 23.0967C1.62526 22.9999 1.68778 22.9032 1.81282 22.9032C1.81282 22.9032 1.81282 22.9032 1.84408 22.9032L2.00037 21.9354C1.62526 22.258 1.25016 22.5806 0.906312 22.9354L0.6875 24.5483L1.68778 23.2257C1.65652 23.1935 1.65652 23.129 1.62526 23.0967Z" fill="black"/>
<path d="M24.6006 4.1935L24.7881 4.51608C24.8194 4.51608 24.8194 4.51608 24.8507 4.48382C24.9444 4.48382 25.0382 4.54834 25.0382 4.64511V4.67737V4.70963L25.6009 4.83866C25.976 4.51608 26.1948 4.09672 26.2573 3.61285C25.7259 3.87092 25.1632 4.06447 24.6006 4.1935Z" fill="black"/>
<path d="M3.00113 24.9677H2.96987L2.46973 26.8387C2.93861 26.3226 3.43875 25.8065 3.93889 25.3226L3.12616 24.871C3.0949 24.9032 3.06364 24.9677 3.00113 24.9677Z" fill="black"/>
<path d="M11.5032 19.9355L10.6904 21.129C10.9092 21.2903 11.1281 21.4516 11.3469 21.5806L11.5657 19.9355C11.5344 19.9355 11.5032 19.9355 11.5032 19.9355Z" fill="black"/>
<path d="M25.0382 4.70971V4.67745V4.64519C25.0069 4.54842 24.9444 4.4839 24.8506 4.4839C24.8194 4.4839 24.8194 4.4839 24.7881 4.51616L24.6006 4.19358H24.5693L24.7568 4.51616C24.6943 4.54842 24.6631 4.61294 24.6943 4.67745L22.0686 5.16132C22.0686 5.12906 22.0373 5.09681 22.0061 5.06455L22.3187 4.51616C22.2874 4.51616 22.2874 4.51616 22.2561 4.51616L21.9436 5.03229C21.9123 5.03229 21.881 5.00003 21.8498 5.00003C21.8185 5.00003 21.7873 5.03229 21.756 5.03229L21.2246 4.45165C21.1933 4.45165 21.1933 4.45165 21.1621 4.45165L21.7247 5.06455C21.6935 5.09681 21.6935 5.16132 21.6935 5.19358L18.5051 5.90326C18.4738 5.871 18.4426 5.80648 18.4113 5.80648L19.0677 4.03229H19.0365L18.38 5.80648C18.3488 5.80648 18.3488 5.80648 18.3175 5.80648C18.255 5.80648 18.2238 5.83874 18.1925 5.871L16.5358 4.67745C16.567 4.64519 16.567 4.61294 16.567 4.58068C16.567 4.54842 16.567 4.54842 16.567 4.51616L17.6298 3.90326C17.5986 3.90326 17.5673 3.90326 17.5361 3.90326L16.5358 4.4839C16.5045 4.41939 16.442 4.38713 16.3795 4.41939C16.317 4.41939 16.2544 4.4839 16.2232 4.54842L15.3792 4.32261C15.3792 4.32261 15.3792 4.32261 15.3479 4.32261C15.3167 4.32261 15.3167 4.32261 15.2854 4.35487L16.1919 4.58068V4.61294C16.1919 4.67745 16.2544 4.74197 16.317 4.77423L15.5668 7.25809C15.5355 7.25809 15.5355 7.25809 15.5042 7.25809C15.473 7.25809 15.473 7.25809 15.4417 7.25809L14.1601 4.871C14.1601 4.871 14.1288 4.871 14.1288 4.90326L15.4105 7.29035C15.3792 7.32261 15.3479 7.35487 15.3479 7.41938L12.8472 7.29035C12.8472 7.22583 12.7847 7.16132 12.7222 7.12906L13.1286 5.70971C13.0973 5.74197 13.0973 5.74197 13.066 5.77422L12.6597 7.0968H12.6284C12.5659 7.0968 12.5034 7.16132 12.4721 7.19358L10.5653 6.51616C10.5653 6.4839 10.5653 6.4839 10.5653 6.45164C10.5653 6.41938 10.5653 6.38713 10.5341 6.35487L11.1905 5.80648C11.1593 5.80648 11.1593 5.80648 11.128 5.80648L10.5028 6.32261C10.4716 6.29035 10.409 6.25809 10.3465 6.25809C10.3153 6.25809 10.3153 6.25809 10.284 6.25809L9.94016 5.61293C9.90891 5.61293 9.90891 5.61293 9.87765 5.61293L10.2528 6.29035C10.2215 6.32261 10.1902 6.35487 10.1902 6.41938L6.06407 6.0968C6.06407 6.06455 6.03281 6.00003 6.03281 6.00003L6.68925 5.4839C6.65799 5.4839 6.62673 5.4839 6.62673 5.4839L6.00155 5.96777C5.97029 5.93551 5.93903 5.93551 5.87652 5.93551C5.84526 5.93551 5.814 5.96777 5.78274 5.96777L5.40764 5.4839C5.37638 5.4839 5.37638 5.4839 5.34512 5.4839L5.75148 5.96777C5.72022 6.00003 5.68896 6.06455 5.72022 6.0968C5.72022 6.12906 5.72022 6.12906 5.75148 6.16132L3.96973 7.29035C3.93847 7.25809 3.87595 7.22583 3.84469 7.22583V5.61293H3.81344V7.22583C3.71966 7.25809 3.65714 7.32261 3.65714 7.41938C3.65714 7.45164 3.65714 7.4839 3.6884 7.51616L2.87567 8.25809V8.32261L3.71966 7.54841C3.75092 7.58067 3.81344 7.61293 3.84469 7.58067C3.87595 7.58067 3.93847 7.54841 3.93847 7.54841L5.47015 9.00002C5.43889 9.03228 5.43889 9.06454 5.43889 9.12906L2.68812 9.54841V9.58067L5.47015 9.16131C5.47015 9.19357 5.50141 9.25809 5.53267 9.25809L5.25134 10L4.25106 12.4839L4.03225 13.0323C4.00099 13.0323 4.00099 13.0323 3.96973 13.0323C3.87595 13.0323 3.78218 13.1291 3.78218 13.2258L2.18798 13.4194V13.4516L3.78218 13.2581C3.78218 13.3226 3.81344 13.3549 3.87595 13.3871L3.06322 15.1936C3.03196 15.1936 3.00071 15.1936 2.96945 15.1936C2.90693 15.1936 2.87567 15.2258 2.84441 15.2581L2.03168 14.5161V14.5807L2.78189 15.2903C2.75064 15.3226 2.75064 15.3871 2.75064 15.4516C2.75064 15.4839 2.75064 15.5161 2.78189 15.5484L1.84413 16.1613V16.2258L2.81315 15.5807C2.84441 15.6129 2.87567 15.6452 2.93819 15.6774L2.75064 17L1.96916 21.9355L1.81287 22.9032C1.81287 22.9032 1.81287 22.9032 1.78161 22.9032C1.68784 22.9032 1.59406 23 1.59406 23.0968C1.59406 23.1613 1.62532 23.1936 1.65658 23.2258L0.656294 24.5484V24.6452L1.71909 23.2258C1.75035 23.2581 1.78161 23.2581 1.84413 23.2581C1.87539 23.2581 1.90665 23.2581 1.90665 23.2258L2.84441 24.6129C2.81315 24.6452 2.78189 24.7097 2.81315 24.7742C2.81315 24.8065 2.81315 24.8064 2.81315 24.8387L0.5 26.0645V26.129L2.84441 24.9032C2.87567 24.9355 2.90693 24.9677 2.93819 24.9677L2.40679 26.9355C2.43805 26.9032 2.43805 26.871 2.46931 26.871L2.96945 25H3.00071C3.06322 25 3.09448 24.9677 3.12574 24.9032L3.90721 25.3226L3.93847 25.2903L3.157 24.8387C3.157 24.8064 3.157 24.7742 3.157 24.7419C3.157 24.6774 3.12574 24.6129 3.06322 24.5806L4.34484 21.9677C4.37609 21.9677 4.40735 21.9677 4.43861 21.9677C4.53239 21.9677 4.59491 21.9032 4.62616 21.8065L7.09561 21.3226C7.09561 21.3548 7.12687 21.4194 7.18939 21.4194L6.43918 23.2258C6.47044 23.1936 6.47044 23.1936 6.50169 23.1613L7.22065 21.4839C7.25191 21.4839 7.25191 21.4839 7.28316 21.4839L7.43946 22.5161L7.47072 22.4839L7.31442 21.4516C7.4082 21.4194 7.47072 21.3548 7.43946 21.2581V21.2258L11.4093 19.8387C11.4093 19.871 11.4406 19.871 11.4406 19.9032L10.6279 21.129L10.6591 21.1613L11.4718 19.9677C11.4718 19.9677 11.5031 19.9677 11.5031 20L11.3468 21.6129L11.3781 21.6452L11.5969 19.9677C11.5969 19.9677 11.5969 19.9677 11.6281 19.9677C11.6907 19.9677 11.7219 19.9355 11.7532 19.9032L13.4724 21.0968C13.4724 21.129 13.4412 21.1613 13.4412 21.1936C13.4412 21.2258 13.4412 21.2581 13.4724 21.2903L12.3784 22.1936C12.3784 22.1936 12.4096 22.1936 12.4096 22.2258L13.4724 21.3548C13.5037 21.3871 13.5662 21.4194 13.6287 21.4194H13.66L14.1914 22.7742C14.2226 22.7742 14.2226 22.7742 14.2539 22.7742L13.7225 21.3871C13.7537 21.3548 13.785 21.3226 13.8163 21.2903L18.2238 22.7419C18.2238 22.7742 18.2238 22.7742 18.2238 22.8065C18.2238 22.8387 18.2238 22.871 18.255 22.871L16.6921 24.0323L16.7233 24.0645L18.2863 22.9032C18.3175 22.9355 18.38 22.9677 18.4426 22.9677C18.4738 22.9677 18.4738 22.9677 18.5051 22.9677L19.224 24.3871C19.224 24.3871 19.2553 24.3871 19.2553 24.3548L18.5363 22.9355C18.5676 22.9032 18.5989 22.8387 18.6301 22.7742L21.1621 22.6452L21.1933 22.6129L18.6301 22.7419C18.6301 22.6774 18.5676 22.6129 18.5051 22.5806L19.0677 20.2258H19.099C19.1615 20.2258 19.1928 20.1936 19.224 20.1613L21.5372 21.7742V21.7419L19.224 20.129C19.224 20.0968 19.2553 20.0645 19.2553 20.0323C19.2553 20 19.2553 19.9677 19.224 19.9677L20.9433 18.6774L20.912 18.6452L19.1928 19.9355C19.1615 19.9032 19.099 19.871 19.0365 19.871H19.0677L18.6614 15.7742C18.7239 15.7742 18.7552 15.7419 18.7864 15.6774L20.0993 16.3549C20.0993 16.3226 20.0993 16.3226 20.0993 16.2903L18.8177 15.6452C18.8177 15.6129 18.8177 15.5807 18.8177 15.5807C18.8177 15.4839 18.7552 15.4194 18.6926 15.4194L19.2553 12.4839H19.224C19.2553 12.4839 19.2553 12.4839 19.2866 12.4516L19.8805 13.4194C19.8805 13.3871 19.8805 13.3549 19.8805 13.3549L19.3178 12.4516L19.3491 12.4194L19.9117 12.7742C19.9117 12.742 19.9117 12.742 19.9117 12.7097L19.3491 12.2581C19.3491 12.2258 19.3803 12.1936 19.3803 12.1613C19.3803 12.1291 19.3491 12.0968 19.3491 12.0645L19.818 11.6129C19.818 11.5807 19.818 11.5807 19.818 11.5484L19.3178 12.0323C19.2866 12 19.224 12 19.1928 12C19.1615 12 19.1303 12 19.099 12.0323L17.4735 10C17.5048 9.96776 17.5048 9.93551 17.5361 9.90325H19.2866C19.2866 9.90325 19.2866 9.87099 19.2553 9.87099H17.5361C17.5361 9.80648 17.5048 9.77422 17.4735 9.74196C17.4735 9.74196 17.4423 9.7097 17.411 9.7097L18.3175 6.19358H18.3488C18.38 6.19358 18.4113 6.19358 18.4426 6.16132L18.974 6.80648L19.0052 6.77422L18.4738 6.12906L19.224 6.64519H19.2553H19.2866L18.5051 6.0968C18.5051 6.06455 18.5363 6.03229 18.5363 6.00003L21.7247 5.29035C21.7247 5.32261 21.756 5.38713 21.8185 5.38713L21.3184 6.45164C21.3496 6.45164 21.3496 6.45164 21.3809 6.45164L21.8185 5.38713C21.8498 5.38713 21.8498 5.38713 21.881 5.38713C21.9123 5.38713 21.9436 5.38713 21.9748 5.35487L22.6938 6.19358C22.725 6.19358 22.725 6.19358 22.7563 6.19358L22.0373 5.35487C22.0686 5.32261 22.0998 5.2581 22.0998 5.22584L24.6943 4.80648C24.7256 4.871 24.7568 4.90326 24.7881 4.90326L24.6318 5.4839C24.6631 5.4839 24.6631 5.45164 24.6943 5.45164L24.8506 4.90326H24.8819C24.9444 4.90326 25.0069 4.83874 25.0382 4.77423L25.5696 4.90326L25.6008 4.871L25.0382 4.70971ZM16.3482 4.77423C16.3795 4.77423 16.3795 4.77423 16.4107 4.77423C16.4733 4.77423 16.5045 4.74197 16.5358 4.70971L18.1925 5.90326C18.1612 5.93551 18.1612 5.96777 18.1612 6.00003C18.1612 6.03229 18.1612 6.03229 18.1612 6.06455L15.6918 7.32261C15.6605 7.29035 15.6293 7.25809 15.598 7.25809L16.3482 4.77423ZM18.8489 20L16.5358 20.5484C16.5045 20.5161 16.4733 20.4516 16.442 20.4516C16.6296 19.9677 17.1297 18.6129 17.286 18.0645H17.3172C17.3485 18.0645 17.3798 18.0645 17.411 18.0323L18.8802 19.8387C18.8802 19.9032 18.8489 19.9355 18.8489 20ZM13.8163 21.0968C13.785 21.0323 13.7537 21 13.7225 20.9677L14.3164 18.871H14.3477C14.3789 18.871 14.4414 18.8387 14.4414 18.8387L16.1919 20.5161C16.1607 20.5484 16.1607 20.5807 16.1607 20.6452L13.8163 21.0968ZM12.6597 7.4839C12.6597 7.4839 12.6909 7.4839 12.6597 7.4839L13.3786 9.48389C13.3474 9.51615 13.3161 9.54841 13.2849 9.58067L10.8779 8.93551V8.90325C10.8779 8.87099 10.8779 8.83873 10.8467 8.80648L12.5034 7.41938C12.5659 7.45164 12.5972 7.4839 12.6597 7.4839ZM15.3479 11.6129L15.7543 12.0323L16.6296 12.9355C16.5983 12.9678 16.567 13.0323 16.5983 13.0645L13.6912 13.742C13.66 13.6774 13.5974 13.6129 13.5349 13.6129V12.7097V11.7097V11.4194V10.7742V9.80647C13.5662 9.80647 13.5974 9.77422 13.6287 9.77422L15.0041 11.1936L15.3479 11.6129ZM16.3482 20.4194C16.317 20.4194 16.2544 20.4516 16.2544 20.4516L14.504 18.7742C14.5352 18.7419 14.5352 18.7097 14.5352 18.6452C14.5352 18.6452 14.5352 18.6452 14.5352 18.6129C15.4417 18.3226 16.6921 17.9032 17.161 17.8387C17.161 17.9032 17.2235 17.9678 17.286 18C17.161 18.4839 16.6921 19.7097 16.442 20.3548C16.4107 20.4194 16.3795 20.4194 16.3482 20.4194ZM6.37666 19.0968L6.3454 18.5807L6.15785 14.4194L6.12659 13.8065C6.15785 13.8065 6.15785 13.8065 6.18911 13.8065L6.47044 14.2581L8.34596 17.4516L8.93988 18.4516C8.87737 18.4839 8.87737 18.5484 8.87737 18.6129L6.53295 19.1936C6.53295 19.129 6.47044 19.0968 6.37666 19.0968ZM8.09589 7.83874L10.5341 8.83873C10.5341 8.87099 10.5341 8.87099 10.5341 8.90325C10.5341 9.00002 10.6279 9.0968 10.7216 9.0968L10.9092 10.2903L11.0655 11.4194L11.0967 11.6129C11.003 11.6452 10.9717 11.7097 10.9717 11.8065L8.43974 12.1291C8.40848 12.0323 8.34596 12 8.25219 11.9678L8.22093 11.6129L8.09589 10L7.9396 7.93551C8.00212 7.93551 8.06464 7.90325 8.09589 7.83874ZM13.4412 9.83873V10.8065V11.4516V11.742V12.7742V13.6774C13.4099 13.6774 13.3474 13.7097 13.3161 13.742L12.5972 13.1291L11.4718 12.1613L11.2843 11.9355C11.3156 11.9032 11.3156 11.871 11.3156 11.8065C11.3156 11.7097 11.2218 11.6129 11.128 11.6129L11.0967 11.4194L10.9404 10.2903L10.7529 9.06454C10.8154 9.03228 10.8467 9.00002 10.8779 8.93551L13.2849 9.58067V9.61293C13.2849 9.77422 13.3786 9.83873 13.4412 9.83873ZM15.3167 16L14.3789 18.5161C14.3477 18.5161 14.3477 18.5161 14.3164 18.5161L13.785 15.3226L13.66 14.6452L13.5662 14.0323C13.5974 14.0323 13.5974 14 13.6287 14L14.2539 14.6452L14.6915 15.0968L15.2854 15.7097C15.2542 15.7419 15.2542 15.8065 15.2542 15.8387C15.2229 15.9032 15.2542 15.9678 15.3167 16ZM11.972 17.129C11.9407 17.129 11.9095 17.129 11.8782 17.1613L11.1905 16.1936L10.3153 15L9.97142 14.5161L8.90862 13.0323L8.40848 12.3226C8.43974 12.2903 8.471 12.2258 8.471 12.1936L11.003 11.871C11.0342 11.9678 11.0967 12.0323 11.1905 12.0323C11.2218 12.0323 11.2843 12 11.3156 11.9678L11.5344 12.1613L12.6597 13.1291L13.3786 13.742C13.3474 13.7742 13.3474 13.8065 13.3474 13.871C13.3474 13.9355 13.3786 13.9678 13.4099 14L13.0973 14.6774L12.6909 15.6452L12.0658 17.129C12.0032 17.129 12.0032 17.129 11.972 17.129ZM8.25219 12.3871L8.37722 13.2581L8.87737 17.1936L9.03366 18.4194H9.0024L8.40848 17.4194L6.53295 14.2258L6.25162 13.742C6.31414 13.7097 6.31414 13.6452 6.31414 13.5807C6.31414 13.5484 6.31414 13.5161 6.28288 13.5161L8.09589 12.3226C8.12715 12.3549 8.18967 12.3871 8.25219 12.3871ZM9.06492 18.4194L8.90862 17.1936L8.40848 13.2581L8.28345 12.3871C8.31471 12.3871 8.31471 12.3871 8.34596 12.3549L8.84611 13.0323L9.94016 14.5161L10.284 15L11.1593 16.1936L11.8782 17.1613C11.847 17.1936 11.8157 17.2581 11.8157 17.3226V17.3548L9.25247 18.4839C9.18995 18.4516 9.12744 18.4194 9.06492 18.4194ZM12.0658 17.129L12.7222 15.6129L13.1286 14.6774L13.4099 14C13.4412 14 13.4724 14.0323 13.5037 14.0323L13.5974 14.6452L13.7225 15.3226L14.2539 18.5161C14.2226 18.5161 14.1914 18.5484 14.1601 18.5807L12.1283 17.3871C12.1283 17.3549 12.1595 17.3226 12.1595 17.2903C12.1595 17.2258 12.1283 17.1613 12.0658 17.129ZM17.161 17.871C16.5983 17.9355 15.0666 18.4516 14.5352 18.6452C14.504 18.6129 14.504 18.5807 14.4414 18.5484L15.3792 16.0323C15.4105 16.0323 15.4105 16.0323 15.4417 16.0323C15.473 16.0323 15.5042 16 15.5355 16L17.1922 17.8065C17.161 17.8065 17.161 17.8065 17.161 17.871ZM15.3792 15.6129C15.3479 15.6129 15.3167 15.6452 15.2854 15.6452L14.7228 15.0645L14.2851 14.6129L13.66 13.9355C13.6912 13.9032 13.6912 13.8387 13.6912 13.8065L16.5983 13.1291C16.5983 13.1613 16.6296 13.1936 16.6608 13.2258L15.9731 14.6452L15.8793 14.8387L15.473 15.6452C15.4417 15.6452 15.4105 15.6129 15.3792 15.6129ZM10.5341 8.80648L8.09589 7.80648C8.09589 7.77422 8.09589 7.77422 8.09589 7.74196C8.09589 7.7097 8.09589 7.7097 8.09589 7.67745L10.2528 6.54842C10.284 6.61293 10.3465 6.64519 10.409 6.64519L10.6591 8.7097C10.5966 8.7097 10.5653 8.74196 10.5341 8.80648ZM10.2215 6.51616L8.06464 7.64519C8.03338 7.58067 7.97086 7.54841 7.90834 7.54841C7.87708 7.54841 7.81456 7.58067 7.78331 7.61293L6.06407 6.19358C6.06407 6.16132 6.09533 6.16132 6.09533 6.12906L10.2215 6.45164C10.2215 6.4839 10.2215 6.51616 10.2215 6.51616ZM5.93904 6.29035C5.97029 6.29035 6.03281 6.25809 6.06407 6.22584L7.78331 7.64519C7.75205 7.67745 7.75205 7.7097 7.75205 7.77422C7.75205 7.80648 7.75205 7.80648 7.78331 7.83874L5.78274 9.03228C5.75148 9.00002 5.72022 8.96777 5.68896 8.96777L5.93904 6.29035C5.90778 6.29035 5.90778 6.29035 5.93904 6.29035ZM5.814 9.12906C5.814 9.0968 5.814 9.0968 5.78274 9.06454L7.75205 7.87099C7.78331 7.90325 7.84582 7.93551 7.90834 7.93551L8.06464 10L8.18967 11.6452L8.22093 12C8.12715 12.0323 8.06464 12.0968 8.06464 12.1936C8.06464 12.2258 8.06464 12.2581 8.09589 12.2581L6.28288 13.4516C6.25162 13.4194 6.18911 13.3871 6.12659 13.3871L5.97029 12.0323L5.75148 9.96776L5.68896 9.3226C5.75148 9.29035 5.84526 9.22583 5.814 9.12906ZM6.12659 13.8065L6.15785 14.4516L6.3454 18.6129L6.37666 19.0968C6.3454 19.0968 6.31414 19.129 6.28288 19.129L6.00155 18.8387L3.65714 16.1936L3.12574 15.5807C3.157 15.5484 3.18826 15.4839 3.18826 15.4194C3.18826 15.3871 3.18826 15.3549 3.157 15.3549L5.97029 13.742C6.00155 13.7742 6.06407 13.7742 6.12659 13.8065ZM3.09448 15.6129L3.62588 16.1936L5.97029 18.8387L6.25162 19.1613C6.22036 19.1936 6.18911 19.2581 6.22036 19.2903C6.22036 19.3226 6.25162 19.3871 6.28288 19.4194L4.59491 21.6452C4.50113 21.6129 4.46987 21.6129 4.43861 21.6129L4.09476 20.1613L3.25078 16.5161L3.06322 15.6452L3.09448 15.6129ZM4.56365 21.6774L6.25162 19.4516C6.28288 19.4839 6.31414 19.4839 6.37666 19.4839H6.40792L7.15813 21.129C7.09561 21.1613 7.06435 21.2258 7.06435 21.3226L4.59491 21.8065C4.62616 21.7419 4.59491 21.7097 4.56365 21.6774ZM7.25191 21.0968H7.22065L6.47044 19.4516C6.53295 19.4194 6.56421 19.3548 6.56421 19.2581L8.90862 18.6774C8.90862 18.7097 8.93988 18.7419 8.97114 18.7419L7.37694 21.0968C7.31442 21.0968 7.28316 21.0968 7.25191 21.0968ZM9.25247 18.5484L11.8157 17.4194C11.847 17.4516 11.8782 17.4839 11.9407 17.5161L11.5969 19.5807C11.5969 19.5807 11.5969 19.5807 11.5656 19.5807C11.5031 19.5807 11.4406 19.6129 11.4093 19.6774L9.22121 18.6774C9.22121 18.6452 9.22121 18.6452 9.22121 18.6129C9.25247 18.5807 9.25247 18.5484 9.25247 18.5484ZM11.6281 19.5807L11.972 17.5161C11.972 17.5161 11.972 17.5161 12.0032 17.5161C12.0658 17.5161 12.097 17.4839 12.1283 17.4516L14.1601 18.6452C14.1601 18.6774 14.1288 18.7097 14.1601 18.7419V18.7742L11.7532 19.6774C11.7219 19.6129 11.6907 19.5807 11.6281 19.5807ZM17.3172 17.7097C17.286 17.7097 17.2547 17.7419 17.2235 17.7419L15.5668 15.9355C15.598 15.9032 15.598 15.871 15.598 15.8065L18.4426 15.5161C18.4426 15.5484 18.4738 15.6129 18.5051 15.6452L17.3798 17.7097C17.3798 17.7097 17.3485 17.7097 17.3172 17.7097ZM18.4426 15.4839L15.598 15.7742C15.598 15.7097 15.5668 15.6774 15.5042 15.6452L15.9106 14.8065L16.0044 14.6452L16.6921 13.2581C16.7233 13.2581 16.7546 13.2581 16.7858 13.2581C16.8171 13.2581 16.8484 13.2581 16.8796 13.2258L18.5051 15.3549C18.4426 15.3871 18.4426 15.4516 18.4426 15.4839ZM16.7546 12.871C16.7233 12.871 16.6921 12.9032 16.6608 12.9032L15.7856 12L15.4105 11.6129L15.0354 11.2258L13.6287 9.74196C13.66 9.7097 13.66 9.67744 13.66 9.64518L17.161 9.83873C17.161 9.93551 17.2235 10 17.286 10L16.7546 12.871ZM17.161 9.83873L13.66 9.64518C13.66 9.61293 13.6287 9.58067 13.6287 9.54841L15.4105 7.61293C15.4417 7.64519 15.5042 7.64519 15.5355 7.64519C15.5668 7.64519 15.598 7.64519 15.6293 7.61293L17.2235 9.74196C17.1922 9.77422 17.161 9.80648 17.161 9.83873ZM15.3167 7.45164C15.3167 7.4839 15.3479 7.54841 15.3479 7.54841L13.5662 9.48389C13.5349 9.45164 13.4724 9.45164 13.4412 9.45164H13.4099L12.7222 7.45164C12.7847 7.41938 12.816 7.38712 12.816 7.32261L15.3167 7.45164ZM12.4721 7.22583C12.4721 7.25809 12.4721 7.25809 12.4721 7.29035C12.4721 7.32261 12.4721 7.35487 12.5034 7.38712L10.8467 8.77422C10.7842 8.7097 10.7529 8.7097 10.6904 8.7097L10.4403 6.64519C10.5028 6.64519 10.5341 6.58067 10.5653 6.54842L12.4721 7.22583ZM3.96973 7.54841C4.00099 7.51616 4.00099 7.4839 4.00099 7.41938C4.00099 7.38712 4.00099 7.38712 3.96973 7.35487L5.75148 6.22584C5.78274 6.25809 5.814 6.29035 5.87652 6.29035L5.65771 8.93551H5.62645C5.59519 8.93551 5.53267 8.96777 5.53267 8.96777L3.96973 7.54841ZM4.28232 12.4516L5.2826 10L5.56393 9.3226C5.59519 9.3226 5.59519 9.3226 5.62645 9.3226L5.68896 9.96776L5.90778 12.0323L6.06407 13.3871C6.00155 13.4194 5.93904 13.4516 5.93904 13.5161L4.12602 13.1936C4.12602 13.1936 4.12602 13.1936 4.12602 13.1613C4.12602 13.0968 4.09476 13.0323 4.03225 13L4.28232 12.4516ZM3.87595 13.4194C3.90721 13.4194 3.90721 13.4194 3.93847 13.4194C4.03225 13.4194 4.09476 13.3549 4.09476 13.2903L5.90778 13.6129C5.90778 13.6129 5.90778 13.6129 5.90778 13.6452C5.90778 13.6774 5.90778 13.6774 5.90778 13.7097L3.09448 15.3226C3.06322 15.2903 3.06322 15.2581 3.03196 15.2581L3.87595 13.4194ZM2.03168 21.871L2.78189 16.9032L2.96945 15.6452C2.96945 15.6452 2.96945 15.6452 3.00071 15.6452L3.21952 16.5484L4.06351 20.1936L4.37609 21.6129C4.31358 21.6452 4.25106 21.7097 4.25106 21.8065C4.25106 21.8387 4.25106 21.871 4.28232 21.9032L2.00042 22.9677C1.96916 22.9355 1.93791 22.9032 1.87539 22.9032L2.03168 21.871ZM3.06322 24.5806C3.03196 24.5806 3.00071 24.5806 2.96945 24.5806C2.93819 24.5806 2.90693 24.5806 2.90693 24.6129L1.96916 23.2258C2.00042 23.1936 2.03168 23.129 2.03168 23.0645V23.0323L4.34484 21.9677L4.37609 22L3.06322 24.5806ZM7.43946 21.1936C7.43946 21.1613 7.4082 21.1613 7.4082 21.129L9.0024 18.7742C9.03366 18.8065 9.06492 18.8065 9.09618 18.8065C9.15869 18.8065 9.22121 18.7742 9.25247 18.7097L11.4406 19.7097C11.4406 19.7419 11.4406 19.7419 11.4406 19.7742V19.8065L7.43946 21.1936ZM11.7532 19.8387C11.7532 19.8065 11.7844 19.7742 11.7844 19.7419V19.7097L14.1914 18.7742C14.2226 18.8065 14.2539 18.8387 14.2851 18.871L13.66 20.9677H13.6287C13.5662 20.9677 13.5349 21 13.5037 21.0323L11.7532 19.8387ZM13.8163 21.1936C13.8163 21.1613 13.8163 21.1613 13.8163 21.129L16.1919 20.6774C16.2232 20.7742 16.2857 20.8065 16.3795 20.8065C16.4107 20.8065 16.442 20.7742 16.4733 20.7742L18.2238 22.6129L18.1925 22.6452L13.8163 21.1936ZM18.4113 22.5484H18.38C18.3488 22.5484 18.3175 22.5806 18.2863 22.5806L16.5358 20.7419C16.567 20.7097 16.567 20.6452 16.567 20.6129L18.8802 20.0645C18.9114 20.129 18.9427 20.1613 19.0052 20.1936L18.4113 22.5484ZM19.0052 19.8065C19.0052 19.8065 18.974 19.8065 18.9427 19.8387L17.4735 18.0323C17.5048 18 17.5361 17.9355 17.5361 17.871C17.5361 17.8065 17.5048 17.7742 17.4735 17.7419L18.5989 15.6774C18.6301 15.6774 18.6301 15.6774 18.6614 15.6774L19.0052 19.8065ZM18.6301 15.3226C18.6301 15.2903 18.6301 15.2903 18.6301 15.3226C18.5676 15.3226 18.5363 15.3226 18.5051 15.3549L16.8796 13.2258C16.9109 13.1936 16.9421 13.1291 16.9421 13.0645V13.0323L19.0052 12.2581C19.0365 12.3226 19.099 12.3549 19.1615 12.3549L18.6301 15.3226ZM19.0677 12.0323C19.0365 12.0645 19.0052 12.1291 19.0052 12.1936V12.2258L16.9421 13C16.9109 12.9678 16.8796 12.9032 16.8171 12.9032L17.3172 10.0968H17.3485C17.3798 10.0968 17.411 10.0968 17.4423 10.0645L19.0677 12.0323ZM17.3485 9.67744H17.3172C17.286 9.67744 17.2547 9.67744 17.2235 9.7097L15.6293 7.58067C15.6605 7.54841 15.6918 7.4839 15.6918 7.41938C15.6918 7.38712 15.6918 7.38712 15.6918 7.35487L18.1612 6.0968C18.1925 6.12906 18.2238 6.16132 18.255 6.16132L17.3485 9.67744Z" fill="#E4AF21"/>
<path d="M11.9407 11.4193C13.2223 11.4193 14.504 11.5161 15.7543 11.6774C16.0669 11.7096 16.3482 11.7742 16.6608 11.8064C13.5349 10.6129 10.159 9.96771 6.62673 9.96771C5.25134 9.96771 3.90721 10.0645 2.59434 10.258L2.21924 13.129C5.25134 12 8.53352 11.4193 11.9407 11.4193Z" fill="#E4AF21"/>
<path d="M15.0038 11.5806C9.72105 11.9031 5.21978 14.4838 1.5625 17.9999C3.81314 16.8064 6.18881 15.9031 8.72077 15.3225C11.0652 13.6451 13.7534 12.4193 16.6293 11.8064C16.3479 11.7419 16.0353 11.7096 15.7227 11.6773C15.5039 11.6451 15.2539 11.6128 15.0038 11.5806Z" fill="#E4AF21"/>
<path d="M15.0038 11.5806C9.72105 11.9031 5.21978 14.4838 1.5625 17.9999C3.81314 16.8064 6.18881 15.9031 8.72077 15.3225C11.0652 13.6451 13.7534 12.4193 16.6293 11.8064C16.3479 11.7419 16.0353 11.7096 15.7227 11.6773C15.5039 11.6451 15.2539 11.6128 15.0038 11.5806Z" fill="url(#paint0_linear)"/>
<path d="M15.0038 11.5806C9.72105 11.9031 5.21978 14.4838 1.5625 17.9999C3.81314 16.8064 6.18881 15.9031 8.72077 15.3225C11.0652 13.6451 13.7534 12.4193 16.6293 11.8064C16.3479 11.7419 16.0353 11.7096 15.7227 11.6773C15.5039 11.6451 15.2539 11.6128 15.0038 11.5806Z" fill="url(#paint1_linear)"/>
<path d="M14.9727 14.6128C12.8159 14.6128 10.7528 14.8386 8.72096 15.2902C6.18899 15.8709 3.78206 16.7741 1.56269 17.9676L0.90625 22.9354C1.68772 22.1289 2.53171 21.3547 3.40696 20.645C7.18927 17.5805 11.7218 15.4838 16.6607 14.6451C16.1293 14.6451 15.5666 14.6128 14.9727 14.6128Z" fill="#E4AF21"/>
<defs>
<linearGradient id="paint0_linear" x1="16.6606" y1="14.7858" x2="1.57357" y2="14.7858" gradientUnits="userSpaceOnUse">
<stop stop-color="#E4AF21" stop-opacity="0"/>
<stop offset="0.3227" stop-color="#C69318" stop-opacity="0.2904"/>
<stop offset="1" stop-color="#895A07" stop-opacity="0.9"/>
</linearGradient>
<linearGradient id="paint1_linear" x1="1.57357" y1="14.7858" x2="16.6606" y2="14.7858" gradientUnits="userSpaceOnUse">
<stop stop-color="#E4AF21" stop-opacity="0"/>
<stop offset="0.3227" stop-color="#C69318" stop-opacity="0.2904"/>
<stop offset="1" stop-color="#895A07" stop-opacity="0.9"/>
</linearGradient>
</defs>
</svg>
