<?xml version="1.0" encoding="UTF-8" standalone="no"?>
<svg width="80px" height="80px" viewBox="0 0 80 80" version="1.1" xmlns="http://www.w3.org/2000/svg" xmlns:xlink="http://www.w3.org/1999/xlink">
    <!-- Generator: Sketch 46.2 (44496) - http://www.bohemiancoding.com/sketch -->
    <title>copylink</title>
    <desc>Created with Sketch.</desc>
    <defs></defs>
    <g id="UI" stroke="none" stroke-width="1" fill="none" fill-rule="evenodd">
        <g id="04" transform="translate(-610.000000, -811.000000)">
            <g id="copylink" transform="translate(610.000000, 811.000000)">
                <circle id="Oval-2-Copy-6" fill="#8C9DAA" cx="40" cy="40" r="40"></circle>
                <g id="link-symbol" transform="translate(20.000000, 20.000000)" stroke="#8C9DAA" fill-rule="nonzero" fill="#FFFFFF">
                    <path d="M36.8132751,18.0850655 L29.320262,25.5756332 C25.1847162,29.7136245 18.4758079,29.7136245 14.3395633,25.5756332 C13.6880349,24.9259389 13.1783406,24.1938865 12.7307424,23.438952 L16.2123144,19.9576419 C16.3778166,19.7907424 16.5821834,19.6951092 16.7774672,19.5824454 C17.0181659,20.4048035 17.4383406,21.1833188 18.0850655,21.830131 C20.150393,23.8971179 23.5110917,23.8942358 25.5751965,21.830131 L33.0658515,14.339738 C35.1327511,12.2730131 35.1327511,8.91310044 33.0658515,6.8479476 C31.0016594,4.78279476 27.6418341,4.78279476 25.5751965,6.8479476 L22.9115284,9.51449782 C20.7499563,8.67283843 18.4211354,8.44655022 16.1540611,8.77877729 L21.830131,3.1028821 C25.9681223,-1.03432314 32.6752838,-1.03432314 36.8132751,3.1028821 C40.9492576,7.23991266 40.9492576,13.9481223 36.8132751,18.0850655 Z M17.0050655,30.4020961 L14.339476,33.0686463 C12.2743231,35.1327511 8.91344978,35.1327511 6.8479476,33.0686463 C4.78262009,31.0016594 4.78262009,27.6417467 6.8479476,25.5756332 L14.339476,18.0850655 C16.4062882,16.0185153 19.7648908,16.0185153 21.8300437,18.0850655 C22.4752838,18.7304803 22.8958952,19.508821 23.1388646,20.330131 C23.3352838,20.2159825 23.5371179,20.1232314 23.7025328,19.9575546 L27.1838428,16.4776419 C26.7391266,15.719738 26.2268122,14.9903057 25.5750218,14.3399127 C21.4398253,10.2027074 14.7303057,10.2027074 10.5931004,14.3399127 L3.10270742,21.8305677 C-1.03406114,25.9689956 -1.03406114,32.6752838 3.10270742,36.8133624 C7.23991266,40.9492576 13.9478603,40.9492576 18.0849782,36.8133624 L23.7625328,31.1362445 C21.4942358,31.470393 19.1648035,31.2421834 17.0050655,30.4020961 Z" id="Shape"></path>
                </g>
            </g>
        </g>
    </g>
</svg>