<?xml version="1.0" encoding="UTF-8" standalone="no"?>
<svg width="80px" height="80px" viewBox="0 0 80 80" version="1.1" xmlns="http://www.w3.org/2000/svg" xmlns:xlink="http://www.w3.org/1999/xlink">
    <!-- Generator: Sketch 46.2 (44496) - http://www.bohemiancoding.com/sketch -->
    <title>SMS</title>
    <desc>Created with Sketch.</desc>
    <defs></defs>
    <g id="UI" stroke="none" stroke-width="1" fill="none" fill-rule="evenodd">
        <g id="04" transform="translate(-494.000000, -811.000000)">
            <g id="SMS" transform="translate(494.000000, 811.000000)">
                <circle id="Oval-2-Copy-6" fill="#4DB520" cx="40" cy="40" r="40"></circle>
                <g id="Page-1" transform="translate(17.600000, 17.600000)" fill="#FFFFFF">
                    <path d="M22.4003396,0 C10.0303056,0 0,10.0285229 0,22.3996604 C0,34.7714771 10.0291171,44.8 22.4003396,44.8 L44.8,44.8 L36.4279287,39.8578098 C41.5309847,35.7519525 44.8,29.4591681 44.8,22.3996604 C44.8,10.028438 34.7714771,0 22.4003396,0 M22.4003396,2.16570458 C25.1329372,2.16570458 27.7825976,2.70033956 30.2757216,3.75483871 C32.6848896,4.77385399 34.8490662,6.23302207 36.7079796,8.09202037 C38.566893,9.95093379 40.026146,12.1151104 41.0451613,14.5242784 C42.0996604,17.0174024 42.6343803,19.6671477 42.6343803,22.3996604 C42.6343803,25.5171477 41.9442275,28.5060272 40.5830221,31.2831919 C39.2848896,33.9316638 37.3786927,36.3132428 35.0703735,38.1704584 L32.632343,40.1320883 L35.3269949,41.7228353 L36.8711375,42.6343803 L22.4003396,42.6343803 C19.6677419,42.6343803 17.0179966,42.0997453 14.5247878,41.0451613 C12.1155348,40.026146 9.95127334,38.566893 8.09227504,36.7078947 C6.23327674,34.8488964 4.77393888,32.6847199 3.7549236,30.2754669 C2.70033956,27.7821732 2.16561969,25.1324278 2.16561969,22.3997453 C2.16561969,19.6672326 2.70033956,17.017657 3.75500849,14.5244482 C4.77410866,12.1152801 6.23353141,9.95118846 8.0926146,8.09219015 C9.95169779,6.23319185 12.1159593,4.77393888 14.5252122,3.7549236 C17.0185059,2.70033956 19.6679966,2.16570458 22.4003396,2.16570458" id="Fill-1"></path>
                    <path d="M15.7265087,26.8015417 C15.5438713,27.209233 15.3006365,27.5604813 14.998241,27.8540876 C14.6945778,28.1476939 14.3424874,28.3788617 13.943322,28.5474198 C13.5428888,28.7159779 13.1231017,28.8 12.6838761,28.8 C12.2967118,28.8 11.9556084,28.7528072 11.6615799,28.6571367 C11.3663682,28.5621515 11.0917783,28.4468674 10.8400919,28.3107704 C10.6622719,28.2237506 10.5303436,28.1513768 10.440842,28.0943343 C10.3525236,28.0372918 10.2496685,27.9704852 10.1310937,27.8945142 C9.96535932,27.7859963 9.85041861,27.6756798 9.78990571,27.5640786 C9.72702638,27.4524774 9.69676993,27.3341955 9.69676993,27.2091474 C9.69676993,27.07365 9.74756358,26.924106 9.8492354,26.76043 L9.89766263,26.6788917 C10.0645802,26.4177466 10.2787418,26.2878164 10.5425138,26.2878164 C10.7034308,26.2878164 10.8449938,26.3282429 10.968386,26.4097812 L11.6931041,26.8910454 C11.8492037,26.9946812 12.0028524,27.0737356 12.1565011,27.1276947 C12.3089665,27.1822534 12.4843356,27.209233 12.6839606,27.209233 C12.9029395,27.209233 13.1121992,27.164524 13.3118242,27.0750203 C13.510266,26.9849171 13.6832686,26.8653505 13.8308322,26.7158066 C13.9783958,26.5662627 14.0933365,26.3884545 14.1768375,26.181868 C14.2603386,25.974682 14.301413,25.7601302 14.301413,25.5369278 C14.301413,25.080245 14.1344954,24.6860862 13.801759,24.354366 C13.7267095,24.2777097 13.6372078,24.2060212 13.5331696,24.1379299 C13.4279481,24.0699242 13.2331405,23.9571239 12.9488313,23.7995289 L11.725727,23.1300929 C11.3978924,22.945604 11.1716451,22.8137896 11.045802,22.7346495 C10.9187756,22.655595 10.8050181,22.5703739 10.7034308,22.4777868 C10.3537913,22.1786133 10.082751,21.8182005 9.89039432,21.3970622 C9.69685445,20.9753244 9.6,20.5308895 9.6,20.0631579 C9.6,19.6058756 9.68831841,19.1766862 9.86613845,18.7739626 C10.0427753,18.3718385 10.2786573,18.0260717 10.5738689,17.737947 C10.8690806,17.4498223 11.212635,17.2211383 11.6046166,17.0525802 C11.9965983,16.8840221 12.4042997,16.8 12.827721,16.8 C13.2148852,16.8 13.5572564,16.8471928 13.8548345,16.9422637 C14.1524126,17.0379341 14.4270871,17.1531326 14.6799567,17.2892296 C14.8565935,17.3762494 14.9884373,17.4467389 15.0743892,17.5012976 C15.1602567,17.5558563 15.264295,17.6238619 15.3877717,17.7054002 C15.5546893,17.813918 15.6672636,17.9242345 15.7265087,18.0358357 C15.7857539,18.1474369 15.8148271,18.2657188 15.8148271,18.390767 C15.8148271,18.5213824 15.7663999,18.6709263 15.66963,18.8394844 L15.6212028,18.9210227 C15.4554684,19.1766862 15.2401236,19.3041326 14.9776193,19.3041326 C14.8107017,19.3041326 14.6666878,19.2661042 14.5432956,19.1901332 C14.4888678,19.157672 14.3993661,19.0963471 14.273523,19.0062438 C14.1464966,18.9167402 13.9952988,18.8174725 13.818662,18.7089546 C13.6686475,18.6053188 13.5149988,18.5262644 13.3601669,18.4723053 C13.2040673,18.4177466 13.0262473,18.390767 12.8278055,18.390767 C12.6185458,18.390767 12.4249214,18.4342769 12.2446505,18.5213824 C12.0643795,18.6084022 11.9034625,18.7248854 11.7618995,18.8720312 C11.6191533,19.0185774 11.5066635,19.1889341 11.4231625,19.3820736 C11.3396614,19.5752131 11.298587,19.7829986 11.298587,20.0061154 C11.298587,20.2286326 11.3457465,20.4328209 11.44015,20.6179093 C11.5332858,20.8023982 11.6554948,20.9740397 11.8055093,21.1316346 C11.8539366,21.1751445 11.9216333,21.2266198 12.0075852,21.2867457 C12.0934527,21.346786 12.280992,21.4553038 12.5701186,21.6128988 L13.6891847,22.2332577 C14.0170193,22.4233138 14.2638037,22.5673761 14.4296226,22.6654447 C14.5965402,22.7635133 14.7284684,22.8585842 14.8252384,22.9510856 C15.1894145,23.2607083 15.4760901,23.6364524 15.6854343,24.0766049 C15.8947785,24.5173569 16,24.9875723 16,25.487765 C15.9999155,25.9555822 15.9091461,26.3938504 15.7265087,26.8015417" id="Fill-3"></path>
                    <path d="M25.5999167,28.0210598 C25.5999167,28.2412009 25.5283401,28.425778 25.3851868,28.5753245 C25.2432834,28.7254935 25.0678832,28.8 24.8615692,28.8 L24.6075097,28.8 C24.4011957,28.8 24.2306284,28.7255824 24.0958077,28.5753245 C23.960987,28.425778 23.8930767,28.2412009 23.8930767,28.0210598 L23.8930767,22.0672041 C23.8930767,21.7344141 23.8990761,21.50147 23.9097418,21.3684607 C23.9204908,21.2360737 23.9252403,21.1304487 23.9252403,21.0508743 C23.9252403,20.8765218 23.8751617,20.7886788 23.7749211,20.7886788 C23.6902624,20.7886788 23.6139362,20.8904807 23.5482757,21.0934622 C23.4814486,21.2964436 23.3645429,21.5815779 23.1952254,21.948776 L22.6716079,23.0579278 C22.5869491,23.244372 22.4700434,23.4009424 22.3221406,23.5281726 C22.1742378,23.6554028 22.001254,23.7184399 21.805689,23.7184399 L21.3858117,23.7184399 C21.1901634,23.7184399 21.0195961,23.6554028 20.8741097,23.5281726 C20.7286234,23.4009424 20.6128842,23.244372 20.5282255,23.0579278 L20.0046079,21.948776 C19.8304576,21.5815779 19.7112187,21.2965325 19.6479747,21.0934622 C19.583564,20.8904807 19.5072379,20.7886788 19.4177463,20.7886788 C19.3223385,20.7886788 19.274593,20.8765218 19.274593,21.0508743 C19.274593,21.1304487 19.2793426,21.2360737 19.2900916,21.3684607 C19.3008405,21.50147 19.3055901,21.7344141 19.3055901,22.0672041 L19.3055901,28.0210598 C19.3055901,28.2412009 19.238763,28.425778 19.1040257,28.5753245 C18.969205,28.7254935 18.7986376,28.8 18.5923236,28.8 L18.3299316,28.8 C18.1236176,28.8 17.9506338,28.7255824 17.809897,28.5753245 C17.6703267,28.425778 17.6,28.2412009 17.6,28.0210598 L17.6,17.5789402 C17.6,17.3587991 17.6704101,17.174222 17.809897,17.0246755 C17.9506338,16.8751289 18.1236176,16.8 18.3299316,16.8 L18.56016,16.8 C18.7558083,16.8 18.9347082,16.8496118 19.0956931,16.9483018 C19.256678,17.046903 19.3986647,17.2181436 19.52032,17.460601 L21.1234197,20.87341 C21.2450749,21.1050204 21.3321501,21.3112027 21.3858117,21.4913342 C21.4383068,21.6720882 21.5098834,21.7624207 21.5992917,21.7624207 C21.6839505,21.7624207 21.7543605,21.6720882 21.8104386,21.4913342 C21.8653501,21.3112027 21.9511754,21.1050204 22.0680811,20.87341 L23.6795134,17.460601 C23.7952525,17.2181436 23.9359893,17.0469919 24.0993907,16.9483018 C24.2639586,16.8497007 24.4441084,16.8 24.6397567,16.8 L24.8616526,16.8 C25.0679665,16.8 25.2433668,16.8751289 25.3852701,17.0246755 C25.5284234,17.174222 25.6,17.3587991 25.6,17.5789402 L25.5999167,28.0210598 Z" id="Fill-5"></path>
                    <path d="M34.1265123,26.8015417 C33.9437928,27.209233 33.7006457,27.5604813 33.3981697,27.8540876 C33.0945105,28.1476939 32.7424248,28.3788617 32.3432646,28.5474198 C31.9428368,28.7159779 31.5230552,28.8 31.0838354,28.8 C30.6966762,28.8 30.3554928,28.7528072 30.0615527,28.6571367 C29.7663449,28.5621515 29.4917586,28.4468674 29.2400755,28.3107704 C29.0622578,28.2237506 28.9303313,28.1513768 28.8408309,28.0943343 C28.7525136,28.0372918 28.64966,27.9704852 28.5310867,27.8945142 C28.3653545,27.7859963 28.2504153,27.6756798 28.1899032,27.5640786 C28.1270247,27.4524774 28.0967687,27.3341955 28.0967687,27.2091474 C28.0967687,27.07365 28.1475616,26.924106 28.2492321,26.76043 L28.2976587,26.6788917 C28.4645741,26.4177466 28.6787328,26.2878164 28.9425014,26.2878164 C29.1034162,26.2878164 29.2449774,26.3282429 29.368368,26.4097812 L30.0930764,26.8910454 C30.249174,26.9946812 30.4028207,27.0737356 30.5564673,27.1276947 C30.7089308,27.1822534 30.8842975,27.209233 31.0839199,27.209233 C31.3028959,27.209233 31.5121529,27.164524 31.7117752,27.0750203 C31.9102143,26.9849171 32.0832147,26.8653505 32.2307763,26.7158066 C32.378338,26.5662627 32.4932772,26.3884545 32.5767771,26.181868 C32.660277,25.974682 32.7013509,25.7601302 32.7013509,25.5369278 C32.7013509,25.080245 32.5344355,24.6860862 32.2017035,24.354366 C32.126655,24.2777097 32.0371545,24.2060212 31.9331176,24.1379299 C31.8278976,24.0699242 31.6330926,23.9571239 31.3487871,23.7995289 L30.1256989,23.1300929 C29.7978687,22.945604 29.5716244,22.8137896 29.4457829,22.7346495 C29.3187582,22.655595 29.2050022,22.5703739 29.1034162,22.4777868 C28.7537813,22.1786133 28.4827446,21.8182005 28.2903905,21.3970622 C28.0968532,20.9753244 28,20.5308895 28,20.0631579 C28,19.6058756 28.0883172,19.1766862 28.2661349,18.7739626 C28.4427694,18.3718385 28.6786483,18.0260717 28.9738561,17.737947 C29.2690639,17.4498223 29.6126137,17.2211383 30.0045902,17.0525802 C30.3965666,16.8840221 30.8042627,16.8 31.2276784,16.8 C31.6148375,16.8 31.9572042,16.8471928 32.2547783,16.9422637 C32.5523525,17.0379341 32.8270234,17.1531326 33.0798896,17.2892296 C33.2565241,17.3762494 33.3883661,17.4467389 33.474317,17.5012976 C33.5601833,17.5558563 33.6642202,17.6238619 33.7876953,17.7054002 C33.9546106,17.813918 34.0671834,17.9242345 34.1264278,18.0358357 C34.1856722,18.1474369 34.2147451,18.2657188 34.2147451,18.390767 C34.2147451,18.5213824 34.1663185,18.6709263 34.0695498,18.8394844 L34.0211232,18.9210227 C33.8553911,19.1766862 33.6400491,19.3041326 33.3775483,19.3041326 C33.2106329,19.3041326 33.0666209,19.2661042 32.9432303,19.1901332 C32.8888032,19.157672 32.7993028,19.0963471 32.6734612,19.0062438 C32.5464365,18.9167402 32.3952408,18.8174725 32.2186063,18.7089546 C32.0685938,18.6053188 31.9149471,18.5262644 31.7601173,18.4723053 C31.6040197,18.4177466 31.426202,18.390767 31.2278474,18.390767 C31.0185905,18.390767 30.8249686,18.4342769 30.6447,18.5213824 C30.4644314,18.6084022 30.3035166,18.7248854 30.1619554,18.8720312 C30.0192111,19.0185774 29.9067228,19.1889341 29.8232229,19.3820736 C29.739723,19.5752131 29.6986491,19.7829986 29.6986491,20.0061154 C29.6986491,20.2286326 29.745808,20.4328209 29.8402102,20.6179093 C29.9333448,20.8023982 30.0555522,20.9740397 30.2055647,21.1316346 C30.2539913,21.1751445 30.3216871,21.2266198 30.407638,21.2867457 C30.4935043,21.346786 30.6810411,21.4553038 30.9701639,21.6128988 L32.0892152,22.2332577 C32.4170454,22.4233138 32.6639112,22.5673761 32.8296433,22.6654447 C32.9965587,22.7635133 33.1284852,22.8585842 33.2252539,22.9510856 C33.5894252,23.2607083 33.876097,23.6364524 34.0854385,24.0766049 C34.2946954,24.5173569 34.4,24.9875723 34.4,25.487765 C34.3999155,25.9555822 34.3091473,26.3938504 34.1265123,26.8015417" id="Fill-7"></path>
                </g>
            </g>
        </g>
    </g>
</svg>