<?xml version="1.0" encoding="UTF-8" standalone="no"?>
<svg width="80px" height="80px" viewBox="0 0 80 80" version="1.1" xmlns="http://www.w3.org/2000/svg" xmlns:xlink="http://www.w3.org/1999/xlink">
    <!-- Generator: Sketch 46.2 (44496) - http://www.bohemiancoding.com/sketch -->
    <title>viber</title>
    <desc>Created with Sketch.</desc>
    <defs></defs>
    <g id="UI" stroke="none" stroke-width="1" fill="none" fill-rule="evenodd">
        <g id="04" transform="translate(-378.000000, -811.000000)">
            <g id="viber" transform="translate(378.000000, 811.000000)">
                <circle id="Oval" fill="#6F3FAA" fill-rule="nonzero" cx="40" cy="40" r="40"></circle>
                <g id="Group" transform="translate(17.812500, 17.031250)" fill-rule="nonzero" fill="#FFFFFF">
                    <path d="M43.3479687,11.081875 L43.3348437,11.0290625 C42.2660937,6.70828125 37.4476562,2.07203125 33.0226562,1.1075 L32.9728125,1.0971875 C25.815625,-0.268125 18.5585937,-0.268125 11.4029687,1.0971875 L11.3515625,1.1075 C6.928125,2.07203125 2.10953125,6.70859375 1.039375,11.0290625 L1.0275,11.081875 C-0.29375,17.1157813 -0.29375,23.2351563 1.0275,29.2690625 L1.039375,29.321875 C2.0640625,33.458125 6.52359375,37.8815625 10.7834375,39.0979688 L10.7834375,43.9210938 C10.7834375,45.666875 12.9107812,46.5242188 14.1204687,45.264375 L19.0071875,40.1848438 C20.0671875,40.2440625 21.1276562,40.2771875 22.1878125,40.2771875 C25.7904687,40.2771875 29.3948437,39.9364063 32.9726562,39.2539063 L33.0225,39.2435938 C37.4475,38.2790625 42.2659375,33.6425 43.3346875,29.3220313 L43.3478125,29.2692188 C44.6690625,23.2351563 44.6690625,17.1160938 43.3479687,11.081875 Z M39.480625,28.3942188 C38.7670312,31.213125 35.1085937,34.7175 32.2017187,35.365 C28.39625,36.08875 24.5604688,36.3979688 20.7285938,36.291875 C20.6523438,36.2896875 20.5790625,36.319375 20.5260938,36.3740625 C19.9821875,36.9321875 16.958125,40.036875 16.958125,40.036875 L13.163125,43.931875 C12.885625,44.22125 12.398125,44.0242188 12.398125,43.625 L12.398125,35.635 C12.398125,35.5029688 12.3039063,35.3909375 12.1742188,35.3653125 C12.1734375,35.365 12.1728125,35.365 12.1720313,35.3648438 C9.26515625,34.7173438 5.60796875,31.2129688 4.893125,28.3940625 C3.70390625,22.94 3.70390625,17.4109375 4.893125,11.956875 C5.60796875,9.13796875 9.26515625,5.63359375 12.1720313,4.98609375 C18.8182812,3.72203125 25.5570313,3.72203125 32.201875,4.98609375 C35.1101562,5.63359375 38.7671875,9.13796875 39.4807812,11.956875 C40.67125,17.4110938 40.67125,22.9401563 39.480625,28.3942188 Z" id="Shape"></path>
                    <path d="M28.5109375,32.0823437 C28.0640625,31.9465625 27.6382813,31.8554688 27.2425,31.6915625 C23.1439063,29.9910938 19.3720313,27.7973438 16.384375,24.4346875 C14.6853125,22.5225 13.3554688,20.3635937 12.2314063,18.0789062 C11.6982813,16.9954688 11.2490625,15.8696875 10.7910938,14.7509375 C10.3735938,13.7309375 10.9885938,12.6771875 11.6360938,11.9084375 C12.24375,11.1870312 13.0257813,10.6351562 13.8726563,10.228125 C14.5335938,9.910625 15.1854688,10.09375 15.6682813,10.6539062 C16.7117188,11.8651562 17.6704688,13.1382812 18.4464063,14.5423437 C18.92375,15.4059375 18.7928125,16.4615625 17.9276563,17.0492187 C17.7173438,17.1920312 17.5257813,17.3598437 17.33,17.5210937 C17.158125,17.6625 16.9965625,17.8053125 16.87875,17.9967188 C16.6635938,18.346875 16.6532813,18.7601563 16.7917188,19.1409375 C17.8584375,22.0723438 19.6564063,24.3520313 22.6071875,25.58 C23.079375,25.7764063 23.5534375,26.005 24.0975,25.9417188 C25.0084375,25.8353125 25.3034375,24.8359375 25.941875,24.3139063 C26.5657813,23.80375 27.3632813,23.7970313 28.0353125,24.2223438 C28.7076563,24.6479687 29.3592188,25.1045313 30.0070313,25.56625 C30.6429688,26.019375 31.2759375,26.4623438 31.8623438,26.9790625 C32.4264063,27.4757812 32.620625,28.1273437 32.3029688,28.80125 C31.7217188,30.0357812 30.875625,31.0625 29.6554688,31.718125 C29.3109375,31.9028125 28.899375,31.9626562 28.5109375,32.0823437 C28.0640625,31.9465625 28.899375,31.9626562 28.5109375,32.0823437 Z" id="Shape"></path>
                    <path d="M22.1985938,8.8165625 C27.559375,8.966875 31.9626563,12.5245312 32.90625,17.8245312 C33.0670313,18.7276562 33.1242188,19.6507812 33.1957813,20.5675 C33.2259375,20.9529688 33.0075,21.3192188 32.5915625,21.324375 C32.161875,21.3295312 31.9685938,20.9698437 31.9404688,20.5846875 C31.8853125,19.821875 31.8470313,19.0554687 31.741875,18.2992187 C31.1870313,14.305625 28.0026563,11.0017187 24.0276563,10.2928125 C23.429375,10.1860937 22.8175,10.158125 22.2114063,10.0945312 C21.8284375,10.054375 21.326875,10.03125 21.2420313,9.555 C21.1709375,9.15578125 21.5078125,8.83796875 21.8879688,8.8175 C21.9909375,8.81140625 22.0948438,8.81625 22.1985938,8.8165625 C27.5596875,8.966875 22.0948438,8.81625 22.1985938,8.8165625 Z" id="Shape"></path>
                    <path d="M30.345625,19.3779688 C30.3367187,19.445 30.3321875,19.6023438 30.2928125,19.7504687 C30.150625,20.2885937 29.334375,20.3559375 29.1467187,19.8129688 C29.0909375,19.651875 29.0826562,19.4684375 29.0823437,19.295 C29.0804687,18.1596875 28.83375,17.0253125 28.2610937,16.0373438 C27.6725,15.021875 26.773125,14.1685938 25.7185937,13.651875 C25.0807812,13.3396875 24.39125,13.1454688 23.6921875,13.03 C23.3867187,12.979375 23.0779687,12.9489063 22.7709375,12.9060938 C22.3989062,12.854375 22.2001562,12.6173438 22.2179687,12.2507813 C22.234375,11.9073438 22.4854687,11.66 22.8598437,11.6814063 C24.09,11.7510938 25.2784375,12.0173438 26.3723437,12.5964063 C28.5964062,13.774375 29.8670312,15.6334375 30.2379687,18.1160938 C30.2546875,18.22875 30.2815625,18.34 30.2901562,18.4528125 C30.3110937,18.73125 30.324375,19.0101563 30.345625,19.3779688 C30.3367187,19.4446875 30.324375,19.0101563 30.345625,19.3779688 Z" id="Shape"></path>
                    <path d="M27.01125,19.248125 C26.5628125,19.25625 26.3228125,19.0078125 26.2764063,18.596875 C26.244375,18.3103125 26.21875,18.0196875 26.1503125,17.740625 C26.015625,17.1910938 25.7235938,16.6820313 25.2614063,16.3453125 C25.0432813,16.1864063 24.7959375,16.070625 24.5370313,15.995625 C24.208125,15.9004687 23.86625,15.9267188 23.5382813,15.8464062 C23.181875,15.7590625 22.9846875,15.4703125 23.0407813,15.1360938 C23.0917188,14.8317188 23.3876563,14.5942188 23.7203125,14.6184375 C25.79875,14.7684375 27.2842188,15.8429688 27.49625,18.2898438 C27.5114063,18.4625 27.5289063,18.6448438 27.490625,18.8103125 C27.4246875,19.0926563 27.2153125,19.234375 27.01125,19.248125 C26.5626563,19.2560938 27.2153125,19.234375 27.01125,19.248125 Z" id="Shape"></path>
                </g>
                <g id="Group" transform="translate(40.000000, 25.781250)"></g>
                <g id="Group" transform="translate(44.531250, 36.250000)"></g>
            </g>
        </g>
    </g>
</svg>