<?xml version="1.0" encoding="UTF-8" standalone="no"?>
<svg width="80px" height="80px" viewBox="0 0 80 80" version="1.1" xmlns="http://www.w3.org/2000/svg" xmlns:xlink="http://www.w3.org/1999/xlink">
    <!-- Generator: Sketch 47 (45396) - http://www.bohemiancoding.com/sketch -->
    <title>zalo</title>
    <desc>Created with Sketch.</desc>
    <defs>
        <circle id="path-1" cx="40" cy="40" r="40"></circle>
        <linearGradient x1="50%" y1="70.262194%" x2="50%" y2="100%" id="linearGradient-3">
            <stop stop-color="#FFFFFF" offset="0%"></stop>
            <stop stop-color="#EBF5F9" offset="100%"></stop>
        </linearGradient>
        <path d="M19.7593578,63.643999 C24.4212158,65.8141597 29.6612131,67.0322331 35.2,67.0322331 C54.6404232,67.0322331 70.4,52.0265566 70.4,33.5161166 C70.4,15.0056765 54.6404232,0 35.2,0 C15.7595768,0 0,15.0056765 0,33.5161166 C0,42.2573186 3.51441773,50.2169512 9.27126074,56.1838711 L7.01247473,67.2 L19.7593578,63.643999 Z" id="path-4"></path>
        <filter x="-1.4%" y="-1.5%" width="102.8%" height="103.0%" filterUnits="objectBoundingBox" id="filter-5">
            <feGaussianBlur stdDeviation="0.5" in="SourceAlpha" result="shadowBlurInner1"></feGaussianBlur>
            <feOffset dx="0" dy="-1" in="shadowBlurInner1" result="shadowOffsetInner1"></feOffset>
            <feComposite in="shadowOffsetInner1" in2="SourceAlpha" operator="arithmetic" k2="-1" k3="1" result="shadowInnerInner1"></feComposite>
            <feColorMatrix values="0 0 0 0 0.0196306507   0 0 0 0 0.0905025047   0 0 0 0 0.211575255  0 0 0 0.1 0" type="matrix" in="shadowInnerInner1"></feColorMatrix>
        </filter>
        <circle id="path-6" cx="40" cy="40" r="40"></circle>
    </defs>
    <g id="UI" stroke="none" stroke-width="1" fill="none" fill-rule="evenodd">
        <g id="05" transform="translate(-260.000000, -789.000000)">
            <g id="zalo" transform="translate(260.000000, 789.000000)">
                <mask id="mask-2" fill="white">
                    <use xlink:href="#path-1"></use>
                </mask>
                <use id="Mask" fill="#2D93E2" xlink:href="#path-1"></use>
                <g id="Group-20" mask="url(#mask-2)">
                    <g transform="translate(13.600000, -3.200000)">
                        <g id="Combined-Shape">
                            <use fill="url(#linearGradient-3)" fill-rule="evenodd" xlink:href="#path-4"></use>
                            <use fill="black" fill-opacity="1" filter="url(#filter-5)" xlink:href="#path-4"></use>
                        </g>
                        <g id="Group-19" stroke-width="1" fill-rule="evenodd" transform="translate(9.600000, 24.800000)">
                            <path d="M5.15107531,14.3747082 C7.44509377,14.3747082 9.58614734,14.3616483 11.7268977,14.3798121 C12.9295443,14.3900199 13.5796072,14.8968053 13.6902755,15.8348687 C13.830506,17.0221217 13.1307182,17.8099208 11.8318052,17.8244819 C9.38163829,17.8519528 6.93086494,17.83514 4.48039479,17.83514 C3.77302695,17.83514 3.06399151,17.8594585 2.35889768,17.8192279 C1.4794633,17.7690898 0.619585377,17.5969088 0.199197247,16.6986257 C-0.222252086,15.7985411 0.0704884398,14.9907768 0.652482681,14.2577693 C2.99425529,11.3089266 5.3387567,8.36248569 7.68174211,5.41469377 C7.82091136,5.23966065 7.95538098,5.06087468 8.09060861,4.88569145 C7.94764936,4.62959668 7.72040024,4.7442839 7.54363408,4.7432331 C5.90164928,4.73317545 4.25951289,4.74473424 2.6175281,4.73167431 C2.24216531,4.72867203 1.85573569,4.69879931 1.49477494,4.60512807 C0.732830935,4.40742771 0.270449472,3.8033683 0.264385453,3.08327063 C0.258321434,2.36182194 0.706907253,1.75070717 1.46672886,1.53859585 C1.82571879,1.43831958 2.21381602,1.4034931 2.58887561,1.40199195 C5.29206376,1.39118373 7.99525191,1.39178419 10.6982885,1.40064093 C11.17583,1.40229218 11.6570099,1.41430132 12.1207558,1.57282188 C13.145575,1.92333846 13.5968896,2.85869984 13.1801399,3.84915312 C12.8172084,4.71170913 12.2388525,5.44486672 11.6615579,6.17247009 C9.67983644,8.66976939 7.69053494,11.1613643 5.70487186,13.6558115 C5.55069417,13.8496089 5.40242891,14.0479097 5.15107531,14.3747082" id="Fill-7" fill="#2D93E2"></path>
                            <path d="M17.2412034,11.8350731 C17.2555666,12.3501022 17.4273206,13.042898 17.8771164,13.6438901 C18.8556303,14.9514561 20.8637608,14.9474126 21.8415187,13.6411944 C22.6891004,12.5089989 22.6847158,10.6303931 21.8363782,9.49939568 C21.3879431,8.9016983 20.7892232,8.58869716 20.0421841,8.54526638 C18.3848187,8.44867034 17.2242699,9.71864624 17.2412034,11.8350731 M22.5856851,6.3597996 C22.9538374,5.90078119 23.3192681,5.46827053 23.9418763,5.34262079 C25.1296397,5.10285294 26.255868,5.86738442 26.2717432,7.06352799 C26.3113554,10.0568073 26.2966898,13.0511349 26.2788492,16.0447137 C26.2738598,16.8624104 25.7654016,17.4891615 25.0215375,17.7397122 C24.2419922,18.0022438 23.4296382,17.8109986 22.9089334,17.1598364 C22.6540239,16.8411443 22.5450145,16.7866312 22.1895624,17.0720763 C20.812658,18.1776142 19.2599173,18.3712556 17.5813851,17.8319651 C14.8883553,16.9664945 13.7798165,14.8881071 13.4875626,12.3426141 C13.173537,9.60812239 14.0924813,7.26151244 16.563259,5.82275555 C18.6146304,4.62840911 20.6985081,4.72859942 22.5856851,6.3597996" id="Fill-9" fill="#2D93E2"></path>
                            <path d="M36.5424351,11.7930951 C36.5384986,12.5625323 36.7209414,13.2798017 37.1878738,13.9034096 C38.1449035,15.1814451 40.1351196,15.1918185 41.111832,13.9313727 C41.9924023,12.794957 41.9957332,10.8641478 41.1266696,9.71570497 C40.6735151,9.11675271 40.0713782,8.80810588 39.3252553,8.76871695 C37.6900835,8.68257246 36.5493997,9.92422575 36.5424351,11.7930951 M32.7350586,12.1563152 C32.6195368,8.29574912 35.1702534,5.41148728 38.7979124,5.30083747 C42.6526786,5.18327204 45.4806175,7.75693263 45.5958365,11.509104 C45.7125696,15.3084819 43.3651896,18.0036167 39.7452522,18.3639803 C35.8128154,18.7553138 32.6785846,15.9101402 32.7350586,12.1563152" id="Fill-11" fill="#2D93E2"></path>
                            <path d="M31.6081183,9.07842183 C31.607963,11.427606 31.6202319,13.7767902 31.603304,16.1258228 C31.5936753,17.4696435 30.3795268,18.3779583 29.0737504,18.0561813 C28.2896322,17.8629938 27.7033684,17.0506662 27.7019707,16.1041385 C27.6960693,12.0878402 27.6993306,8.07154195 27.6993306,4.0552437 C27.6993306,3.34800157 27.6895466,2.64045617 27.702126,1.93336567 C27.7227811,0.767871891 28.4828275,0.0110439604 29.6250713,0.000125985866 C30.8048981,-0.0112469043 31.5961601,0.748158881 31.6037699,1.95520162 C31.6188341,4.32955781 31.6082736,6.70406564 31.6081183,9.07842183" id="Fill-13" fill="#2D93E2"></path>
                        </g>
                    </g>
                </g>
                <mask id="mask-7" fill="white">
                    <use xlink:href="#path-6"></use>
                </mask>
                <circle stroke="#F2F2F2" stroke-width="0.2" cx="40" cy="40" r="39.9"></circle>
            </g>
        </g>
    </g>
</svg>