<svg id="Layer_1" data-name="Layer 1" xmlns="http://www.w3.org/2000/svg" viewBox="0 0 80 80"><defs><style>.cls-1{fill:currentColor;}</style></defs><title>5_Dat-nen-du-an</title><path class="cls-1" d="M72.43,58.88v0s0-.05,0-.08h0l0-.1h0l0-.09h0l-.05-.09-2.4-3.6h0L67.5,51.28v0L63.3,45l-.1-.12h0l0,0,0,0h-.31l-.15,0H51.25l.17-.22A39.92,39.92,0,0,0,56,36.86a21.14,21.14,0,0,0,2-8.58,14.28,14.28,0,1,0-28.55,0,21.14,21.14,0,0,0,2,8.58,39.92,39.92,0,0,0,4.56,7.55l.17.22H24.82a.76.76,0,0,0-.64.35l-2.38,3.58,0,0-6.59,9.88-.06.1h0a.76.76,0,0,0-.06.19h0a.77.77,0,0,0,0,.08v0h0v3.6a.76.76,0,0,0,.76.76H71.67a.76.76,0,0,0,.76-.76v-3.6h0Zm-3.57-2.82,0,.06,1.2,1.8.14.22H64.18l0-.08-.86-1.8-.1-.2h5.68ZM58.68,46.15h3.57l0,.06,3,4.51.14.22h-4.7l0-.08-2.15-4.51-.1-.2ZM31,28.27a12.75,12.75,0,1,1,25.51,0c0,9.61-9.69,19.5-12.66,22.3l-.1.09-.1-.09-1-1,0,0v0a.76.76,0,0,0-.36-.36h0l0,0C38.85,45.74,31,36.8,31,28.27ZM46,50.66h6.56l0,.1.78,2.7.05.18H34.06l.05-.18.78-2.7,0-.1h6.62l0,0c.93.92,1.55,1.47,1.67,1.57a.76.76,0,0,0,1,0c.12-.1.74-.65,1.67-1.57l0,0ZM24,48l1.2-1.8,0-.06H37.43l0,.05c.75.91,1.54,1.82,2.35,2.7l.22.23H34.31a.76.76,0,0,0-.71.57l-1.28,4.46v0h0l0,.07h0v.08h0v0h0v0h0v0h0v.05h0a.76.76,0,0,0,.53.56h0l.09,0H54.55l.09,0h0l.14-.05h0l.06,0h0l.05,0h0l0,0h0a.76.76,0,0,0,.19-.3h0v-.05h0v0h0v0h0v0h0v0h0v-.08h0l0-.07h0l-1.28-4.45a.77.77,0,0,0-.71-.58H47.43l.22-.23c.82-.88,1.61-1.79,2.35-2.7l0-.05h6.73l0,.08L59.57,52h0a.76.76,0,0,0,.68.43h6.2l0,.06,1.2,1.8.14.22H62a.76.76,0,0,0-.75.91h0l0,.06v0l0,0v0l1.11,2.32.1.2H25l.1-.2,4.09-8.58h0a.76.76,0,0,0-.05-.82l0-.06h0l0,0h0l0,0h0l-.05,0h0l-.06,0h0l-.06,0h0l-.05,0H23.84Zm-6.61,9.91,5.41-8.11,0-.06H27.3l-.1.2-3.87,8.11,0,.08H17.23Zm53.54,1.88v1.94H16.57V59.67H70.91Z"/><path class="cls-1" d="M50.43,27.74l-6.31-4.51h0l0,0h0l0,0h-.41l-.05,0h0l-.05,0h0l0,0h0l-3.08,2.2-.4.28v-2a.65.65,0,0,0-1.3,0v2.88l-.11.08-1.42,1a.65.65,0,0,0,.38,1.18.65.65,0,0,0,.38-.12l.38-.27.4-.28v5.68h-.25a.65.65,0,1,0,0,1.3H49.15a.65.65,0,1,0,0-1.3h-.25V28.25l.4.28.38.27a.65.65,0,0,0,.76-1.06Zm-2.83-.29v6.48H44.39V31.88a.65.65,0,0,0-1.3,0v2.05H39.88V27.32l.11-.08,3.6-2.57.15-.1.15.1,3.6,2.57.11.08Z"/></svg>
