<svg id="Layer_1" data-name="Layer 1" xmlns="http://www.w3.org/2000/svg" viewBox="0 0 80 80"><defs><style>.cls-1{fill:currentColor;}</style></defs><title>1_Dien-thoai</title><path class="cls-1" d="M52.57,14H27.43a3.19,3.19,0,0,0-3.08,3.29V62.71A3.19,3.19,0,0,0,27.43,66H52.57a3.19,3.19,0,0,0,3.08-3.29V17.29A3.19,3.19,0,0,0,52.57,14ZM25.89,22.27H54.11V56.66H25.89Zm1.53-6.62H52.57a1.59,1.59,0,0,1,1.53,1.64v3.88H25.89V17.29A1.59,1.59,0,0,1,27.43,15.65Zm25.15,48.7H27.43a1.59,1.59,0,0,1-1.53-1.64V57.76H54.11v4.94A1.59,1.59,0,0,1,52.57,64.35Z"/><path class="cls-1" d="M40,58.49a2.71,2.71,0,1,0,2.52,2.7A2.62,2.62,0,0,0,40,58.49Zm0,4.3a1.61,1.61,0,1,1,1.5-1.6A1.55,1.55,0,0,1,40,62.8Z"/><path class="cls-1" d="M36.51,19.24h7a.55.55,0,0,0,0-1.1h-7a.55.55,0,0,0,0,1.1Z"/><path class="cls-1" d="M34.66,19.24a.5.5,0,0,0,.36-.16.58.58,0,0,0,0-.78.49.49,0,0,0-.73,0,.58.58,0,0,0,0,.78A.5.5,0,0,0,34.66,19.24Z"/></svg>
