<svg id="Layer_1" data-name="Layer 1" xmlns="http://www.w3.org/2000/svg" viewBox="0 0 80 80"><defs><style>.cls-1{fill:currentColor;}</style></defs><title>3_Laptop</title><path class="cls-1" d="M14.43,62.16h54a1.77,1.77,0,0,0,1.76-1.76V58.22h0v0a.63.63,0,0,0,0-.08h0l0-.07v0l0-.06v0L65.61,49l0,0V19.46A1.46,1.46,0,0,0,64.13,18H18.75a1.46,1.46,0,0,0-1.46,1.46V49l0,0-4.54,8.95h0l0,.06v0l0,.07h0v.07h0V60.4A1.77,1.77,0,0,0,14.43,62.16Zm4.19-13.9V19.32H64.26V48.45H18.61Zm-4.08,9,3.77-7.44.05-.1H64.52l.05.1,3.77,7.44.14.27H49.39l0-.14-.94-3.39a1.41,1.41,0,0,0-1.36-1H35.82a1.41,1.41,0,0,0-1.36,1l-.94,3.39,0,.14H14.4ZM48,57.58H34.86l.07-.24.79-2.87,0-.14H47.12l0,.14L48,57.35ZM14,59.09v-.19H68.9V60.4a.44.44,0,0,1-.44.44h-54A.44.44,0,0,1,14,60.4Z"/><path class="cls-1" d="M62.08,36.15V22.65a1.15,1.15,0,0,0-1.14-1.14h-39a1.15,1.15,0,0,0-1.14,1.14V45.12a1.15,1.15,0,0,0,1.14,1.14h39a1.15,1.15,0,0,0,1.14-1.14v-9h0ZM60.76,23V44.94H22.12V22.83H60.76Z"/></svg>
