<svg id="Layer_1" data-name="Layer 1" xmlns="http://www.w3.org/2000/svg" viewBox="0 0 80 80"><defs><style>.cls-1{fill:currentColor;}.cls-2{fill:none;}</style></defs><title>4_May-de-ban</title><path class="cls-1" d="M69.88,62.14V13.21A3.22,3.22,0,0,0,66.67,10h-22a3.22,3.22,0,0,0-3.22,3.22v6.57H17.74A3.22,3.22,0,0,0,14.53,23V47.46a3.22,3.22,0,0,0,3.22,3.22H31.65v5.8H30a5.67,5.67,0,0,0-5.66,5.66v2.45a.77.77,0,0,0,.77.77H66.67A3.22,3.22,0,0,0,69.88,62.14Zm-52.14-13a1.68,1.68,0,0,1-1.68-1.68V23a1.68,1.68,0,0,1,1.68-1.68H56.88A1.68,1.68,0,0,1,58.56,23V47.46a1.68,1.68,0,0,1-1.68,1.68Zm23.69,1.54v5.8H33.19v-5.8h8.25Zm7.34,12.69v.45H25.85V62.14A4.13,4.13,0,0,1,30,58H44.65a4.13,4.13,0,0,1,4.12,4.12ZM68.35,36.46V62.14a1.68,1.68,0,0,1-1.68,1.68H50.31V62.14a5.67,5.67,0,0,0-5.66-5.66H43v-5.8H56.88a3.22,3.22,0,0,0,3.22-3.22V36h8.25Zm0-7.34v5.35H60.1v-5.8h8.25Zm0-7.34v5.35H60.1V23a3.15,3.15,0,0,0-.2-1.07l-.22-.61h8.66Zm0-2.45v.45H43V13.22a1.68,1.68,0,0,1,1.68-1.68h22a1.68,1.68,0,0,1,1.68,1.68Z"/><polygon class="cls-2" points="20.61 45.3 52.14 45.3 52.19 45.3 55.09 45.3 55.09 24.88 20.61 24.88 20.61 45.3"/><path class="cls-1" d="M56,22.87H18.42a.71.71,0,0,0-.71.71V46.42a.71.71,0,0,0,.71.71H56a.71.71,0,0,0,.71-.71V23.58A.71.71,0,0,0,56,22.87ZM55.3,45.71H19.13V24.29H55.3Z"/></svg>
