<svg id="Layer_1" data-name="Layer 1" xmlns="http://www.w3.org/2000/svg" viewBox="0 0 80 80"><defs><style>.cls-1{fill:currentColor;}</style></defs><title>2-May-tinh-bang</title><path class="cls-1" d="M58.48,13h-37a3,3,0,0,0-3,3V64a3,3,0,0,0,3,3h37a3,3,0,0,0,3-3V16A3,3,0,0,0,58.48,13Zm1.6,51a1.6,1.6,0,0,1-1.6,1.6h-37a1.6,1.6,0,0,1-1.6-1.6V16a1.6,1.6,0,0,1,1.6-1.6h37a1.6,1.6,0,0,1,1.6,1.6Z"/><path class="cls-1" d="M58,18.65H22a.61.61,0,0,0-.61.61V60.73a.61.61,0,0,0,.61.61H58a.61.61,0,0,0,.61-.61V19.27a.61.61,0,0,0-.61-.61Zm-.61,41.46H22.59V19.88H57.41Z"/><path class="cls-1" d="M40,62.62a.92.92,0,1,0,.65.27A.93.93,0,0,0,40,62.62Z"/><path class="cls-1" d="M40,17.35a.61.61,0,1,0-.43-.18A.62.62,0,0,0,40,17.35Z"/></svg>
