<svg id="Layer_1" data-name="Layer 1" xmlns="http://www.w3.org/2000/svg" viewBox="0 0 80 80"><defs><style>.cls-1{fill:currentColor;}</style></defs><title>5_Phu-kien-may-tinh</title><path class="cls-1" d="M40,15H23.33a1,1,0,0,0-1,1v12.5a1,1,0,0,0,1,1H40a2.08,2.08,0,0,0,2.08-2.08V17.08A2.08,2.08,0,0,0,40,15Zm0,12.5H24.38V17.08H40Z"/><path class="cls-1" d="M23.33,19.17V17.08H17.08A2.08,2.08,0,0,0,15,19.17v6.25a2.08,2.08,0,0,0,2.08,2.08h6.25V25.42H17.08V19.17Z"/><path class="cls-1" d="M45.21,18.13H43.13v2.08h1v4.17h-1v2.08h2.08a1,1,0,0,0,1-1V19.17A1,1,0,0,0,45.21,18.13Z"/><path class="cls-1" d="M31.67,19.17H27.5a1,1,0,0,0-1,1v4.17a1,1,0,0,0,1,1h4.17a1,1,0,0,0,1-1V20.21A1,1,0,0,0,31.67,19.17Zm-1,4.17H28.54V21.25h2.08Z"/><rect class="cls-1" x="34.79" y="19.17" width="2.08" height="6.25"/><path class="cls-1" d="M56.67,50.42H40a2.08,2.08,0,0,0-2.08,2.08V62.92A2.08,2.08,0,0,0,40,65H56.67a1,1,0,0,0,1-1V51.46A1,1,0,0,0,56.67,50.42Zm-1,12.5H40V52.5H55.63Z"/><path class="cls-1" d="M62.92,52.5H56.67v2.08h6.25v6.25H56.67v2.08h6.25A2.08,2.08,0,0,0,65,60.83V54.58A2.08,2.08,0,0,0,62.92,52.5Z"/><path class="cls-1" d="M36.88,55.63V53.54H34.79a1,1,0,0,0-1,1v6.25a1,1,0,0,0,1,1h2.08V59.79h-1V55.63Z"/><path class="cls-1" d="M52.5,54.58H48.33a1,1,0,0,0-1,1v4.17a1,1,0,0,0,1,1H52.5a1,1,0,0,0,1-1V55.63A1,1,0,0,0,52.5,54.58Zm-1,4.17H49.38V56.67h2.08Z"/><rect class="cls-1" x="43.13" y="54.58" width="2.08" height="6.25"/><path class="cls-1" d="M59.79,36.88V25.42q0-.12,0-.24a4,4,0,0,0-4.17-3.93H48.33v2.08h7.55a2,2,0,0,1,1.83,2.08V36.88A2,2,0,0,1,55.63,39H24.14a4.05,4.05,0,0,0-3.93,4.17V54.58q0,.12,0,.24a4,4,0,0,0,4.17,3.93h7.29V56.67H24.12a2,2,0,0,1-1.83-2.08V43.13A2,2,0,0,1,24.38,41H55.86A4,4,0,0,0,59.79,36.88Z"/></svg>
