<svg version="1" xmlns="http://www.w3.org/2000/svg" width="160" height="160" viewBox="0 0 120.000000 120.000000"><path d="M65.5 16.4c-4.5 1.4-9.4 4.2-11.2 6.4-1.1 1.3-2.2 1.4-8.4.3-3.9-.7-12.1-1.3-18.2-1.3-12.5.1-13.7.7-13.7 7.1-.1 2-.5 5.5-.9 7.8l-.8 4.2 11.1-.6c6.3-.3 14.5 0 19.1.6 7.8 1.1 23.9 5 23.3 5.7-.2.1-3.9-.1-8.3-.5s-12.3-.4-17.5 0c-9 .8-25.1 4.1-27.8 5.8-.7.4-1.8 4.1-2.3 8.2-.5 4.1-1.2 8.4-1.5 9.7l-.5 2.3 4.2-2.3c2.3-1.3 4.3-3 4.6-3.8.5-1.7 10.5-8.7 16.8-11.8 5.1-2.5 12.7-4.9 18.8-6.1 4.2-.8 4.7-.7 4.7 1 0 1.1-.6 1.9-1.4 1.9-1.6 0-17.9 9-17.4 9.6.3.2 3.1-.1 6.4-.6 3.2-.6 8.8-1 12.4-.9h6.5l-8 2.5c-15.8 4.8-33 14.4-44 24.6l-6.1 5.6-1.3 11.4c-.7 6.2-1.5 12.4-1.8 13.8-.4 2.3-.2 2.2 2.3-1 5.9-7.6 21.9-22.4 29.2-27.1 7.7-4.9 10.5-5.8 11.8-3.8 1.2 2 10.8 5.9 14.6 5.9 2.9 0 4.5.8 7.2 3.5 5.5 5.5 12.6 4.4 18.1-3 3.9-5 4.3-10.2 1.2-15.6-3.3-5.9-4.8-12.5-5.2-23.6-.3-7.9-.8-10.1-2.9-13.8-5-8.4-2.9-12 7.4-12.7 3.6-.3 8.3-1.3 10.5-2.3 2.2-1 4.3-1.9 4.7-1.9 1.2-.2 5.8-4.6 5.8-5.6 0-1.3-.6-1.3-6.4.5-6.2 1.9-13.6 1.9-20.6 0-6.6-1.8-9.2-1.8-14.5-.1zm6.2 23.2c-.3.3-1.2.4-1.9.1-.8-.3-.5-.6.6-.6 1.1-.1 1.7.2 1.3.5zM15 62c0 .5-.4 1-1 1-.5 0-1-.5-1-1 0-.6.5-1 1-1 .6 0 1 .4 1 1zm61.7 1.2c-.3.8-.6.5-.6-.6-.1-1.1.2-1.7.5-1.3.3.3.4 1.2.1 1.9z"/></svg>