<svg id="Layer_1" data-name="Layer 1" xmlns="http://www.w3.org/2000/svg" viewBox="0 0 80 80"><defs><style>.cls-1{fill:none;}.cls-2{fill:currentColor;}</style></defs><title>1_Do-suu-tap, sach, phim</title><path class="cls-1" d="M31.39,35.4A3.84,3.84,0,1,1,35.72,37l-.19.52,4.05,1.52,1.78-4.73a.73.73,0,0,1,.94-.42l1.56.59a.73.73,0,0,1,.46.55,2.39,2.39,0,1,0,.86-2.28.73.73,0,0,1-.71.11L42.9,32.3a.73.73,0,0,1-.42-.94l1.78-4.73-4.73-1.78a.73.73,0,0,1-.42-.94l.59-1.56a.73.73,0,0,1,.55-.46A2.39,2.39,0,1,0,38,21a.73.73,0,0,1,.11.71l-.59,1.56a.73.73,0,0,1-.94.42L31.81,22,27.14,34.39l4.05,1.52Z"/><path class="cls-1" d="M48.61,44.6A3.84,3.84,0,1,1,44.28,43l.19-.52-4.05-1.52-1.78,4.73a.73.73,0,0,1-.94.42l-1.56-.59a.73.73,0,0,1-.46-.55,2.39,2.39,0,1,0-.86,2.28.73.73,0,0,1,.71-.11l1.56.59a.73.73,0,0,1,.42.94l-1.78,4.73,4.73,1.78a.73.73,0,0,1,.42.94l-.59,1.56a.73.73,0,0,1-.55.46A2.39,2.39,0,1,0,42,59a.73.73,0,0,1-.11-.71l.59-1.56a.73.73,0,0,1,.94-.42h0L48.19,58l1.48-3.93.32-.86,2.87-7.64-4.05-1.52Z"/><path class="cls-1" d="M32,49a3.84,3.84,0,1,1,5-4.68l.52.19,1.52-4.05-4.73-1.78a.73.73,0,0,1-.42-.94l.59-1.56a.73.73,0,0,1,.55-.46,2.39,2.39,0,1,0-2.28-.86.73.73,0,0,1,.11.71L32.3,37.1a.73.73,0,0,1-.94.42l-4.73-1.78-1.78,4.73a.73.73,0,0,1-.94.42l-1.56-.59a.73.73,0,0,1-.46-.55A2.39,2.39,0,1,0,21,42a.73.73,0,0,1,.71-.11l1.56.59a.73.73,0,0,1,.42.94L22,48.19l1.73.65h0l10.7,4,1.52-4.05-.52-.19A3.86,3.86,0,0,1,32,49Z"/><path class="cls-1" d="M61.29,37.58A2.4,2.4,0,0,0,59,38a.73.73,0,0,1-.71.11l-1.56-.59a.73.73,0,0,1-.42-.94L58,31.81l-.94-.35-.66-.25L45.61,27.14l-1.52,4.05.52.19A3.84,3.84,0,1,1,43,35.72l-.52-.19-1.52,4.05,4.73,1.78a.73.73,0,0,1,.42.94l-.59,1.56a.73.73,0,0,1-.55.46,2.39,2.39,0,1,0,2.28.86.73.73,0,0,1-.11-.71l.59-1.56a.73.73,0,0,1,.94-.42l4.73,1.78,1.78-4.73a.73.73,0,0,1,.94-.42l1.56.59a.73.73,0,0,1,.46.55,2.39,2.39,0,1,0,3.19-2.65Z"/><path class="cls-2" d="M61.81,36.22a3.86,3.86,0,0,0-3.4.35l-.52-.19,1.78-4.73a.73.73,0,0,0-.42-.94L57.48,30l-.52-.2L45.44,25.52l-4.73-1.78.19-.52a3.84,3.84,0,1,0-4.33-1.63l-.19.52-4.73-1.78h0a.73.73,0,0,0-.94.42l-5.19,13.8-1.78,4.73-.52-.19a3.84,3.84,0,1,0-1.63,4.33l.52.19-1.78,4.73h0a.73.73,0,0,0,.42.94l2,.74h0l11.84,4.45,4.73,1.78-.19.52a3.84,3.84,0,1,0,4.33,1.63l.19-.52,4.73,1.78a.73.73,0,0,0,.94-.42L51,54.63l.32-.86,3.13-8.32,1.78-4.73.52.19a3.84,3.84,0,1,0,5-4.68ZM31.81,22l4.73,1.78a.73.73,0,0,0,.94-.42l.59-1.56A.73.73,0,0,0,38,21a2.39,2.39,0,1,1,2.28.86.73.73,0,0,0-.55.46l-.59,1.56a.73.73,0,0,0,.42.94l4.73,1.78-1.78,4.73a.73.73,0,0,0,.42.94l1.56.59a.73.73,0,0,0,.71-.11A2.39,2.39,0,1,1,44.31,35a.73.73,0,0,0-.46-.55l-1.56-.59a.73.73,0,0,0-.94.42l-1.78,4.73-4.05-1.52.19-.52a3.84,3.84,0,1,0-4.33-1.63l-.19.52-4.05-1.52Zm2.58,30.91-10.7-4h0L22,48.19l1.78-4.73a.73.73,0,0,0-.42-.94l-1.56-.59A.73.73,0,0,0,21,42a2.39,2.39,0,1,1,.86-2.28.73.73,0,0,0,.46.55l1.56.59a.73.73,0,0,0,.94-.42l1.78-4.73,4.73,1.78a.73.73,0,0,0,.94-.42l.59-1.56a.73.73,0,0,0-.11-.71,2.39,2.39,0,1,1,2.28.86.73.73,0,0,0-.55.46l-.59,1.56a.73.73,0,0,0,.42.94l4.73,1.78-1.52,4.05L37,44.28a3.84,3.84,0,1,0-1.63,4.33l.52.19Zm15.6.39-.32.86L48.19,58l-4.73-1.78h0a.73.73,0,0,0-.94.42l-.59,1.56A.73.73,0,0,0,42,59a2.39,2.39,0,1,1-2.28-.86.73.73,0,0,0,.55-.46l.59-1.56a.73.73,0,0,0-.42-.94l-4.73-1.78,1.78-4.73a.73.73,0,0,0-.42-.94l-1.56-.59a.73.73,0,0,0-.71.11A2.39,2.39,0,1,1,35.69,45a.73.73,0,0,0,.46.55l1.56.59a.73.73,0,0,0,.94-.42l1.78-4.73,4.05,1.52-.19.52a3.84,3.84,0,1,0,4.33,1.63l.19-.52,4.05,1.52ZM59.62,42a2.4,2.4,0,0,1-1.51-1.82.73.73,0,0,0-.46-.55l-1.56-.59a.73.73,0,0,0-.94.42l-1.78,4.73-4.73-1.78a.73.73,0,0,0-.94.42l-.59,1.56a.73.73,0,0,0,.11.71A2.39,2.39,0,1,1,45,44.31a.73.73,0,0,0,.55-.46l.59-1.56a.73.73,0,0,0-.42-.94l-4.73-1.78,1.52-4.05.52.19a3.84,3.84,0,1,0,1.63-4.33l-.52-.19,1.52-4.05,10.84,4.08.66.25.94.35-1.78,4.73a.73.73,0,0,0,.42.94l1.56.59A.73.73,0,0,0,59,38,2.39,2.39,0,1,1,59.62,42Z"/></svg>
