<svg id="Layer_1" data-name="Layer 1" xmlns="http://www.w3.org/2000/svg" viewBox="0 0 80 80"><defs><style>.cls-1{fill:none;stroke:currentColor;stroke-miterlimit:10;stroke-width:1.48px;}</style></defs><title>2_Do-du-lich-da-ngoai</title><circle class="cls-1" cx="41.8" cy="16.28" r="4.82"/><path class="cls-1" d="M59,36.35a2.48,2.48,0,0,0-2.49-2.48h-8.4l-4.74-6.73,0-.11a4.87,4.87,0,0,0-8-4.35v-5.6a1.74,1.74,0,0,0-1.75-1.74H28.81a1.74,1.74,0,0,0-1.75,1.74V37.81a4.87,4.87,0,0,0,4.41,4.84l-.37.87L28.18,54.58l-6.59,8.86A3,3,0,1,0,26.37,67l6.94-9.32a3,3,0,0,0,.49-1l2-7.54,5.46,5L40.51,65a3,3,0,0,0,2.77,3.18h.21a3,3,0,0,0,3-2.78l.84-12.3a3,3,0,0,0-1-2.4L40.7,45.53l1.72-11.12,2.37,3.37a2.49,2.49,0,0,0,2,1.05H55V67.17a1.38,1.38,0,0,0,1.37,1.37h0a1.38,1.38,0,0,0,1.37-1.37V38.51A2.48,2.48,0,0,0,59,36.35Z"/></svg>
