<svg id="Layer_1" data-name="Layer 1" xmlns="http://www.w3.org/2000/svg" viewBox="0 0 80 80"><defs><style>.cls-1{fill:currentColor;}</style></defs><title>3_Do-dung-van-phong</title><path class="cls-1" d="M54,19.73a3.4,3.4,0,0,0-1.4-.3,3.45,3.45,0,0,0-3.13,2.05L48.38,24l-3.66,8.07-.5-.11V17.9a.63.63,0,0,0-.68-.68H38a.63.63,0,0,0-.68.68V35.62H35V17.15a3.4,3.4,0,0,0-6.8,0v2.33H24.68a.63.63,0,0,0-.68.68V28a.68.68,0,0,0,1.36,0V20.83h2.87V35.71H27.12a1.83,1.83,0,0,0-1.8,1.8v.08l3.38,26.92v0a1.74,1.74,0,0,0,1.8,1.71h16a1.79,1.79,0,0,0,1.8-1.73h0l3.38-26.92v-.08a1.63,1.63,0,0,0-1-1.54l-.24-.1.11-.24,3.94-8.73,1.12-2.53a3.4,3.4,0,0,0,.09-2.62A4,4,0,0,0,54,19.73ZM38.59,35.35V18.58h4.18v17H38.59Zm-9.1-16.14V17.15a2,2,0,0,1,2-2,2.1,2.1,0,0,1,2,2v2.33H29.48Zm0,16.24V20.83h4.09V35.71H29.48Zm17.79,26.3L47,64.37v.08a.46.46,0,0,1-.45.45H30.4a.46.46,0,0,1-.45-.45v-.08l-.37-2.61,0-.3H47.3Zm2.25-17.07-2,15.11,0,.23H29.42l0-.23L27.52,44.68l0-.29H49.56Zm.84-7.23-.66,5.35,0,.23H27.26l0-.23-.66-5.35v0c0-.13.06-.35.45-.35h22.9a.37.37,0,0,1,.25.09h.24ZM53,27.2l-3.85,8.45-.07.15H44.69v-.41l0-.05,4.5-9.85.11-.24.24.11,3.28,1.5.24.11Zm1.51-3.48h0l-.75,1.69-.11.24-.24-.11L50.1,24l-.23-.11.1-.24L50.71,22a2,2,0,0,1,1.89-1.24,2,2,0,0,1,1.87,1.34A2.09,2.09,0,0,1,54.48,23.72Z"/></svg>
